<svg width="68" height="40" viewBox="0 0 68 40" fill="none" xmlns="http://www.w3.org/2000/svg">
<path d="M40.1702 20.6567C39.4009 20.6301 38.7642 20.5506 38.2602 20.4179C37.7826 20.2587 37.398 20.0465 37.1062 19.7812C36.8143 19.4894 36.6021 19.1313 36.4695 18.7068C36.3634 18.2558 36.297 17.7252 36.2705 17.1151C36.2705 16.8763 36.2572 16.4917 36.2307 15.9611C36.2307 15.404 36.2307 14.7938 36.2307 14.1306C36.2307 13.4409 36.2174 12.7246 36.1909 11.9818C36.1909 11.239 36.1909 10.5227 36.1909 9.83294C36.1909 9.14319 36.1909 8.53303 36.1909 8.00246C36.1909 7.47188 36.1909 7.07395 36.1909 6.80866C36.1909 5.8271 36.4562 5.09756 36.9868 4.62004C37.5439 4.11599 38.2204 3.86397 39.0162 3.86397C39.8652 3.86397 40.5549 4.11599 41.0855 4.62004C41.6426 5.09756 41.9211 5.84036 41.9211 6.84846V8.40039C42.4252 8.40039 43.0221 8.40039 43.7118 8.40039C44.4016 8.40039 45.1046 8.40039 45.8209 8.40039C46.5371 8.40039 47.2402 8.40039 47.9299 8.40039C48.6196 8.40039 49.2165 8.40039 49.7206 8.40039V6.60969C49.7206 5.68119 49.9991 4.99144 50.5562 4.54045C51.1134 4.08947 51.8031 3.86397 52.6255 3.86397C53.4214 3.86397 54.0978 4.0762 54.6549 4.50066C55.212 4.92512 55.4906 5.57508 55.4906 6.45053C55.4906 6.7954 55.4906 7.47188 55.4906 8.47997C55.5171 9.46154 55.5304 10.5227 55.5304 11.6634C55.5304 12.8042 55.5304 13.8918 55.5304 14.9265C55.5304 15.9346 55.5171 16.6376 55.4906 17.0355C55.4641 17.6457 55.3845 18.1762 55.2518 18.6272C55.1192 19.0517 54.8937 19.4098 54.5754 19.7016C54.257 19.9669 53.8193 20.1792 53.2622 20.3383C52.7051 20.4975 51.9755 20.5904 51.0736 20.6169C50.3838 20.6699 49.5747 20.7097 48.6462 20.7363C47.7442 20.7363 46.8024 20.7495 45.8209 20.7761C44.8658 20.7761 43.8975 20.7761 42.916 20.7761C41.9344 20.7495 41.0192 20.7097 40.1702 20.6567ZM41.9211 15.1652C41.9477 15.5897 42.0272 15.8417 42.1599 15.9213C42.2925 16.0009 42.5844 16.0539 43.0353 16.0805C43.8843 16.107 44.7862 16.1203 45.7413 16.1203C46.6963 16.1203 47.5585 16.0937 48.3278 16.0407C48.6196 16.0141 48.8584 16.0009 49.0441 16.0009C49.2298 15.9744 49.3757 15.9478 49.4818 15.9213C49.5879 15.8682 49.6543 15.7886 49.6808 15.6825C49.7339 15.5499 49.7604 15.3775 49.7604 15.1652V12.7378C49.2563 12.7378 48.6594 12.7378 47.9697 12.7378C47.2799 12.7113 46.5637 12.698 45.8209 12.698C45.1046 12.698 44.4016 12.7113 43.7118 12.7378C43.0221 12.7378 42.4252 12.7378 41.9211 12.7378V15.1652ZM46.9749 29.451C46.9749 28.2572 47.1871 27.1828 47.6116 26.2277C48.0625 25.2727 48.6727 24.4636 49.442 23.8003C50.2379 23.1371 51.1929 22.6331 52.3071 22.2882C53.4214 21.9433 54.6549 21.7709 56.0079 21.7709C57.2548 21.7709 58.3955 21.9433 59.4301 22.2882C60.4913 22.6331 61.3932 23.1371 62.1361 23.8003C62.9054 24.4636 63.5023 25.2727 63.9267 26.2277C64.3512 27.1562 64.5634 28.2306 64.5634 29.451C64.5634 30.5386 64.3645 31.5467 63.9665 32.4752C63.5951 33.4037 63.038 34.2129 62.2952 34.9026C61.5524 35.5924 60.6504 36.1362 59.5893 36.5341C58.5547 36.9321 57.3609 37.131 56.0079 37.131C54.6549 37.131 53.4214 36.9321 52.3071 36.5341C51.2195 36.1362 50.2777 35.5924 49.4818 34.9026C48.686 34.2129 48.0625 33.4037 47.6116 32.4752C47.1871 31.5467 46.9749 30.5386 46.9749 29.451ZM52.8642 29.3714C52.8642 30.1407 53.1428 30.7774 53.6999 31.2814C54.257 31.759 54.9866 31.9977 55.8885 31.9977C56.817 31.9977 57.5598 31.759 58.1169 31.2814C58.7006 30.7774 58.9924 30.1407 58.9924 29.3714C58.9924 28.5225 58.7138 27.8725 58.1567 27.4215C57.5996 26.944 56.8436 26.7052 55.8885 26.7052C54.9866 26.7052 54.257 26.9307 53.6999 27.3817C53.1428 27.8062 52.8642 28.4694 52.8642 29.3714ZM61.0218 6.25156C60.9688 5.13735 61.181 4.30169 61.6585 3.74459C62.1626 3.16096 62.9054 2.86914 63.887 2.86914C64.7889 2.86914 65.5185 3.14769 66.0756 3.7048C66.6592 4.23537 66.9776 5.13735 67.0306 6.41073C67.0837 7.7637 67.1102 8.97076 67.1102 10.0319C67.1367 11.0665 67.15 12.0481 67.15 12.9766C67.15 13.8786 67.1367 14.7408 67.1102 15.5632C67.1102 16.3855 67.0969 17.2345 67.0704 18.1099C67.0173 19.3833 66.7388 20.3914 66.2347 21.1342C65.7307 21.877 64.9746 22.2484 63.9665 22.2484C62.9584 22.2484 62.2156 21.9566 61.7381 21.373C61.2871 20.7628 61.1014 19.7812 61.181 18.4283C61.2075 17.7385 61.2208 16.9029 61.2208 15.9213C61.2473 14.9397 61.2473 13.9051 61.2208 12.8174C61.2208 11.7032 61.1943 10.5757 61.1412 9.43501C61.1147 8.29427 61.0749 7.23312 61.0218 6.25156Z" fill="#1B92FF"/>
<path d="M17.9291 36.8927C17.1597 36.8927 16.4302 36.6274 15.7404 36.0969C15.0772 35.5663 14.7191 34.7837 14.666 33.7491C14.666 33.4307 14.6528 33.046 14.6262 32.5951C14.6262 32.1441 14.613 31.6533 14.5864 31.1227C14.5864 30.5921 14.5864 30.035 14.5864 29.4514C14.5864 28.8678 14.5864 28.2841 14.5864 27.7005C12.6498 27.674 10.7663 27.6342 8.93582 27.5811C7.13187 27.5281 5.50035 27.4352 4.04126 27.3026C2.82094 27.1965 1.97202 26.9046 1.4945 26.4271C1.01698 25.9231 0.804755 25.2864 0.857812 24.517C0.91087 23.7477 1.16289 23.1243 1.61388 22.6468C2.0914 22.1427 2.96685 21.9172 4.24023 21.9703C6.38906 22.0499 8.61748 22.1162 10.9255 22.1693C13.26 22.1958 15.5813 22.209 17.8893 22.209C20.2238 22.209 22.5318 22.1958 24.8133 22.1693C27.0948 22.1162 29.2701 22.0366 31.3394 21.9305C32.6923 21.8774 33.6341 22.1295 34.1647 22.6866C34.7218 23.2171 35.0003 23.8936 35.0003 24.716C35.0003 25.4853 34.7881 26.0822 34.3636 26.5067C33.9657 26.9046 33.2627 27.1567 32.2546 27.2628C31.0873 27.3954 29.5354 27.5015 27.5988 27.5811C25.6887 27.6342 23.593 27.674 21.3115 27.7005C21.285 28.5494 21.2584 29.4249 21.2319 30.3269C21.2319 31.2023 21.2319 31.9982 21.2319 32.7144C21.2319 33.4307 21.1258 34.0409 20.9136 34.5449C20.7279 35.0755 20.4758 35.5132 20.1575 35.8581C19.8657 36.203 19.5208 36.455 19.1229 36.6142C18.7249 36.7999 18.327 36.8927 17.9291 36.8927ZM4.3994 14.1708C4.3994 13.1627 4.3994 12.3271 4.3994 11.6639C4.3994 11.0006 4.3994 10.4303 4.3994 9.95276C4.42593 9.44871 4.4392 8.99772 4.4392 8.59979C4.46572 8.20186 4.50552 7.75087 4.55857 7.24682C4.63816 6.37137 4.91671 5.72142 5.39423 5.29696C5.87175 4.84597 6.65435 4.60721 7.74203 4.58068C9.41334 4.55415 11.1244 4.52762 12.8753 4.5011C14.6528 4.47457 16.4169 4.4613 18.1678 4.4613C19.9187 4.43477 21.6298 4.43477 23.3011 4.4613C24.9725 4.4613 26.5509 4.5011 28.0365 4.58068C29.1242 4.63374 29.9068 4.8725 30.3843 5.29696C30.8618 5.72142 31.1404 6.37137 31.22 7.24682C31.2465 7.75087 31.273 8.20186 31.2996 8.59979C31.3261 8.99772 31.3394 9.44871 31.3394 9.95276C31.3659 10.4303 31.3792 11.0006 31.3792 11.6639C31.3792 12.3271 31.3792 13.1627 31.3792 14.1708C31.3792 15.1259 31.3128 15.935 31.1802 16.5982C31.0741 17.2349 30.8353 17.7655 30.4639 18.1899C30.0925 18.5879 29.5619 18.893 28.8722 19.1052C28.1824 19.3174 27.2539 19.4633 26.0867 19.5429C25.0786 19.596 23.898 19.6358 22.5451 19.6623C21.1921 19.6888 19.7728 19.7021 18.2872 19.7021C16.8016 19.7021 15.3027 19.6888 13.7906 19.6623C12.305 19.6358 10.9387 19.6092 9.69189 19.5827C8.52463 19.5562 7.59612 19.4368 6.90637 19.2246C6.21662 19.0123 5.68605 18.694 5.31464 18.2695C4.94324 17.8185 4.69122 17.2614 4.55857 16.5982C4.45246 15.935 4.3994 15.1259 4.3994 14.1708ZM10.4082 10.5497C10.3816 11.0537 10.3684 11.4649 10.3684 11.7832C10.3949 12.0751 10.4214 12.473 10.448 12.977C10.501 13.5341 10.6204 13.9055 10.8061 14.0912C11.0183 14.2769 11.4295 14.3831 12.0397 14.4096C12.809 14.4361 13.6977 14.4626 14.7058 14.4892C15.7404 14.4892 16.7883 14.4892 17.8495 14.4892C18.9372 14.4892 19.9983 14.4892 21.0329 14.4892C22.0676 14.4626 22.9695 14.4361 23.7389 14.4096C24.349 14.3831 24.747 14.2769 24.9327 14.0912C25.1449 13.9055 25.2775 13.5341 25.3306 12.977C25.3571 12.473 25.3704 12.0751 25.3704 11.7832C25.3969 11.4649 25.3969 11.0537 25.3704 10.5497C25.3439 10.2578 25.2775 10.0589 25.1714 9.95276C25.0918 9.84664 24.8796 9.78032 24.5347 9.75379C23.845 9.70073 22.8899 9.6742 21.6696 9.6742C20.4758 9.64768 19.2157 9.63441 17.8893 9.63441C16.5894 9.63441 15.3293 9.64768 14.1089 9.6742C12.8886 9.70073 11.9336 9.72726 11.2438 9.75379C10.8989 9.78032 10.6735 9.84664 10.5673 9.95276C10.4878 10.0589 10.4347 10.2578 10.4082 10.5497Z" fill="#1B92FF"/>
</svg>
