<svg width="140" height="80" viewBox="0 0 140 80" fill="none" xmlns="http://www.w3.org/2000/svg">
<path d="M79.9303 41.0571C78.6922 41.0144 77.6676 40.8863 76.8564 40.6728C76.0879 40.4167 75.4689 40.0751 74.9993 39.6482C74.5296 39.1786 74.1881 38.6023 73.9746 37.9192C73.8039 37.1934 73.6971 36.3395 73.6544 35.3576C73.6544 34.9734 73.6331 34.3543 73.5904 33.5005C73.5904 32.6039 73.5904 31.622 73.5904 30.5547C73.5904 29.4447 73.5691 28.292 73.5264 27.0966C73.5264 25.9012 73.5264 24.7485 73.5264 23.6385C73.5264 22.5285 73.5264 21.5465 73.5264 20.6927C73.5264 19.8388 73.5264 19.1984 73.5264 18.7715C73.5264 17.1919 73.9533 16.0178 74.8071 15.2494C75.7037 14.4382 76.7924 14.0326 78.0731 14.0326C79.4393 14.0326 80.5493 14.4382 81.4032 15.2494C82.2997 16.0178 82.748 17.2132 82.748 18.8355V21.3331C83.5591 21.3331 84.5197 21.3331 85.6297 21.3331C86.7398 21.3331 87.8711 21.3331 89.0238 21.3331C90.1765 21.3331 91.3079 21.3331 92.4179 21.3331C93.5279 21.3331 94.4885 21.3331 95.2996 21.3331V18.4513C95.2996 16.9571 95.7479 15.8471 96.6444 15.1213C97.541 14.3955 98.651 14.0326 99.9745 14.0326C101.255 14.0326 102.344 14.3742 103.24 15.0572C104.137 15.7403 104.585 16.7863 104.585 18.1952C104.585 18.7502 104.585 19.8388 104.585 21.4611C104.628 23.0408 104.649 24.7485 104.649 26.5843C104.649 28.42 104.649 30.1704 104.649 31.8355C104.649 33.4578 104.628 34.5891 104.585 35.2295C104.543 36.2115 104.415 37.0653 104.201 37.7911C103.988 38.4742 103.625 39.0505 103.112 39.5201C102.6 39.9471 101.896 40.2886 100.999 40.5448C100.103 40.8009 98.9285 40.9503 97.477 40.993C96.3669 41.0784 95.0648 41.1425 93.5706 41.1852C92.119 41.1852 90.6034 41.2065 89.0238 41.2492C87.4869 41.2492 85.9286 41.2492 84.349 41.2492C82.7693 41.2065 81.2964 41.1425 79.9303 41.0571ZM82.748 32.2197C82.7907 32.9028 82.9188 33.3084 83.1322 33.4364C83.3457 33.5645 83.8153 33.6499 84.5411 33.6926C85.9072 33.7353 87.3588 33.7566 88.8957 33.7566C90.4327 33.7566 91.8202 33.7139 93.0583 33.6286C93.5279 33.5859 93.9121 33.5645 94.211 33.5645C94.5098 33.5218 94.7446 33.4791 94.9154 33.4364C95.0862 33.3511 95.1929 33.223 95.2356 33.0522C95.321 32.8387 95.3637 32.5612 95.3637 32.2197V28.3133C94.5525 28.3133 93.5919 28.3133 92.4819 28.3133C91.3719 28.2706 90.2192 28.2493 89.0238 28.2493C87.8711 28.2493 86.7398 28.2706 85.6297 28.3133C84.5197 28.3133 83.5591 28.3133 82.748 28.3133V32.2197ZM90.8809 55.2097C90.8809 53.2885 91.2225 51.5595 91.9056 50.0225C92.6313 48.4856 93.6133 47.1835 94.8514 46.1162C96.1321 45.0488 97.6691 44.2377 99.4622 43.6827C101.255 43.1277 103.24 42.8502 105.418 42.8502C107.424 42.8502 109.26 43.1277 110.925 43.6827C112.633 44.2377 114.084 45.0488 115.28 46.1162C116.518 47.1835 117.478 48.4856 118.162 50.0225C118.845 51.5168 119.186 53.2458 119.186 55.2097C119.186 56.9601 118.866 58.5824 118.226 60.0767C117.628 61.5709 116.731 62.873 115.536 63.983C114.341 65.0931 112.889 65.9683 111.181 66.6086C109.516 67.249 107.595 67.5692 105.418 67.5692C103.24 67.5692 101.255 67.249 99.4622 66.6086C97.7118 65.9683 96.1962 65.0931 94.9154 63.983C93.6346 62.873 92.6313 61.5709 91.9056 60.0767C91.2225 58.5824 90.8809 56.9601 90.8809 55.2097ZM100.359 55.0816C100.359 56.3197 100.807 57.3443 101.704 58.1555C102.6 58.924 103.774 59.3082 105.226 59.3082C106.72 59.3082 107.915 58.924 108.812 58.1555C109.751 57.3443 110.221 56.3197 110.221 55.0816C110.221 53.7155 109.772 52.6695 108.876 51.9437C107.979 51.1752 106.763 50.791 105.226 50.791C103.774 50.791 102.6 51.1539 101.704 51.8797C100.807 52.5627 100.359 53.6301 100.359 55.0816ZM113.487 17.875C113.401 16.0819 113.743 14.737 114.511 13.8405C115.322 12.9013 116.518 12.4316 118.098 12.4316C119.549 12.4316 120.723 12.8799 121.62 13.7765C122.559 14.6303 123.071 16.0819 123.157 18.1311C123.242 20.3084 123.285 22.251 123.285 23.9587C123.327 25.6237 123.349 27.2033 123.349 28.6975C123.349 30.1491 123.327 31.5366 123.285 32.8601C123.285 34.1836 123.263 35.5497 123.221 36.9586C123.135 39.0078 122.687 40.6302 121.876 41.8255C121.065 43.0209 119.848 43.6186 118.226 43.6186C116.603 43.6186 115.408 43.149 114.639 42.2098C113.914 41.2278 113.615 39.6482 113.743 37.4709C113.786 36.3609 113.807 35.0161 113.807 33.4364C113.85 31.8568 113.85 30.1918 113.807 28.4414C113.807 26.6483 113.764 24.8339 113.679 22.9981C113.636 21.1623 113.572 19.4546 113.487 17.875Z" fill="#1B92FF"/>
<path d="M44.1367 67.1847C42.8986 67.1847 41.7245 66.7578 40.6145 65.904C39.5472 65.0501 38.9708 63.7907 38.8855 62.1257C38.8855 61.6133 38.8641 60.9943 38.8214 60.2685C38.8214 59.5428 38.8001 58.7529 38.7574 57.8991C38.7574 57.0452 38.7574 56.1487 38.7574 55.2094C38.7574 54.2702 38.7574 53.331 38.7574 52.3917C35.6408 52.349 32.6096 52.285 29.6638 52.1996C26.7607 52.1142 24.1351 51.9648 21.7871 51.7513C19.8232 51.5806 18.457 51.111 17.6886 50.3425C16.9201 49.5313 16.5785 48.5067 16.6639 47.2686C16.7493 46.0305 17.1549 45.0272 17.8807 44.2588C18.6491 43.4476 20.058 43.0847 22.1072 43.1701C25.5654 43.2982 29.1515 43.4049 32.8658 43.4903C36.6228 43.533 40.3584 43.5543 44.0726 43.5543C47.8296 43.5543 51.5438 43.533 55.2154 43.4903C58.887 43.4049 62.3878 43.2768 65.7178 43.1061C67.8951 43.0207 69.4107 43.4263 70.2646 44.3228C71.1611 45.1767 71.6094 46.2653 71.6094 47.5888C71.6094 48.8269 71.2679 49.7875 70.5848 50.4706C69.9444 51.111 68.813 51.5165 67.1907 51.6873C65.3122 51.9008 62.8147 52.0715 59.6981 52.1996C56.6243 52.285 53.2516 52.349 49.58 52.3917C49.5373 53.7579 49.4946 55.1668 49.4519 56.6183C49.4519 58.0272 49.4519 59.3079 49.4519 60.4606C49.4519 61.6133 49.2811 62.5953 48.9396 63.4064C48.6407 64.2603 48.2352 64.9647 47.7228 65.5197C47.2532 66.0747 46.6982 66.4803 46.0578 66.7365C45.4174 67.0353 44.7771 67.1847 44.1367 67.1847ZM22.3634 30.6185C22.3634 28.9961 22.3634 27.6513 22.3634 26.584C22.3634 25.5167 22.3634 24.5988 22.3634 23.8303C22.4061 23.0192 22.4274 22.2934 22.4274 21.653C22.4701 21.0126 22.5342 20.2868 22.6196 19.4757C22.7476 18.0668 23.1959 17.0209 23.9644 16.3378C24.7328 15.612 25.9923 15.2278 27.7427 15.1851C30.4323 15.1424 33.186 15.0997 36.0037 15.057C38.8641 15.0143 41.7032 14.993 44.5209 14.993C47.3386 14.9503 50.0923 14.9503 52.7819 14.993C55.4716 14.993 58.0118 15.057 60.4026 15.1851C62.153 15.2705 63.4124 15.6547 64.1809 16.3378C64.9493 17.0209 65.3976 18.0668 65.5257 19.4757C65.5684 20.2868 65.6111 21.0126 65.6538 21.653C65.6965 22.2934 65.7178 23.0192 65.7178 23.8303C65.7605 24.5988 65.7818 25.5167 65.7818 26.584C65.7818 27.6513 65.7818 28.9961 65.7818 30.6185C65.7818 32.1554 65.6751 33.4575 65.4617 34.5249C65.2909 35.5495 64.9067 36.4033 64.309 37.0864C63.7113 37.7268 62.8574 38.2178 61.7474 38.5593C60.6374 38.9008 59.1431 39.1357 57.2647 39.2637C55.6423 39.3491 53.7425 39.4132 51.5652 39.4559C49.3879 39.4985 47.1038 39.5199 44.713 39.5199C42.3222 39.5199 39.9101 39.4985 37.4766 39.4559C35.0858 39.4132 32.8871 39.3705 30.8806 39.3278C29.0021 39.2851 27.5079 39.093 26.3979 38.7514C25.2879 38.4099 24.434 37.8976 23.8363 37.2145C23.2386 36.4887 22.833 35.5922 22.6196 34.5249C22.4488 33.4575 22.3634 32.1554 22.3634 30.6185ZM32.0333 24.7909C31.9906 25.6021 31.9693 26.2638 31.9693 26.7761C32.0119 27.2457 32.0546 27.8861 32.0973 28.6973C32.1827 29.5938 32.3748 30.1915 32.6737 30.4904C33.0152 30.7892 33.677 30.96 34.6589 31.0027C35.897 31.0454 37.3272 31.0881 38.9495 31.1308C40.6145 31.1308 42.3009 31.1308 44.0086 31.1308C45.759 31.1308 47.4667 31.1308 49.1317 31.1308C50.7967 31.0881 52.2483 31.0454 53.4864 31.0027C54.4683 30.96 55.1087 30.7892 55.4075 30.4904C55.7491 30.1915 55.9625 29.5938 56.0479 28.6973C56.0906 27.8861 56.112 27.2457 56.112 26.7761C56.1547 26.2638 56.1547 25.6021 56.112 24.7909C56.0693 24.3213 55.9625 24.0011 55.7918 23.8303C55.6637 23.6596 55.3221 23.5528 54.7671 23.5101C53.6571 23.4248 52.1202 23.3821 50.1563 23.3821C48.2352 23.3394 46.2073 23.318 44.0726 23.318C41.9807 23.318 39.9528 23.3394 37.9889 23.3821C36.0251 23.4248 34.4881 23.4675 33.3781 23.5101C32.8231 23.5528 32.4602 23.6596 32.2894 23.8303C32.1614 24.0011 32.076 24.3213 32.0333 24.7909Z" fill="#1B92FF"/>
</svg>
