<svg width="116" height="44" viewBox="0 0 116 44" fill="none" xmlns="http://www.w3.org/2000/svg">
<circle cx="20" cy="19.3602" r="19.2" fill="#1B92FF"/>
<mask id="mask0_1_1533" style="mask-type:alpha" maskUnits="userSpaceOnUse" x="20" y="0" width="20" height="44">
<rect width="19.2" height="43.68" transform="matrix(1 0 0 -1 20.0002 43.8398)" fill="#D9D9D9"/>
</mask>
<g mask="url(#mask0_1_1533)">
<path d="M0.800194 19.3602C0.800194 35.2002 20.0002 43.8402 20.0002 43.8402C20.0002 43.8402 39.2002 35.2002 39.2002 19.3602C39.2002 8.75629 30.6041 0.160156 20.0002 0.160156C9.39633 0.160156 0.800194 8.75629 0.800194 19.3602Z" fill="#1B92FF"/>
</g>
<rect x="24.8394" y="12.0703" width="5.376" height="14.592" rx="2.688" fill="#E9F4FF"/>
<rect x="15.5029" y="12.0977" width="5.376" height="14.592" rx="2.688" fill="#E9F4FF"/>
<rect opacity="0.8" x="18.2" y="10.9727" width="5.376" height="18.4929" rx="2.688" transform="rotate(45.4799 18.2 10.9727)" fill="#E9F4FF"/>
<rect opacity="0.8" x="31.2678" y="16.6387" width="5.30213" height="10.4446" rx="2.65107" transform="rotate(45.4799 31.2678 16.6387)" fill="#E9F4FF"/>
<rect opacity="0.8" x="27.5364" y="10.9453" width="5.43795" height="18.4261" rx="2.71897" transform="rotate(45.4799 27.5364 10.9453)" fill="#E9F4FF"/>
<path d="M87.3702 22.6567C86.6008 22.6301 85.9642 22.5506 85.4601 22.4179C84.9826 22.2587 84.5979 22.0465 84.3061 21.7812C84.0143 21.4894 83.8021 21.1313 83.6694 20.7068C83.5633 20.2558 83.497 19.7252 83.4705 19.1151C83.4705 18.8763 83.4572 18.4917 83.4307 17.9611C83.4307 17.404 83.4307 16.7938 83.4307 16.1306C83.4307 15.4409 83.4174 14.7246 83.3909 13.9818C83.3909 13.239 83.3909 12.5227 83.3909 11.8329C83.3909 11.1432 83.3909 10.533 83.3909 10.0025C83.3909 9.47188 83.3909 9.07395 83.3909 8.80866C83.3909 7.8271 83.6562 7.09756 84.1867 6.62004C84.7438 6.11599 85.4203 5.86397 86.2162 5.86397C87.0651 5.86397 87.7549 6.11599 88.2854 6.62004C88.8425 7.09756 89.1211 7.84036 89.1211 8.84846V10.4004C89.6251 10.4004 90.222 10.4004 90.9118 10.4004C91.6015 10.4004 92.3045 10.4004 93.0208 10.4004C93.7371 10.4004 94.4401 10.4004 95.1299 10.4004C95.8196 10.4004 96.4165 10.4004 96.9205 10.4004V8.60969C96.9205 7.68119 97.1991 6.99144 97.7562 6.54045C98.3133 6.08947 99.003 5.86397 99.8254 5.86397C100.621 5.86397 101.298 6.0762 101.855 6.50066C102.412 6.92512 102.691 7.57508 102.691 8.45053C102.691 8.7954 102.691 9.47188 102.691 10.48C102.717 11.4615 102.73 12.5227 102.73 13.6634C102.73 14.8042 102.73 15.8918 102.73 16.9265C102.73 17.9346 102.717 18.6376 102.691 19.0355C102.664 19.6457 102.584 20.1762 102.452 20.6272C102.319 21.0517 102.094 21.4098 101.775 21.7016C101.457 21.9669 101.019 22.1792 100.462 22.3383C99.905 22.4975 99.1755 22.5904 98.2735 22.6169C97.5838 22.6699 96.7746 22.7097 95.8461 22.7363C94.9441 22.7363 94.0024 22.7495 93.0208 22.7761C92.0658 22.7761 91.0975 22.7761 90.1159 22.7761C89.1343 22.7495 88.2191 22.7097 87.3702 22.6567ZM89.1211 17.1652C89.1476 17.5897 89.2272 17.8417 89.3598 17.9213C89.4925 18.0009 89.7843 18.0539 90.2353 18.0805C91.0842 18.107 91.9862 18.1203 92.9412 18.1203C93.8963 18.1203 94.7584 18.0937 95.5278 18.0407C95.8196 18.0141 96.0584 18.0009 96.2441 18.0009C96.4298 17.9744 96.5757 17.9478 96.6818 17.9213C96.7879 17.8682 96.8542 17.7886 96.8807 17.6825C96.9338 17.5499 96.9603 17.3775 96.9603 17.1652V14.7378C96.4563 14.7378 95.8594 14.7378 95.1696 14.7378C94.4799 14.7113 93.7636 14.698 93.0208 14.698C92.3045 14.698 91.6015 14.7113 90.9118 14.7378C90.222 14.7378 89.6251 14.7378 89.1211 14.7378V17.1652ZM94.1748 31.451C94.1748 30.2572 94.387 29.1828 94.8115 28.2277C95.2625 27.2727 95.8727 26.4636 96.642 25.8003C97.4379 25.1371 98.3929 24.6331 99.5071 24.2882C100.621 23.9433 101.855 23.7709 103.208 23.7709C104.455 23.7709 105.595 23.9433 106.63 24.2882C107.691 24.6331 108.593 25.1371 109.336 25.8003C110.105 26.4636 110.702 27.2727 111.127 28.2277C111.551 29.1562 111.763 30.2306 111.763 31.451C111.763 32.5386 111.564 33.5467 111.166 34.4752C110.795 35.4037 110.238 36.2129 109.495 36.9026C108.752 37.5924 107.85 38.1362 106.789 38.5341C105.755 38.9321 104.561 39.131 103.208 39.131C101.855 39.131 100.621 38.9321 99.5071 38.5341C98.4194 38.1362 97.4776 37.5924 96.6818 36.9026C95.8859 36.2129 95.2625 35.4037 94.8115 34.4752C94.387 33.5467 94.1748 32.5386 94.1748 31.451ZM100.064 31.3714C100.064 32.1407 100.343 32.7774 100.9 33.2814C101.457 33.759 102.187 33.9977 103.088 33.9977C104.017 33.9977 104.76 33.759 105.317 33.2814C105.901 32.7774 106.192 32.1407 106.192 31.3714C106.192 30.5225 105.914 29.8725 105.357 29.4215C104.8 28.944 104.044 28.7052 103.088 28.7052C102.187 28.7052 101.457 28.9307 100.9 29.3817C100.343 29.8062 100.064 30.4694 100.064 31.3714ZM108.222 8.25156C108.169 7.13735 108.381 6.30169 108.858 5.74459C109.363 5.16096 110.105 4.86914 111.087 4.86914C111.989 4.86914 112.718 5.14769 113.276 5.7048C113.859 6.23537 114.178 7.13735 114.231 8.41073C114.284 9.7637 114.31 10.9708 114.31 12.0319C114.337 13.0665 114.35 14.0481 114.35 14.9766C114.35 15.8786 114.337 16.7408 114.31 17.5632C114.31 18.3855 114.297 19.2345 114.27 20.1099C114.217 21.3833 113.939 22.3914 113.435 23.1342C112.931 23.877 112.175 24.2484 111.166 24.2484C110.158 24.2484 109.416 23.9566 108.938 23.373C108.487 22.7628 108.301 21.7812 108.381 20.4283C108.407 19.7385 108.421 18.9029 108.421 17.9213C108.447 16.9397 108.447 15.9051 108.421 14.8174C108.421 13.7032 108.394 12.5757 108.341 11.435C108.315 10.2943 108.275 9.23312 108.222 8.25156Z" fill="#1B92FF"/>
<path d="M65.129 38.8927C64.3597 38.8927 63.6301 38.6274 62.9404 38.0969C62.2772 37.5663 61.919 36.7837 61.866 35.7491C61.866 35.4307 61.8527 35.046 61.8262 34.5951C61.8262 34.1441 61.8129 33.6533 61.7864 33.1227C61.7864 32.5921 61.7864 32.035 61.7864 31.4514C61.7864 30.8678 61.7864 30.2841 61.7864 29.7005C59.8498 29.674 57.9663 29.6342 56.1358 29.5811C54.3318 29.5281 52.7003 29.4352 51.2412 29.3026C50.0209 29.1965 49.172 28.9046 48.6945 28.4271C48.2169 27.9231 48.0047 27.2864 48.0578 26.517C48.1108 25.7477 48.3628 25.1243 48.8138 24.6468C49.2914 24.1427 50.1668 23.9172 51.4402 23.9703C53.589 24.0499 55.8174 24.1162 58.1254 24.1693C60.46 24.1958 62.7812 24.209 65.0892 24.209C67.4238 24.209 69.7318 24.1958 72.0132 24.1693C74.2947 24.1162 76.4701 24.0366 78.5393 23.9305C79.8923 23.8774 80.834 24.1295 81.3646 24.6866C81.9217 25.2171 82.2003 25.8936 82.2003 26.716C82.2003 27.4853 81.9881 28.0822 81.5636 28.5067C81.1657 28.9046 80.4627 29.1567 79.4546 29.2628C78.2873 29.3954 76.7354 29.5015 74.7988 29.5811C72.8887 29.6342 70.7929 29.674 68.5114 29.7005C68.4849 30.5494 68.4584 31.4249 68.4319 32.3269C68.4319 33.2023 68.4319 33.9982 68.4319 34.7144C68.4319 35.4307 68.3257 36.0409 68.1135 36.5449C67.9278 37.0755 67.6758 37.5132 67.3574 37.8581C67.0656 38.203 66.7207 38.455 66.3228 38.6142C65.9249 38.7999 65.527 38.8927 65.129 38.8927ZM51.5994 16.1708C51.5994 15.1627 51.5994 14.3271 51.5994 13.6639C51.5994 13.0006 51.5994 12.4303 51.5994 11.9528C51.6259 11.4487 51.6391 10.9977 51.6391 10.5998C51.6657 10.2019 51.7055 9.75087 51.7585 9.24682C51.8381 8.37137 52.1167 7.72142 52.5942 7.29696C53.0717 6.84597 53.8543 6.60721 54.942 6.58068C56.6133 6.55415 58.3244 6.52762 60.0753 6.5011C61.8527 6.47457 63.6169 6.4613 65.3678 6.4613C67.1187 6.43477 68.8298 6.43477 70.5011 6.4613C72.1724 6.4613 73.7509 6.5011 75.2365 6.58068C76.3242 6.63374 77.1068 6.8725 77.5843 7.29696C78.0618 7.72142 78.3403 8.37137 78.4199 9.24682C78.4465 9.75087 78.473 10.2019 78.4995 10.5998C78.5261 10.9977 78.5393 11.4487 78.5393 11.9528C78.5658 12.4303 78.5791 13.0006 78.5791 13.6639C78.5791 14.3271 78.5791 15.1627 78.5791 16.1708C78.5791 17.1259 78.5128 17.935 78.3801 18.5982C78.274 19.2349 78.0353 19.7655 77.6639 20.1899C77.2925 20.5879 76.7619 20.893 76.0721 21.1052C75.3824 21.3174 74.4539 21.4633 73.2866 21.5429C72.2785 21.596 71.098 21.6358 69.745 21.6623C68.3921 21.6888 66.9728 21.7021 65.4872 21.7021C64.0016 21.7021 62.5027 21.6888 60.9905 21.6623C59.5049 21.6358 58.1387 21.6092 56.8918 21.5827C55.7246 21.5562 54.7961 21.4368 54.1063 21.2246C53.4166 21.0123 52.886 20.694 52.5146 20.2695C52.1432 19.8185 51.8912 19.2614 51.7585 18.5982C51.6524 17.935 51.5994 17.1259 51.5994 16.1708ZM57.6081 12.5497C57.5816 13.0537 57.5683 13.4649 57.5683 13.7832C57.5949 14.0751 57.6214 14.473 57.6479 14.977C57.701 15.5341 57.8203 15.9055 58.0061 16.0912C58.2183 16.2769 58.6295 16.3831 59.2396 16.4096C60.009 16.4361 60.8977 16.4626 61.9058 16.4892C62.9404 16.4892 63.9883 16.4892 65.0494 16.4892C66.1371 16.4892 67.1983 16.4892 68.2329 16.4892C69.2675 16.4626 70.1695 16.4361 70.9388 16.4096C71.549 16.3831 71.9469 16.2769 72.1326 16.0912C72.3448 15.9055 72.4775 15.5341 72.5305 14.977C72.5571 14.473 72.5703 14.0751 72.5703 13.7832C72.5969 13.4649 72.5969 13.0537 72.5703 12.5497C72.5438 12.2578 72.4775 12.0589 72.3714 11.9528C72.2918 11.8466 72.0796 11.7803 71.7347 11.7538C71.0449 11.7007 70.0899 11.6742 68.8696 11.6742C67.6758 11.6477 66.4157 11.6344 65.0892 11.6344C63.7893 11.6344 62.5292 11.6477 61.3089 11.6742C60.0886 11.7007 59.1335 11.7273 58.4438 11.7538C58.0989 11.7803 57.8734 11.8466 57.7673 11.9528C57.6877 12.0589 57.6346 12.2578 57.6081 12.5497Z" fill="#1B92FF"/>
</svg>
