<svg width="229" height="96" viewBox="0 0 229 96" fill="none" xmlns="http://www.w3.org/2000/svg">
<circle cx="134.868" cy="83.0193" r="9.5232" fill="#A2CAEE"/>
<path d="M53.46 80.2559H140.398C140.398 82.9704 138.197 85.1711 135.482 85.1711H58.3752C55.6606 85.1711 53.46 82.9704 53.46 80.2559Z" fill="#A2CAEE"/>
<path d="M17.5176 35.096C17.5176 29.6669 21.9188 25.2656 27.348 25.2656H47.9304V80.2544H27.348C21.9188 80.2544 17.5176 75.8532 17.5176 70.424V35.096Z" fill="#E9F4FF"/>
<path d="M7.37988 51.6859C7.37988 46.2567 11.7811 41.8555 17.2103 41.8555H32.8775V75.3403C32.8775 78.0549 30.6769 80.2555 27.9623 80.2555H17.2103C11.7811 80.2555 7.37988 75.8542 7.37988 70.4251V51.6859Z" fill="#E9F4FF"/>
<path d="M47.9307 9.59907C47.9307 6.20583 50.6814 3.45508 54.0747 3.45508H145.006C148.399 3.45508 151.15 6.20584 151.15 9.59908V75.3399C151.15 78.0545 148.949 80.2551 146.235 80.2551H47.9307V9.59907Z" fill="#B1D7F9"/>
<circle cx="29.4983" cy="83.0193" r="9.5232" fill="#A2CAEE"/>
<circle cx="78.036" cy="40.5023" r="9.8304" fill="#F5FAFF"/>
<mask id="mask0_1_1738" style="mask-type:alpha" maskUnits="userSpaceOnUse" x="78" y="30" width="10" height="24">
<rect width="9.8304" height="22.3642" transform="matrix(1 0 0 -1 78.0361 53.0352)" fill="#D9D9D9"/>
</mask>
<g mask="url(#mask0_1_1738)">
<path d="M68.2059 40.5023C68.2059 48.6124 78.0363 53.036 78.0363 53.036C78.0363 53.036 87.8667 48.6124 87.8667 40.5023C87.8667 35.0731 83.4655 30.6719 78.0363 30.6719C72.6071 30.6719 68.2059 35.0731 68.2059 40.5023Z" fill="#F5FAFF"/>
</g>
<rect x="80.5137" y="36.7715" width="2.75251" height="7.47111" rx="1.37626" fill="#B1D7F9"/>
<rect x="75.7334" y="36.7852" width="2.75251" height="7.47111" rx="1.37626" fill="#B1D7F9"/>
<rect opacity="0.8" x="77.1143" y="36.209" width="2.75251" height="9.46838" rx="1.37626" transform="rotate(45.4799 77.1143 36.209)" fill="#B1D7F9"/>
<rect opacity="0.8" x="83.8052" y="39.1113" width="2.71469" height="5.34766" rx="1.35735" transform="rotate(45.4799 83.8052 39.1113)" fill="#B1D7F9"/>
<rect opacity="0.8" x="81.8945" y="36.1953" width="2.78423" height="9.43417" rx="1.39212" transform="rotate(45.4799 81.8945 36.1953)" fill="#B1D7F9"/>
<path d="M113.036 42.1785C112.655 42.1654 112.341 42.126 112.091 42.0605C111.855 41.9818 111.665 41.8769 111.521 41.7457C111.377 41.6014 111.272 41.4244 111.206 41.2145C111.154 40.9916 111.121 40.7293 111.108 40.4276C111.108 40.3096 111.101 40.1194 111.088 39.8571C111.088 39.5817 111.088 39.28 111.088 38.9522C111.088 38.6112 111.081 38.2571 111.068 37.8898C111.068 37.5226 111.068 37.1685 111.068 36.8275C111.068 36.4865 111.068 36.1849 111.068 35.9226C111.068 35.6603 111.068 35.4635 111.068 35.3324C111.068 34.8471 111.2 34.4864 111.462 34.2504C111.737 34.0012 112.072 33.8766 112.465 33.8766C112.885 33.8766 113.226 34.0012 113.488 34.2504C113.764 34.4864 113.901 34.8537 113.901 35.352V36.1193C114.15 36.1193 114.446 36.1193 114.787 36.1193C115.128 36.1193 115.475 36.1193 115.829 36.1193C116.183 36.1193 116.531 36.1193 116.872 36.1193C117.213 36.1193 117.508 36.1193 117.757 36.1193V35.234C117.757 34.775 117.895 34.434 118.17 34.211C118.446 33.9881 118.787 33.8766 119.193 33.8766C119.587 33.8766 119.921 33.9815 120.197 34.1914C120.472 34.4012 120.61 34.7225 120.61 35.1553C120.61 35.3258 120.61 35.6603 120.61 36.1586C120.623 36.6439 120.629 37.1685 120.629 37.7325C120.629 38.2964 120.629 38.8341 120.629 39.3456C120.629 39.844 120.623 40.1915 120.61 40.3883C120.597 40.6899 120.557 40.9522 120.492 41.1752C120.426 41.385 120.315 41.5621 120.157 41.7064C120 41.8375 119.783 41.9424 119.508 42.0211C119.233 42.0998 118.872 42.1457 118.426 42.1588C118.085 42.1851 117.685 42.2047 117.226 42.2178C116.78 42.2178 116.314 42.2244 115.829 42.2375C115.357 42.2375 114.878 42.2375 114.393 42.2375C113.908 42.2244 113.455 42.2047 113.036 42.1785ZM113.901 39.4637C113.914 39.6735 113.954 39.7981 114.019 39.8374C114.085 39.8768 114.229 39.903 114.452 39.9161C114.872 39.9292 115.318 39.9358 115.79 39.9358C116.262 39.9358 116.688 39.9227 117.069 39.8965C117.213 39.8833 117.331 39.8768 117.423 39.8768C117.514 39.8637 117.587 39.8506 117.639 39.8374C117.692 39.8112 117.724 39.7719 117.737 39.7194C117.764 39.6538 117.777 39.5686 117.777 39.4637V38.2636C117.528 38.2636 117.232 38.2636 116.892 38.2636C116.551 38.2505 116.196 38.2439 115.829 38.2439C115.475 38.2439 115.128 38.2505 114.787 38.2636C114.446 38.2636 114.15 38.2636 113.901 38.2636V39.4637ZM116.4 46.5262C116.4 45.936 116.505 45.4048 116.714 44.9327C116.937 44.4605 117.239 44.0605 117.619 43.7327C118.013 43.4048 118.485 43.1556 119.036 42.9851C119.587 42.8146 120.197 42.7293 120.865 42.7293C121.482 42.7293 122.046 42.8146 122.557 42.9851C123.082 43.1556 123.528 43.4048 123.895 43.7327C124.275 44.0605 124.57 44.4605 124.78 44.9327C124.99 45.3917 125.095 45.9229 125.095 46.5262C125.095 47.0639 124.997 47.5623 124.8 48.0213C124.616 48.4803 124.341 48.8804 123.974 49.2214C123.606 49.5624 123.161 49.8312 122.636 50.0279C122.124 50.2247 121.534 50.323 120.865 50.323C120.197 50.323 119.587 50.2247 119.036 50.0279C118.498 49.8312 118.033 49.5624 117.639 49.2214C117.246 48.8804 116.937 48.4803 116.714 48.0213C116.505 47.5623 116.4 47.0639 116.4 46.5262ZM119.311 46.4868C119.311 46.8672 119.449 47.1819 119.724 47.4311C120 47.6672 120.36 47.7852 120.806 47.7852C121.265 47.7852 121.633 47.6672 121.908 47.4311C122.197 47.1819 122.341 46.8672 122.341 46.4868C122.341 46.0672 122.203 45.7458 121.928 45.5229C121.652 45.2868 121.279 45.1688 120.806 45.1688C120.36 45.1688 120 45.2802 119.724 45.5032C119.449 45.713 119.311 46.0409 119.311 46.4868ZM123.344 35.057C123.318 34.5061 123.423 34.093 123.659 33.8176C123.908 33.529 124.275 33.3848 124.761 33.3848C125.207 33.3848 125.567 33.5225 125.843 33.7979C126.131 34.0602 126.289 34.5061 126.315 35.1356C126.341 35.8045 126.354 36.4013 126.354 36.9259C126.367 37.4374 126.374 37.9226 126.374 38.3817C126.374 38.8276 126.367 39.2538 126.354 39.6604C126.354 40.067 126.348 40.4866 126.334 40.9194C126.308 41.549 126.171 42.0473 125.921 42.4146C125.672 42.7818 125.298 42.9654 124.8 42.9654C124.302 42.9654 123.934 42.8211 123.698 42.5326C123.475 42.231 123.384 41.7457 123.423 41.0768C123.436 40.7358 123.443 40.3227 123.443 39.8374C123.456 39.3522 123.456 38.8407 123.443 38.303C123.443 37.7521 123.429 37.1947 123.403 36.6308C123.39 36.0668 123.37 35.5422 123.344 35.057Z" fill="#F5FAFF"/>
<path d="M102.04 50.2053C101.659 50.2053 101.299 50.0741 100.958 49.8118C100.63 49.5495 100.453 49.1626 100.427 48.6511C100.427 48.4937 100.42 48.3036 100.407 48.0806C100.407 47.8576 100.4 47.615 100.387 47.3527C100.387 47.0904 100.387 46.815 100.387 46.5265C100.387 46.2379 100.387 45.9494 100.387 45.6609C99.4298 45.6477 98.4986 45.6281 97.5937 45.6018C96.7019 45.5756 95.8953 45.5297 95.1739 45.4641C94.5707 45.4117 94.151 45.2674 93.9149 45.0313C93.6788 44.7821 93.5739 44.4674 93.6001 44.087C93.6264 43.7067 93.751 43.3985 93.9739 43.1624C94.21 42.9132 94.6428 42.8017 95.2723 42.828C96.3346 42.8673 97.4363 42.9001 98.5773 42.9263C99.7315 42.9394 100.879 42.946 102.02 42.946C103.174 42.946 104.315 42.9394 105.443 42.9263C106.571 42.9001 107.646 42.8608 108.669 42.8083C109.338 42.7821 109.804 42.9067 110.066 43.1821C110.342 43.4444 110.479 43.7788 110.479 44.1854C110.479 44.5657 110.374 44.8608 110.165 45.0707C109.968 45.2674 109.62 45.392 109.122 45.4445C108.545 45.51 107.778 45.5625 106.82 45.6018C105.876 45.6281 104.84 45.6477 103.712 45.6609C103.699 46.0805 103.686 46.5133 103.673 46.9593C103.673 47.3921 103.673 47.7855 103.673 48.1396C103.673 48.4937 103.62 48.7954 103.515 49.0446C103.423 49.3069 103.299 49.5233 103.141 49.6938C102.997 49.8643 102.827 49.9889 102.63 50.0676C102.433 50.1594 102.236 50.2053 102.04 50.2053ZM95.351 38.9721C95.351 38.4737 95.351 38.0606 95.351 37.7327C95.351 37.4048 95.351 37.1229 95.351 36.8868C95.3641 36.6376 95.3707 36.4146 95.3707 36.2179C95.3838 36.0212 95.4035 35.7982 95.4297 35.549C95.469 35.1162 95.6068 34.7949 95.8428 34.5851C96.0789 34.3621 96.4658 34.2441 97.0035 34.231C97.8298 34.2178 98.6757 34.2047 99.5413 34.1916C100.42 34.1785 101.292 34.1719 102.158 34.1719C103.023 34.1588 103.869 34.1588 104.696 34.1719C105.522 34.1719 106.302 34.1916 107.037 34.231C107.574 34.2572 107.961 34.3752 108.197 34.5851C108.433 34.7949 108.571 35.1162 108.61 35.549C108.624 35.7982 108.637 36.0212 108.65 36.2179C108.663 36.4146 108.669 36.6376 108.669 36.8868C108.683 37.1229 108.689 37.4048 108.689 37.7327C108.689 38.0606 108.689 38.4737 108.689 38.9721C108.689 39.4443 108.656 39.8443 108.591 40.1721C108.538 40.4869 108.42 40.7492 108.237 40.9591C108.053 41.1558 107.791 41.3066 107.45 41.4115C107.109 41.5165 106.65 41.5886 106.073 41.6279C105.574 41.6542 104.991 41.6738 104.322 41.6869C103.653 41.7001 102.951 41.7066 102.217 41.7066C101.482 41.7066 100.741 41.7001 99.9938 41.6869C99.2593 41.6738 98.5839 41.6607 97.9675 41.6476C97.3904 41.6345 96.9314 41.5755 96.5904 41.4705C96.2494 41.3656 95.9871 41.2082 95.8035 40.9984C95.6199 40.7754 95.4953 40.5 95.4297 40.1721C95.3772 39.8443 95.351 39.4443 95.351 38.9721ZM98.3216 37.1819C98.3085 37.4311 98.3019 37.6344 98.3019 37.7917C98.315 37.936 98.3282 38.1327 98.3413 38.3819C98.3675 38.6573 98.4265 38.841 98.5183 38.9328C98.6232 39.0246 98.8265 39.077 99.1282 39.0901C99.5085 39.1033 99.9479 39.1164 100.446 39.1295C100.958 39.1295 101.476 39.1295 102 39.1295C102.538 39.1295 103.063 39.1295 103.574 39.1295C104.086 39.1164 104.532 39.1033 104.912 39.0901C105.214 39.077 105.41 39.0246 105.502 38.9328C105.607 38.841 105.673 38.6573 105.699 38.3819C105.712 38.1327 105.719 37.936 105.719 37.7917C105.732 37.6344 105.732 37.4311 105.719 37.1819C105.705 37.0376 105.673 36.9393 105.62 36.8868C105.581 36.8343 105.476 36.8015 105.305 36.7884C104.964 36.7622 104.492 36.7491 103.889 36.7491C103.299 36.736 102.676 36.7294 102.02 36.7294C101.377 36.7294 100.754 36.736 100.151 36.7491C99.5479 36.7622 99.0757 36.7753 98.7347 36.7884C98.5642 36.8015 98.4527 36.8343 98.4003 36.8868C98.3609 36.9393 98.3347 37.0376 98.3216 37.1819Z" fill="#F5FAFF"/>
<path d="M20.5898 35.7107C20.5898 31.6388 23.8908 28.3379 27.9626 28.3379H42.401C43.7583 28.3379 44.8586 29.4382 44.8586 30.7955V42.7763C44.8586 44.1336 43.7583 45.2339 42.401 45.2339H23.0474C21.6901 45.2339 20.5898 44.1336 20.5898 42.7763V35.7107Z" fill="#B1D7F9"/>
<circle cx="7.38019" cy="61.2093" r="5.5296" fill="#B1D7F9"/>
<rect x="162.9" y="22.4004" width="48" height="3.2" rx="1.6" fill="#DEDEDE"/>
<rect x="162.9" y="35.1992" width="64" height="3.2" rx="1.6" fill="#DEDEDE"/>
<rect x="162.9" y="48" width="32" height="3.2" rx="1.6" fill="#DEDEDE"/>
</svg>
