<svg width="784" height="307" viewBox="0 0 784 307" fill="none" xmlns="http://www.w3.org/2000/svg">
<g filter="url(#filter0_d_1_1680)">
<g filter="url(#filter1_d_1_1680)">
<rect x="6" y="6" width="764" height="287" rx="32" fill="white" shape-rendering="crispEdges"/>
<path d="M68.1797 53.7148V63.3672H71.8438V65.9102H68.1797V78.3789H65.1445V53.7148H68.1797ZM48.6836 71.625C54.6992 68.6172 57.9531 64.4336 58.5547 58.8008H50.0234V56.2852H61.6445C61.6309 63.5449 58.623 69.9297 50.4062 73.9766L48.6836 71.625ZM93.7188 53.7148V68.3984H90.6836V62.3555H86.4727V59.8672H90.6836V53.7148H93.7188ZM72.9375 65.9375C76.916 64.5703 79.0078 61.248 79.0078 57.9805V57.7891H73.8672V55.3281H87.2109V57.7891H82.0977V57.9531C82.0977 60.9609 84.0938 63.9961 87.9219 65.2812L86.3906 67.6875C83.6426 66.7578 81.7012 64.8711 80.6074 62.5469C79.5273 65.1719 77.4629 67.3047 74.5234 68.3438L72.9375 65.9375ZM76.957 73.7305C76.9297 70.7637 80.1426 69.0273 85.3516 69.0273C90.5879 69.0273 93.7871 70.7637 93.8008 73.7305C93.7871 76.6973 90.5879 78.4199 85.3516 78.4336C80.1426 78.4199 76.9297 76.6973 76.957 73.7305ZM79.9648 73.7305C79.9512 75.2617 81.9199 76.0957 85.3516 76.082C88.8105 76.0957 90.7656 75.2617 90.7656 73.7305C90.7656 72.1855 88.8105 71.3516 85.3516 71.3516C81.9199 71.3516 79.9512 72.1855 79.9648 73.7305ZM117.781 53.7148V78.4609H114.719V53.7148H117.781ZM98.0117 64.2422C97.998 58.9102 100.719 55.5195 104.465 55.5195C108.17 55.5195 110.904 58.9102 110.918 64.2422C110.904 69.6152 108.17 72.9922 104.465 72.9922C100.719 72.9922 97.998 69.6152 98.0117 64.2422ZM100.938 64.2422C100.938 68.043 102.373 70.2441 104.465 70.2578C106.543 70.2441 107.965 68.043 107.965 64.2422C107.965 60.4688 106.543 58.2539 104.465 58.2539C102.373 58.2539 100.938 60.4688 100.938 64.2422ZM130.25 59.6484C130.223 64.0645 132.438 68.5215 136.266 70.3672L134.406 72.8008C131.727 71.4473 129.799 68.8359 128.746 65.6914C127.666 69.0547 125.643 71.8438 122.812 73.2656L120.953 70.832C124.932 68.9453 127.201 64.2148 127.215 59.6484V55.7109H130.25V59.6484ZM137.742 78.4336V53.7148H140.777V63.3945H144.578V65.9922H140.777V78.4336H137.742Z" fill="black"/>
<path d="M53.9375 105.852C53.9375 107.492 54.8262 109.621 56.6328 110.832C58.3906 109.66 59.2891 107.57 59.2891 105.852V103.625H60.832V105.852C60.8125 107.98 62.082 110.188 64.3672 111.145L63.5078 112.316C61.8086 111.555 60.6367 110.129 60.0508 108.449C59.4844 110.139 58.3613 111.701 56.6133 112.512C54.8457 111.691 53.7031 110.061 53.1562 108.352C52.541 110.021 51.3594 111.535 49.6992 112.316L48.8789 111.145C51.0859 110.129 52.3945 107.785 52.4141 105.852V103.625H53.9375V105.852ZM64.582 115.969V117.238H48.7031V115.969H64.582ZM80.3242 102.219V119.621H78.8008V102.219H80.3242ZM75.0508 103.84V110.012H68.5664V114.113C71.4473 114.113 74.0156 113.986 77.1211 113.488L77.2773 114.777C74.0742 115.285 71.4375 115.402 68.4492 115.402H67.0039V108.762H73.5078V105.109H66.9648V103.84H75.0508ZM99.1523 111.047V112.297H91.9453V114.113H97.1016V119.348H85.4219V114.113H90.4414V112.297H83.2539V111.047H99.1523ZM86.9258 115.344V118.098H95.5977V115.344H86.9258ZM97.1016 102.648V106.711H86.8477V108.449H97.4727V109.68H85.3242V105.578H95.5586V103.84H85.2656V102.648H97.1016ZM103.41 116.691L101.887 122.004H100.441L101.516 116.691H103.41ZM111.32 118L111.301 116.711L116.125 111.633C117.805 109.855 118.605 108.898 118.605 107.59C118.605 106.145 117.375 105.188 115.793 105.188C114.113 105.188 113.039 106.262 113.039 107.844H111.379C111.359 105.344 113.293 103.664 115.852 103.664C118.41 103.664 120.246 105.383 120.246 107.59C120.246 109.172 119.504 110.402 117.004 112.98L113.762 116.32V116.438H120.5V118H111.32ZM127.688 118.195C124.543 118.195 122.746 115.559 122.746 110.93C122.746 106.34 124.582 103.664 127.688 103.664C130.793 103.664 132.629 106.34 132.629 110.93C132.629 115.559 130.812 118.195 127.688 118.195ZM127.688 116.633C129.719 116.633 130.91 114.582 130.91 110.93C130.91 107.277 129.719 105.188 127.688 105.188C125.656 105.188 124.445 107.277 124.445 110.93C124.445 114.582 125.637 116.633 127.688 116.633ZM144.094 103.547V104.816H142.316V110.363C143.127 110.314 143.908 110.246 144.66 110.148L144.738 111.32C141.359 111.848 137.395 111.887 134.582 111.887L134.387 110.598C135.08 110.598 135.832 110.598 136.633 110.578V104.816H134.875V103.547H144.094ZM148.742 102.219V112.941H147.199V109.719H144.27V108.449H147.199V106.613H144.27V105.344H147.199V102.219H148.742ZM142.98 113.312C146.613 113.312 148.801 114.445 148.801 116.418C148.801 118.41 146.613 119.543 142.98 119.543C139.348 119.543 137.16 118.41 137.16 116.418C137.16 114.445 139.348 113.312 142.98 113.312ZM142.98 114.504C140.305 114.504 138.664 115.227 138.684 116.418C138.664 117.629 140.305 118.332 142.98 118.332C145.656 118.332 147.277 117.629 147.277 116.418C147.277 115.227 145.656 114.504 142.98 114.504ZM138.117 110.559C139.006 110.539 139.924 110.51 140.832 110.461V104.816H138.117V110.559ZM166.477 102.219V119.582H165.012V110.48H162.453V118.684H161.047V102.609H162.453V109.211H165.012V102.219H166.477ZM158.781 104.348V105.617H153.801V113.977C156.193 113.967 157.854 113.879 159.777 113.488L159.914 114.777C157.824 115.207 156.047 115.285 153.391 115.285H152.277V104.348H158.781ZM182.98 103.938V115.227H174.953V103.938H182.98ZM176.457 105.168V113.977H181.477V105.168H176.457ZM188.254 102.219V119.621H186.711V102.219H188.254ZM199.992 103.801V111.789H191.965V103.801H199.992ZM193.469 105.051V110.559H198.508V105.051H193.469ZM204.797 102.219V107.512H207.414V108.801H204.797V114.953H203.273V102.219H204.797ZM205.598 117.922V119.211H193.938V113.742H195.441V117.922H205.598Z" fill="#999999"/>
</g>
<mask id="mask0_1_1680" style="mask-type:alpha" maskUnits="userSpaceOnUse" x="6" y="6" width="764" height="287">
<rect x="6" y="6" width="764" height="287" rx="32" fill="white"/>
</mask>
<g mask="url(#mask0_1_1680)">
<circle cx="750" cy="302" r="31" fill="#242945"/>
<path d="M368 146C368 128.327 382.327 114 400 114H467V277C467 285.837 459.837 293 451 293H400C382.327 293 368 278.673 368 261V146Z" fill="#E9F4FF"/>
<path d="M335 200C335 182.327 349.327 168 367 168H418V277C418 285.837 410.837 293 402 293H367C349.327 293 335 278.673 335 261V200Z" fill="#E9F4FF"/>
<path d="M467 63C467 51.9543 475.954 43 487 43H783C794.046 43 803 51.9543 803 63V277C803 285.837 795.837 293 787 293H483C474.163 293 467 285.837 467 277V63Z" fill="#1B92FF"/>
<circle cx="407" cy="302" r="31" fill="#242945"/>
<circle cx="565" cy="163.6" r="32" fill="#F5FAFF"/>
<mask id="mask1_1_1680" style="mask-type:alpha" maskUnits="userSpaceOnUse" x="565" y="131" width="32" height="74">
<rect width="32" height="72.8" transform="matrix(1 0 0 -1 565 204.4)" fill="#D9D9D9"/>
</mask>
<g mask="url(#mask1_1_1680)">
<path d="M533 163.6C533 190 565 204.4 565 204.4C565 204.4 597 190 597 163.6C597 145.926 582.673 131.6 565 131.6C547.327 131.6 533 145.926 533 163.6Z" fill="#F5FAFF"/>
</g>
<rect x="573.065" y="151.453" width="8.96" height="24.32" rx="4.48" fill="#4DA9FF"/>
<rect x="557.504" y="151.498" width="8.96" height="24.32" rx="4.48" fill="#4DA9FF"/>
<rect opacity="0.8" x="562" y="149.623" width="8.96" height="30.8215" rx="4.48" transform="rotate(45.4799 562 149.623)" fill="#4DA9FF"/>
<rect opacity="0.8" x="583.779" y="159.068" width="8.83689" height="17.4077" rx="4.41844" transform="rotate(45.4799 583.779 159.068)" fill="#4DA9FF"/>
<rect opacity="0.8" x="577.561" y="149.578" width="9.06325" height="30.7102" rx="4.53162" transform="rotate(45.4799 577.561 149.578)" fill="#4DA9FF"/>
<path d="M678.931 169.057C677.693 169.014 676.668 168.886 675.857 168.673C675.088 168.417 674.469 168.075 674 167.648C673.53 167.179 673.189 166.602 672.975 165.919C672.804 165.193 672.698 164.34 672.655 163.358C672.655 162.973 672.634 162.354 672.591 161.5C672.591 160.604 672.591 159.622 672.591 158.555C672.591 157.445 672.57 156.292 672.527 155.097C672.527 153.901 672.527 152.748 672.527 151.638C672.527 150.528 672.527 149.547 672.527 148.693C672.527 147.839 672.527 147.198 672.527 146.772C672.527 145.192 672.954 144.018 673.808 143.249C674.704 142.438 675.793 142.033 677.074 142.033C678.44 142.033 679.55 142.438 680.404 143.249C681.3 144.018 681.748 145.213 681.748 146.836V149.333C682.56 149.333 683.52 149.333 684.63 149.333C685.74 149.333 686.872 149.333 688.024 149.333C689.177 149.333 690.308 149.333 691.418 149.333C692.528 149.333 693.489 149.333 694.3 149.333V146.451C694.3 144.957 694.748 143.847 695.645 143.121C696.541 142.396 697.651 142.033 698.975 142.033C700.256 142.033 701.344 142.374 702.241 143.057C703.137 143.74 703.586 144.786 703.586 146.195C703.586 146.75 703.586 147.839 703.586 149.461C703.628 151.041 703.65 152.748 703.65 154.584C703.65 156.42 703.65 158.17 703.65 159.835C703.65 161.458 703.628 162.589 703.586 163.23C703.543 164.211 703.415 165.065 703.202 165.791C702.988 166.474 702.625 167.051 702.113 167.52C701.601 167.947 700.896 168.289 700 168.545C699.103 168.801 697.929 168.95 696.477 168.993C695.367 169.078 694.065 169.142 692.571 169.185C691.12 169.185 689.604 169.207 688.024 169.249C686.487 169.249 684.929 169.249 683.349 169.249C681.77 169.207 680.297 169.142 678.931 169.057ZM681.748 160.22C681.791 160.903 681.919 161.308 682.133 161.436C682.346 161.565 682.816 161.65 683.542 161.693C684.908 161.735 686.359 161.757 687.896 161.757C689.433 161.757 690.821 161.714 692.059 161.629C692.528 161.586 692.913 161.565 693.211 161.565C693.51 161.522 693.745 161.479 693.916 161.436C694.087 161.351 694.193 161.223 694.236 161.052C694.321 160.839 694.364 160.561 694.364 160.22V156.313C693.553 156.313 692.592 156.313 691.482 156.313C690.372 156.271 689.22 156.249 688.024 156.249C686.872 156.249 685.74 156.271 684.63 156.313C683.52 156.313 682.56 156.313 681.748 156.313V160.22ZM689.881 183.21C689.881 181.289 690.223 179.559 690.906 178.023C691.632 176.486 692.614 175.183 693.852 174.116C695.133 173.049 696.67 172.238 698.463 171.683C700.256 171.128 702.241 170.85 704.418 170.85C706.425 170.85 708.261 171.128 709.926 171.683C711.633 172.238 713.085 173.049 714.28 174.116C715.518 175.183 716.479 176.486 717.162 178.023C717.845 179.517 718.187 181.246 718.187 183.21C718.187 184.96 717.866 186.582 717.226 188.077C716.628 189.571 715.732 190.873 714.536 191.983C713.341 193.093 711.889 193.968 710.182 194.609C708.517 195.249 706.596 195.569 704.418 195.569C702.241 195.569 700.256 195.249 698.463 194.609C696.712 193.968 695.197 193.093 693.916 191.983C692.635 190.873 691.632 189.571 690.906 188.077C690.223 186.582 689.881 184.96 689.881 183.21ZM699.359 183.082C699.359 184.32 699.807 185.344 700.704 186.155C701.601 186.924 702.775 187.308 704.226 187.308C705.72 187.308 706.916 186.924 707.812 186.155C708.752 185.344 709.221 184.32 709.221 183.082C709.221 181.715 708.773 180.669 707.876 179.944C706.98 179.175 705.763 178.791 704.226 178.791C702.775 178.791 701.601 179.154 700.704 179.88C699.807 180.563 699.359 181.63 699.359 183.082ZM712.487 145.875C712.402 144.082 712.743 142.737 713.512 141.841C714.323 140.901 715.518 140.432 717.098 140.432C718.55 140.432 719.724 140.88 720.62 141.776C721.559 142.63 722.072 144.082 722.157 146.131C722.242 148.308 722.285 150.251 722.285 151.959C722.328 153.624 722.349 155.203 722.349 156.698C722.349 158.149 722.328 159.537 722.285 160.86C722.285 162.184 722.264 163.55 722.221 164.959C722.136 167.008 721.687 168.63 720.876 169.826C720.065 171.021 718.848 171.619 717.226 171.619C715.604 171.619 714.408 171.149 713.64 170.21C712.914 169.228 712.615 167.648 712.743 165.471C712.786 164.361 712.807 163.016 712.807 161.436C712.85 159.857 712.85 158.192 712.807 156.441C712.807 154.648 712.765 152.834 712.679 150.998C712.637 149.162 712.573 147.455 712.487 145.875Z" fill="#F5FAFF"/>
<path d="M643.137 195.185C641.899 195.185 640.725 194.758 639.615 193.904C638.547 193.05 637.971 191.791 637.886 190.126C637.886 189.613 637.864 188.994 637.822 188.269C637.822 187.543 637.8 186.753 637.758 185.899C637.758 185.045 637.758 184.149 637.758 183.209C637.758 182.27 637.758 181.331 637.758 180.392C634.641 180.349 631.61 180.285 628.664 180.2C625.761 180.114 623.135 179.965 620.787 179.751C618.823 179.581 617.457 179.111 616.689 178.342C615.92 177.531 615.579 176.507 615.664 175.269C615.75 174.031 616.155 173.027 616.881 172.259C617.649 171.448 619.058 171.085 621.107 171.17C624.566 171.298 628.152 171.405 631.866 171.49C635.623 171.533 639.359 171.554 643.073 171.554C646.83 171.554 650.544 171.533 654.216 171.49C657.887 171.405 661.388 171.277 664.718 171.106C666.895 171.021 668.411 171.426 669.265 172.323C670.161 173.177 670.61 174.265 670.61 175.589C670.61 176.827 670.268 177.787 669.585 178.471C668.945 179.111 667.813 179.517 666.191 179.687C664.312 179.901 661.815 180.072 658.698 180.2C655.625 180.285 652.252 180.349 648.58 180.392C648.538 181.758 648.495 183.167 648.452 184.618C648.452 186.027 648.452 187.308 648.452 188.461C648.452 189.613 648.281 190.595 647.94 191.406C647.641 192.26 647.235 192.965 646.723 193.52C646.253 194.075 645.698 194.48 645.058 194.736C644.418 195.035 643.777 195.185 643.137 195.185ZM621.364 158.618C621.364 156.996 621.364 155.651 621.364 154.584C621.364 153.517 621.364 152.599 621.364 151.83C621.406 151.019 621.428 150.293 621.428 149.653C621.47 149.013 621.534 148.287 621.62 147.476C621.748 146.067 622.196 145.021 622.965 144.338C623.733 143.612 624.993 143.228 626.743 143.185C629.433 143.142 632.186 143.1 635.004 143.057C637.864 143.014 640.703 142.993 643.521 142.993C646.339 142.95 649.093 142.95 651.782 142.993C654.472 142.993 657.012 143.057 659.403 143.185C661.153 143.27 662.413 143.655 663.181 144.338C663.95 145.021 664.398 146.067 664.526 147.476C664.569 148.287 664.611 149.013 664.654 149.653C664.697 150.293 664.718 151.019 664.718 151.83C664.761 152.599 664.782 153.517 664.782 154.584C664.782 155.651 664.782 156.996 664.782 158.618C664.782 160.155 664.675 161.458 664.462 162.525C664.291 163.549 663.907 164.403 663.309 165.086C662.711 165.727 661.858 166.218 660.748 166.559C659.638 166.901 658.143 167.136 656.265 167.264C654.643 167.349 652.743 167.413 650.565 167.456C648.388 167.499 646.104 167.52 643.713 167.52C641.322 167.52 638.91 167.499 636.477 167.456C634.086 167.413 631.887 167.37 629.881 167.328C628.002 167.285 626.508 167.093 625.398 166.751C624.288 166.41 623.434 165.898 622.837 165.214C622.239 164.489 621.833 163.592 621.62 162.525C621.449 161.458 621.364 160.155 621.364 158.618ZM631.034 152.791C630.991 153.602 630.969 154.264 630.969 154.776C631.012 155.246 631.055 155.886 631.098 156.697C631.183 157.594 631.375 158.192 631.674 158.49C632.015 158.789 632.677 158.96 633.659 159.003C634.897 159.045 636.327 159.088 637.95 159.131C639.615 159.131 641.301 159.131 643.009 159.131C644.759 159.131 646.467 159.131 648.132 159.131C649.797 159.088 651.249 159.045 652.487 159.003C653.469 158.96 654.109 158.789 654.408 158.49C654.749 158.192 654.963 157.594 655.048 156.697C655.091 155.886 655.112 155.246 655.112 154.776C655.155 154.264 655.155 153.602 655.112 152.791C655.07 152.321 654.963 152.001 654.792 151.83C654.664 151.66 654.322 151.553 653.767 151.51C652.657 151.425 651.12 151.382 649.157 151.382C647.235 151.339 645.208 151.318 643.073 151.318C640.981 151.318 638.953 151.339 636.989 151.382C635.025 151.425 633.488 151.467 632.378 151.51C631.823 151.553 631.46 151.66 631.29 151.83C631.162 152.001 631.076 152.321 631.034 152.791Z" fill="#F5FAFF"/>
<path d="M378 148C378 134.745 388.745 124 402 124H449C453.418 124 457 127.582 457 132V171C457 175.418 453.418 179 449 179H386C381.582 179 378 175.418 378 171V148Z" fill="#242945"/>
<circle cx="335" cy="231" r="18" fill="#1B92FF"/>
</g>
</g>
<defs>
<filter id="filter0_d_1_1680" x="0" y="0" width="784" height="307" filterUnits="userSpaceOnUse" color-interpolation-filters="sRGB">
<feFlood flood-opacity="0" result="BackgroundImageFix"/>
<feColorMatrix in="SourceAlpha" type="matrix" values="0 0 0 0 0 0 0 0 0 0 0 0 0 0 0 0 0 0 127 0" result="hardAlpha"/>
<feOffset dx="4" dy="4"/>
<feGaussianBlur stdDeviation="5"/>
<feComposite in2="hardAlpha" operator="out"/>
<feColorMatrix type="matrix" values="0 0 0 0 0.881852 0 0 0 0 0.881852 0 0 0 0 0.881852 0 0 0 0.1 0"/>
<feBlend mode="normal" in2="BackgroundImageFix" result="effect1_dropShadow_1_1680"/>
<feBlend mode="normal" in="SourceGraphic" in2="effect1_dropShadow_1_1680" result="shape"/>
</filter>
<filter id="filter1_d_1_1680" x="0" y="0" width="784" height="307" filterUnits="userSpaceOnUse" color-interpolation-filters="sRGB">
<feFlood flood-opacity="0" result="BackgroundImageFix"/>
<feColorMatrix in="SourceAlpha" type="matrix" values="0 0 0 0 0 0 0 0 0 0 0 0 0 0 0 0 0 0 127 0" result="hardAlpha"/>
<feOffset dx="4" dy="4"/>
<feGaussianBlur stdDeviation="5"/>
<feComposite in2="hardAlpha" operator="out"/>
<feColorMatrix type="matrix" values="0 0 0 0 0.881852 0 0 0 0 0.881852 0 0 0 0 0.881852 0 0 0 0.1 0"/>
<feBlend mode="normal" in2="BackgroundImageFix" result="effect1_dropShadow_1_1680"/>
<feBlend mode="normal" in="SourceGraphic" in2="effect1_dropShadow_1_1680" result="shape"/>
</filter>
</defs>
</svg>
