<svg width="54" height="54" viewBox="0 0 54 54" fill="none" xmlns="http://www.w3.org/2000/svg">
<circle cx="27" cy="27" r="27" fill="#FAE300"/>
<g clip-path="url(#clip0_1_1297)">
<path d="M23.7896 26.1993H25.0567L24.4231 24.4258L23.7896 26.1993Z" fill="#331D1E"/>
<path d="M26.75 16.875C20.6746 16.875 15.75 20.7002 15.75 25.4193C15.75 28.4703 17.8093 31.1503 20.9062 32.6591C20.7381 33.2312 19.8232 36.3415 19.7872 36.5864C19.7872 36.5864 19.765 36.7698 19.8856 36.8396C19.9259 36.8596 19.97 36.8713 20.0151 36.874C20.0602 36.8767 20.1054 36.8703 20.1479 36.8552C20.4948 36.8073 24.1671 34.27 24.8017 33.8334C25.4473 33.9217 26.0983 33.9653 26.75 33.9637C32.8254 33.9637 37.75 30.1385 37.75 25.4193C37.75 20.7002 32.8254 16.875 26.75 16.875ZM21.3061 24.0929C21.2923 25.3016 21.3166 26.5728 21.2965 27.7628C21.2902 28.1431 21.0681 28.2567 20.7677 28.365C20.7338 28.3769 20.6972 28.3794 20.6619 28.3723C20.3182 28.3057 20.0442 28.1848 20.0358 27.7638C20.0114 26.5749 20.0432 25.3016 20.0262 24.0929C19.7354 24.0814 19.3208 24.1043 19.0511 24.0929C18.6766 24.0689 18.4164 23.8345 18.4323 23.4854C18.4482 23.1363 18.6375 22.8852 19.0574 22.879C20.0495 22.8644 21.2786 22.8644 22.2707 22.879C22.6938 22.8852 22.882 23.1374 22.8947 23.4854C22.9074 23.8334 22.6514 24.0689 22.2781 24.0929C22.0115 24.1043 21.598 24.0814 21.3061 24.0929ZM26.6368 28.3077C26.5099 28.3646 26.3722 28.3941 26.2328 28.3942C25.9684 28.3942 25.7663 28.29 25.7039 28.1181L25.3866 27.3074H23.4553L23.138 28.1181C23.0766 28.2879 22.8746 28.3942 22.6091 28.3942C22.4701 28.3942 22.3326 28.3647 22.2062 28.3077C22.0306 28.2285 21.8624 28.0097 22.0549 27.42L23.5769 23.4833C23.6408 23.3099 23.7551 23.1589 23.9056 23.0492C24.0561 22.9395 24.2361 22.8759 24.4231 22.8665C24.6099 22.8769 24.7896 22.941 24.9399 23.0508C25.0903 23.1606 25.2047 23.3113 25.2692 23.4844L26.786 27.4189C26.9795 28.0097 26.8113 28.2327 26.6368 28.3077ZM29.8438 28.3077H27.8077C27.65 28.3108 27.4975 28.2523 27.3835 28.1449C27.2696 28.0375 27.2034 27.89 27.1995 27.7346V23.4917C27.2063 23.3268 27.2775 23.171 27.3982 23.0568C27.519 22.9425 27.6799 22.8787 27.8474 22.8787C28.0148 22.8787 28.1757 22.9425 28.2965 23.0568C28.4172 23.171 28.4884 23.3268 28.4952 23.4917V27.1647H29.8438C29.9231 27.16 30.0026 27.1713 30.0773 27.198C30.1521 27.2246 30.2205 27.2661 30.2783 27.3197C30.3362 27.3734 30.3823 27.4382 30.4139 27.5101C30.4454 27.582 30.4616 27.6595 30.4616 27.7378C30.4616 27.8161 30.4454 27.8936 30.4139 27.9654C30.3823 28.0373 30.3362 28.1021 30.2783 28.1558C30.2205 28.2095 30.1521 28.2509 30.0773 28.2776C30.0026 28.3043 29.9231 28.3156 29.8438 28.3109V28.3077ZM34.8149 27.8368C34.7984 27.9601 34.7449 28.0758 34.6613 28.169C34.5777 28.2622 34.4678 28.3287 34.3456 28.3601C34.2234 28.3914 34.0944 28.3861 33.9753 28.3448C33.8562 28.3036 33.7523 28.2283 33.6768 28.1285L32.1887 26.1873L31.9687 26.404V27.768C31.9687 27.9338 31.9018 28.0928 31.7828 28.2101C31.6638 28.3273 31.5023 28.3932 31.334 28.3932C31.1657 28.3932 31.0043 28.3273 30.8853 28.2101C30.7663 28.0928 30.6994 27.9338 30.6994 27.768V23.4958C30.6994 23.33 30.7663 23.171 30.8853 23.0537C31.0043 22.9365 31.1657 22.8706 31.334 22.8706C31.5023 22.8706 31.6638 22.9365 31.7828 23.0537C31.9018 23.171 31.9687 23.33 31.9687 23.4958V24.8358L33.7392 23.0915C33.7856 23.0464 33.8406 23.0108 33.9011 22.9868C33.9615 22.9628 34.0263 22.951 34.0914 22.9519C34.2499 22.956 34.4013 23.0176 34.5164 23.1249C34.6316 23.2322 34.7025 23.3777 34.7155 23.5333C34.7212 23.6028 34.7118 23.6726 34.6879 23.7382C34.664 23.8038 34.6262 23.8636 34.5769 23.9137L33.1279 25.3381L34.6901 27.3772C34.7912 27.5095 34.835 27.6759 34.8117 27.8399L34.8149 27.8368Z" fill="#331D1E"/>
</g>
<defs>
<clipPath id="clip0_1_1297">
<rect width="22" height="20" fill="white" transform="translate(15.75 16.875)"/>
</clipPath>
</defs>
</svg>
