<svg width="351" height="140" viewBox="0 0 351 140" fill="none" xmlns="http://www.w3.org/2000/svg">
<circle cx="207.84" cy="124.72" r="14.88" fill="#A2CAEE"/>
<path d="M80.6396 120.4H216.48C216.48 124.642 213.041 128.08 208.8 128.08H88.3196C84.0781 128.08 80.6396 124.642 80.6396 120.4Z" fill="#A2CAEE"/>
<path d="M24.48 49.8405C24.48 41.3574 31.3569 34.4805 39.84 34.4805H72V120.4H39.84C31.3569 120.4 24.48 113.524 24.48 105.04V49.8405Z" fill="#E9F4FF"/>
<path d="M8.63965 75.7604C8.63965 67.2773 15.5166 60.4004 23.9996 60.4004H48.4796V112.72C48.4796 116.962 45.0412 120.4 40.7996 120.4H23.9997C15.5166 120.4 8.63965 113.523 8.63965 105.04V75.7604Z" fill="#E9F4FF"/>
<path d="M72 10.0004C72 4.69845 76.2981 0.400391 81.6 0.400391H223.68C228.982 0.400391 233.28 4.69846 233.28 10.0004V112.72C233.28 116.962 229.842 120.4 225.6 120.4H72V10.0004Z" fill="#B1D7F9"/>
<circle cx="43.1998" cy="124.72" r="14.88" fill="#A2CAEE"/>
<circle cx="119.04" cy="58.2897" r="15.36" fill="#F5FAFF"/>
<mask id="mask0_1_1724" style="mask-type:alpha" maskUnits="userSpaceOnUse" x="119" y="42" width="16" height="36">
<rect width="15.36" height="34.944" transform="matrix(1 0 0 -1 119.04 77.873)" fill="#D9D9D9"/>
</mask>
<g mask="url(#mask0_1_1724)">
<path d="M103.68 58.2897C103.68 70.9617 119.04 77.8737 119.04 77.8737C119.04 77.8737 134.4 70.9617 134.4 58.2897C134.4 49.8066 127.523 42.9297 119.04 42.9297C110.557 42.9297 103.68 49.8066 103.68 58.2897Z" fill="#F5FAFF"/>
</g>
<rect x="122.912" y="52.459" width="4.3008" height="11.6736" rx="2.1504" fill="#B1D7F9"/>
<rect x="115.442" y="52.4805" width="4.3008" height="11.6736" rx="2.1504" fill="#B1D7F9"/>
<rect opacity="0.8" x="117.6" y="51.5801" width="4.3008" height="14.7943" rx="2.1504" transform="rotate(45.4799 117.6 51.5801)" fill="#B1D7F9"/>
<rect opacity="0.8" x="128.054" y="56.1133" width="4.24171" height="8.35572" rx="2.12085" transform="rotate(45.4799 128.054 56.1133)" fill="#B1D7F9"/>
<rect opacity="0.8" x="125.069" y="51.5586" width="4.35036" height="14.7409" rx="2.17518" transform="rotate(45.4799 125.069 51.5586)" fill="#B1D7F9"/>
<path d="M173.727 60.9082C173.133 60.8877 172.641 60.8262 172.252 60.7237C171.883 60.6008 171.586 60.4369 171.36 60.2319C171.135 60.0065 170.971 59.7299 170.868 59.402C170.787 59.0536 170.735 58.6438 170.715 58.1724C170.715 57.988 170.705 57.6909 170.684 57.281C170.684 56.8507 170.684 56.3793 170.684 55.867C170.684 55.3342 170.674 54.7809 170.653 54.2071C170.653 53.6333 170.653 53.0801 170.653 52.5472C170.653 52.0144 170.653 51.5431 170.653 51.1333C170.653 50.7234 170.653 50.416 170.653 50.2111C170.653 49.4529 170.858 48.8893 171.268 48.5205C171.698 48.1311 172.221 47.9364 172.836 47.9364C173.492 47.9364 174.024 48.1311 174.434 48.5205C174.865 48.8893 175.08 49.4631 175.08 50.2418V51.4407C175.469 51.4407 175.93 51.4407 176.463 51.4407C176.996 51.4407 177.539 51.4407 178.092 51.4407C178.645 51.4407 179.188 51.4407 179.721 51.4407C180.254 51.4407 180.715 51.4407 181.104 51.4407V50.0574C181.104 49.3402 181.32 48.8074 181.75 48.459C182.18 48.1106 182.713 47.9364 183.348 47.9364C183.963 47.9364 184.486 48.1004 184.916 48.4283C185.346 48.7561 185.562 49.2582 185.562 49.9345C185.562 50.2009 185.562 50.7234 185.562 51.5021C185.582 52.2604 185.592 53.0801 185.592 53.9612C185.592 54.8424 185.592 55.6826 185.592 56.4818C185.592 57.2605 185.582 57.8036 185.562 58.111C185.541 58.5823 185.48 58.9921 185.377 59.3405C185.275 59.6684 185.101 59.945 184.855 60.1705C184.609 60.3754 184.271 60.5393 183.84 60.6623C183.41 60.7852 182.846 60.8569 182.15 60.8774C181.617 60.9184 180.992 60.9492 180.275 60.9697C179.578 60.9697 178.85 60.9799 178.092 61.0004C177.354 61.0004 176.606 61.0004 175.848 61.0004C175.09 60.9799 174.383 60.9492 173.727 60.9082ZM175.08 56.6662C175.1 56.9941 175.162 57.1888 175.264 57.2503C175.367 57.3117 175.592 57.3527 175.94 57.3732C176.596 57.3937 177.293 57.404 178.031 57.404C178.768 57.404 179.434 57.3835 180.029 57.3425C180.254 57.322 180.438 57.3117 180.582 57.3117C180.725 57.2913 180.838 57.2708 180.92 57.2503C181.002 57.2093 181.053 57.1478 181.074 57.0658C181.115 56.9634 181.135 56.8302 181.135 56.6662V54.7912C180.746 54.7912 180.285 54.7912 179.752 54.7912C179.219 54.7707 178.666 54.7604 178.092 54.7604C177.539 54.7604 176.996 54.7707 176.463 54.7912C175.93 54.7912 175.469 54.7912 175.08 54.7912V56.6662ZM178.984 67.7014C178.984 66.7793 179.147 65.9493 179.475 65.2116C179.824 64.4739 180.295 63.8489 180.889 63.3365C181.504 62.8242 182.242 62.4349 183.103 62.1685C183.963 61.9021 184.916 61.7689 185.961 61.7689C186.924 61.7689 187.806 61.9021 188.605 62.1685C189.424 62.4349 190.121 62.8242 190.695 63.3365C191.289 63.8489 191.75 64.4739 192.078 65.2116C192.406 65.9288 192.57 66.7588 192.57 67.7014C192.57 68.5416 192.416 69.3203 192.109 70.0376C191.822 70.7548 191.392 71.3798 190.818 71.9126C190.244 72.4454 189.547 72.8655 188.728 73.1729C187.928 73.4803 187.006 73.634 185.961 73.634C184.916 73.634 183.963 73.4803 183.103 73.1729C182.262 72.8655 181.535 72.4454 180.92 71.9126C180.305 71.3798 179.824 70.7548 179.475 70.0376C179.147 69.3203 178.984 68.5416 178.984 67.7014ZM183.533 67.64C183.533 68.2342 183.748 68.7261 184.178 69.1154C184.609 69.4843 185.172 69.6687 185.869 69.6687C186.586 69.6687 187.16 69.4843 187.59 69.1154C188.041 68.7261 188.267 68.2342 188.267 67.64C188.267 66.9842 188.051 66.4821 187.621 66.1338C187.191 65.7649 186.607 65.5805 185.869 65.5805C185.172 65.5805 184.609 65.7546 184.178 66.103C183.748 66.4309 183.533 66.9432 183.533 67.64ZM189.834 49.7808C189.793 48.9201 189.957 48.2746 190.326 47.8442C190.715 47.3934 191.289 47.168 192.047 47.168C192.744 47.168 193.308 47.3831 193.738 47.8135C194.189 48.2233 194.435 48.9201 194.476 49.9037C194.517 50.9488 194.537 51.8812 194.537 52.7009C194.558 53.5001 194.568 54.2584 194.568 54.9756C194.568 55.6723 194.558 56.3384 194.537 56.9736C194.537 57.6089 194.527 58.2646 194.507 58.9409C194.466 59.9245 194.25 60.7033 193.861 61.277C193.472 61.8508 192.888 62.1377 192.109 62.1377C191.33 62.1377 190.756 61.9123 190.388 61.4615C190.039 60.9901 189.896 60.2319 189.957 59.1868C189.978 58.654 189.988 58.0085 189.988 57.2503C190.008 56.492 190.008 55.6928 189.988 54.8527C189.988 53.992 189.967 53.121 189.927 52.2399C189.906 51.3587 189.875 50.539 189.834 49.7808Z" fill="#F5FAFF"/>
<path d="M156.546 73.4502C155.952 73.4502 155.388 73.2453 154.855 72.8355C154.343 72.4256 154.066 71.8211 154.026 71.0219C154.026 70.776 154.015 70.4788 153.995 70.1305C153.995 69.7821 153.985 69.403 153.964 68.9931C153.964 68.5833 153.964 68.1529 153.964 67.7021C153.964 67.2513 153.964 66.8004 153.964 66.3496C152.468 66.3291 151.013 66.2984 149.599 66.2574C148.206 66.2164 146.945 66.1447 145.818 66.0422C144.876 65.9602 144.22 65.7348 143.851 65.366C143.482 64.9766 143.318 64.4848 143.359 63.8905C143.4 63.2962 143.595 62.8146 143.943 62.4458C144.312 62.0564 144.988 61.8822 145.972 61.9232C147.632 61.9847 149.353 62.0359 151.136 62.0769C152.939 62.0974 154.733 62.1077 156.515 62.1077C158.319 62.1077 160.102 62.0974 161.864 62.0769C163.626 62.0359 165.307 61.9745 166.905 61.8925C167.95 61.8515 168.678 62.0462 169.087 62.4765C169.518 62.8864 169.733 63.4089 169.733 64.0442C169.733 64.6385 169.569 65.0996 169.241 65.4274C168.934 65.7348 168.391 65.9295 167.612 66.0115C166.71 66.1139 165.512 66.1959 164.016 66.2574C162.54 66.2984 160.921 66.3291 159.159 66.3496C159.138 67.0054 159.118 67.6816 159.097 68.3784C159.097 69.0546 159.097 69.6694 159.097 70.2227C159.097 70.776 159.015 71.2473 158.851 71.6367C158.708 72.0465 158.513 72.3846 158.267 72.651C158.042 72.9174 157.776 73.1121 157.468 73.2351C157.161 73.3785 156.853 73.4502 156.546 73.4502ZM146.095 55.8984C146.095 55.1197 146.095 54.4742 146.095 53.9619C146.095 53.4496 146.095 53.009 146.095 52.6401C146.115 52.2508 146.126 51.9024 146.126 51.595C146.146 51.2876 146.177 50.9392 146.218 50.5499C146.279 49.8736 146.495 49.3716 146.863 49.0437C147.232 48.6953 147.837 48.5109 148.677 48.4904C149.968 48.4699 151.29 48.4494 152.642 48.4289C154.015 48.4084 155.378 48.3982 156.731 48.3982C158.083 48.3777 159.405 48.3777 160.696 48.3982C161.987 48.3982 163.206 48.4289 164.354 48.4904C165.194 48.5314 165.798 48.7158 166.167 49.0437C166.536 49.3716 166.751 49.8736 166.813 50.5499C166.833 50.9392 166.854 51.2876 166.874 51.595C166.895 51.9024 166.905 52.2508 166.905 52.6401C166.926 53.009 166.936 53.4496 166.936 53.9619C166.936 54.4742 166.936 55.1197 166.936 55.8984C166.936 56.6362 166.885 57.2612 166.782 57.7735C166.7 58.2653 166.516 58.6752 166.229 59.003C165.942 59.3104 165.532 59.5461 164.999 59.71C164.466 59.874 163.749 59.9867 162.848 60.0482C162.069 60.0891 161.157 60.1199 160.112 60.1404C159.067 60.1609 157.97 60.1711 156.823 60.1711C155.675 60.1711 154.517 60.1609 153.349 60.1404C152.202 60.1199 151.146 60.0994 150.183 60.0789C149.282 60.0584 148.564 59.9662 148.031 59.8022C147.499 59.6383 147.089 59.3924 146.802 59.0645C146.515 58.7161 146.32 58.2858 146.218 57.7735C146.136 57.2612 146.095 56.6362 146.095 55.8984ZM150.736 53.1012C150.716 53.4906 150.706 53.8082 150.706 54.0541C150.726 54.2795 150.747 54.5869 150.767 54.9763C150.808 55.4066 150.9 55.6935 151.044 55.837C151.208 55.9804 151.525 56.0624 151.997 56.0829C152.591 56.1034 153.278 56.1238 154.056 56.1443C154.855 56.1443 155.665 56.1443 156.485 56.1443C157.325 56.1443 158.145 56.1443 158.944 56.1443C159.743 56.1238 160.44 56.1034 161.034 56.0829C161.505 56.0624 161.813 55.9804 161.956 55.837C162.12 55.6935 162.223 55.4066 162.263 54.9763C162.284 54.5869 162.294 54.2795 162.294 54.0541C162.315 53.8082 162.315 53.4906 162.294 53.1012C162.274 52.8758 162.223 52.7221 162.141 52.6401C162.079 52.5582 161.915 52.5069 161.649 52.4864C161.116 52.4454 160.378 52.425 159.436 52.425C158.513 52.4045 157.54 52.3942 156.515 52.3942C155.511 52.3942 154.538 52.4045 153.595 52.425C152.653 52.4454 151.915 52.4659 151.382 52.4864C151.116 52.5069 150.941 52.5582 150.859 52.6401C150.798 52.7221 150.757 52.8758 150.736 53.1012Z" fill="#F5FAFF"/>
<path d="M29.2798 50.7993C29.2798 44.437 34.4375 39.2793 40.7998 39.2793H63.3598C65.4806 39.2793 67.1998 40.9985 67.1998 43.1193V61.8393C67.1998 63.9601 65.4806 65.6793 63.3598 65.6793H33.1198C30.999 65.6793 29.2798 63.9601 29.2798 61.8393V50.7993Z" fill="#B1D7F9"/>
<circle cx="8.64" cy="90.64" r="8.64" fill="#B1D7F9"/>
<rect x="248" y="31" width="80" height="4" rx="2" fill="#DEDEDE"/>
<rect x="248" y="49" width="100" height="4" rx="2" fill="#DEDEDE"/>
<rect x="248" y="67" width="60" height="4" rx="2" fill="#DEDEDE"/>
</svg>
