<svg width="88" height="34" viewBox="0 0 88 34" fill="none" xmlns="http://www.w3.org/2000/svg">
<circle cx="15.0001" cy="15.0191" r="14.4" fill="#1B92FF"/>
<mask id="mask0_1_1518" style="mask-type:alpha" maskUnits="userSpaceOnUse" x="15" y="0" width="15" height="34">
<rect width="14.4" height="32.76" transform="matrix(1 0 0 -1 15 33.3789)" fill="#D9D9D9"/>
</mask>
<g mask="url(#mask0_1_1518)">
<path d="M0.599903 15.0191C0.599903 26.8991 14.9999 33.3791 14.9999 33.3791C14.9999 33.3791 29.3999 26.8991 29.3999 15.0191C29.3999 7.06624 22.9528 0.619141 14.9999 0.619141C7.047 0.619141 0.599903 7.06624 0.599903 15.0191Z" fill="#1B92FF"/>
</g>
<rect x="18.6294" y="9.55078" width="4.032" height="10.944" rx="2.016" fill="#E9F4FF"/>
<rect x="11.627" y="9.57031" width="4.032" height="10.944" rx="2.016" fill="#E9F4FF"/>
<rect opacity="0.8" x="13.6499" y="8.72656" width="4.032" height="13.8697" rx="2.016" transform="rotate(45.4799 13.6499 8.72656)" fill="#E9F4FF"/>
<rect opacity="0.8" x="23.4507" y="12.9785" width="3.9766" height="7.83348" rx="1.9883" transform="rotate(45.4799 23.4507 12.9785)" fill="#E9F4FF"/>
<rect opacity="0.8" x="20.6523" y="8.70703" width="4.07846" height="13.8196" rx="2.03923" transform="rotate(45.4799 20.6523 8.70703)" fill="#E9F4FF"/>
<path d="M66.1462 17.505C65.5544 17.4846 65.0647 17.4234 64.6769 17.3213C64.3096 17.1989 64.0137 17.0356 63.7892 16.8316C63.5648 16.6071 63.4015 16.3316 63.2995 16.0051C63.2178 15.6582 63.1668 15.25 63.1464 14.7807C63.1464 14.597 63.1362 14.3011 63.1158 13.893C63.1158 13.4645 63.1158 12.9951 63.1158 12.4849C63.1158 11.9544 63.1056 11.4034 63.0852 10.832C63.0852 10.2606 63.0852 9.70961 63.0852 9.17904C63.0852 8.64846 63.0852 8.1791 63.0852 7.77097C63.0852 7.36284 63.0852 7.05673 63.0852 6.85267C63.0852 6.09762 63.2893 5.53643 63.6974 5.16911C64.1259 4.78138 64.6463 4.58752 65.2585 4.58752C65.9115 4.58752 66.4421 4.78138 66.8502 5.16911C67.2788 5.53643 67.4931 6.10782 67.4931 6.88328V8.07707C67.8808 8.07707 68.3399 8.07707 68.8705 8.07707C69.4011 8.07707 69.9419 8.07707 70.4929 8.07707C71.0438 8.07707 71.5846 8.07707 72.1152 8.07707C72.6458 8.07707 73.1049 8.07707 73.4926 8.07707V6.69962C73.4926 5.98538 73.7069 5.45481 74.1355 5.10789C74.564 4.76098 75.0946 4.58752 75.7272 4.58752C76.3394 4.58752 76.8598 4.75077 77.2883 5.07728C77.7168 5.40379 77.9311 5.90375 77.9311 6.57718C77.9311 6.84246 77.9311 7.36283 77.9311 8.13829C77.9515 8.89334 77.9617 9.70961 77.9617 10.5871C77.9617 11.4646 77.9617 12.3013 77.9617 13.0971C77.9617 13.8726 77.9515 14.4134 77.9311 14.7195C77.9107 15.1888 77.8495 15.597 77.7475 15.9439C77.6454 16.2704 77.472 16.5459 77.2271 16.7703C76.9822 16.9744 76.6455 17.1377 76.2169 17.2601C75.7884 17.3825 75.2272 17.454 74.5334 17.4744C74.0028 17.5152 73.3804 17.5458 72.6662 17.5662C71.9723 17.5662 71.2479 17.5764 70.4929 17.5968C69.7582 17.5968 69.0134 17.5968 68.2583 17.5968C67.5033 17.5764 66.7992 17.5458 66.1462 17.505ZM67.4931 13.2808C67.5135 13.6073 67.5747 13.8012 67.6767 13.8624C67.7788 13.9236 68.0032 13.9644 68.3501 13.9848C69.0032 14.0052 69.697 14.0154 70.4316 14.0154C71.1663 14.0154 71.8295 13.995 72.4213 13.9542C72.6458 13.9338 72.8294 13.9236 72.9723 13.9236C73.1151 13.9032 73.2274 13.8828 73.309 13.8624C73.3906 13.8216 73.4416 13.7604 73.462 13.6787C73.5028 13.5767 73.5233 13.444 73.5233 13.2808V11.4136C73.1355 11.4136 72.6764 11.4136 72.1458 11.4136C71.6152 11.3932 71.0642 11.383 70.4929 11.383C69.9419 11.383 69.4011 11.3932 68.8705 11.4136C68.3399 11.4136 67.8808 11.4136 67.4931 11.4136V13.2808ZM71.3805 24.2698C71.3805 23.3515 71.5438 22.525 71.8703 21.7904C72.2172 21.0558 72.6866 20.4334 73.2784 19.9232C73.8906 19.413 74.6252 19.0253 75.4823 18.76C76.3394 18.4947 77.2883 18.3621 78.329 18.3621C79.2882 18.3621 80.1656 18.4947 80.9615 18.76C81.7778 19.0253 82.4716 19.413 83.043 19.9232C83.6348 20.4334 84.0939 21.0558 84.4205 21.7904C84.747 22.5046 84.9102 23.3311 84.9102 24.2698C84.9102 25.1065 84.7572 25.882 84.4511 26.5962C84.1654 27.3104 83.7368 27.9328 83.1654 28.4634C82.5941 28.994 81.9002 29.4123 81.084 29.7184C80.2881 30.0245 79.3698 30.1776 78.329 30.1776C77.2883 30.1776 76.3394 30.0245 75.4823 29.7184C74.6456 29.4123 73.9212 28.994 73.309 28.4634C72.6968 27.9328 72.2172 27.3104 71.8703 26.5962C71.5438 25.882 71.3805 25.1065 71.3805 24.2698ZM75.9108 24.2086C75.9108 24.8004 76.1251 25.2902 76.5537 25.6779C76.9822 26.0452 77.5434 26.2289 78.2372 26.2289C78.9515 26.2289 79.5228 26.0452 79.9514 25.6779C80.4003 25.2902 80.6248 24.8004 80.6248 24.2086C80.6248 23.5556 80.4105 23.0556 79.982 22.7087C79.5534 22.3414 78.9719 22.1577 78.2372 22.1577C77.5434 22.1577 76.9822 22.3312 76.5537 22.6781C76.1251 23.0046 75.9108 23.5148 75.9108 24.2086ZM82.1859 6.42413C82.1451 5.56704 82.3084 4.92423 82.6757 4.49569C83.0634 4.04674 83.6348 3.82227 84.3898 3.82227C85.0837 3.82227 85.6449 4.03654 86.0734 4.46508C86.5224 4.87321 86.7672 5.56704 86.808 6.54656C86.8489 7.58731 86.8693 8.51582 86.8693 9.33209C86.8897 10.128 86.8999 10.883 86.8999 11.5972C86.8999 12.2911 86.8897 12.9543 86.8693 13.5869C86.8693 14.2195 86.8591 14.8725 86.8387 15.5459C86.7978 16.5255 86.5836 17.3009 86.1958 17.8723C85.8081 18.4437 85.2265 18.7294 84.4511 18.7294C83.6756 18.7294 83.1042 18.5049 82.7369 18.056C82.39 17.5866 82.2471 16.8316 82.3084 15.7908C82.3288 15.2602 82.339 14.6174 82.339 13.8624C82.3594 13.1073 82.3594 12.3115 82.339 11.4748C82.339 10.6177 82.3186 9.75042 82.2777 8.87293C82.2573 7.99544 82.2267 7.17918 82.1859 6.42413Z" fill="#1B92FF"/>
<path d="M49.0378 29.9938C48.446 29.9938 47.8848 29.7897 47.3542 29.3816C46.844 28.9735 46.5685 28.3715 46.5277 27.5756C46.5277 27.3307 46.5175 27.0348 46.4971 26.6879C46.4971 26.341 46.4869 25.9635 46.4665 25.5553C46.4665 25.1472 46.4665 24.7187 46.4665 24.2697C46.4665 23.8208 46.4665 23.3718 46.4665 22.9229C44.9768 22.9025 43.5279 22.8718 42.1199 22.831C40.7322 22.7902 39.4772 22.7188 38.3548 22.6168C37.4161 22.5351 36.7631 22.3107 36.3958 21.9433C36.0285 21.5556 35.8652 21.0658 35.906 20.4741C35.9468 19.8823 36.1407 19.4027 36.4876 19.0354C36.8549 18.6476 37.5284 18.4742 38.5079 18.515C40.1608 18.5762 41.875 18.6272 43.6504 18.6681C45.4462 18.6885 47.2318 18.6987 49.0072 18.6987C50.8029 18.6987 52.5783 18.6885 54.3333 18.6681C56.0883 18.6272 57.7616 18.566 59.3534 18.4844C60.3941 18.4436 61.1186 18.6374 61.5267 19.066C61.9552 19.4741 62.1695 19.9945 62.1695 20.6271C62.1695 21.2189 62.0062 21.6781 61.6797 22.0046C61.3736 22.3107 60.8329 22.5045 60.0574 22.5862C59.1595 22.6882 57.9657 22.7698 56.476 22.831C55.0067 22.8718 53.3946 22.9025 51.6396 22.9229C51.6192 23.5759 51.5988 24.2493 51.5784 24.9431C51.5784 25.6166 51.5784 26.2288 51.5784 26.7797C51.5784 27.3307 51.4968 27.8001 51.3335 28.1878C51.1907 28.5959 50.9968 28.9326 50.7519 29.1979C50.5275 29.4632 50.2622 29.6571 49.9561 29.7795C49.65 29.9224 49.3439 29.9938 49.0378 29.9938ZM38.6303 12.5154C38.6303 11.74 38.6303 11.0972 38.6303 10.587C38.6303 10.0768 38.6303 9.63807 38.6303 9.27075C38.6507 8.88302 38.6609 8.53611 38.6609 8.23001C38.6813 7.92391 38.712 7.57699 38.7528 7.18926C38.814 6.51584 39.0283 6.01588 39.3956 5.68937C39.7629 5.34245 40.3649 5.15879 41.2016 5.13838C42.4872 5.11798 43.8034 5.09757 45.1503 5.07716C46.5175 5.05676 47.8746 5.04655 49.2214 5.04655C50.5683 5.02615 51.8845 5.02615 53.1701 5.04655C54.4558 5.04655 55.67 5.07716 56.8127 5.13838C57.6494 5.1792 58.2514 5.36286 58.6187 5.68937C58.986 6.01588 59.2003 6.51584 59.2615 7.18926C59.2819 7.57699 59.3024 7.92391 59.3228 8.23001C59.3432 8.53611 59.3534 8.88302 59.3534 9.27075C59.3738 9.63807 59.384 10.0768 59.384 10.587C59.384 11.0972 59.384 11.74 59.384 12.5154C59.384 13.2501 59.333 13.8725 59.2309 14.3826C59.1493 14.8724 58.9656 15.2805 58.6799 15.607C58.3943 15.9131 57.9861 16.1478 57.4555 16.3111C56.925 16.4743 56.2107 16.5866 55.3128 16.6478C54.5374 16.6886 53.6293 16.7192 52.5885 16.7396C51.5478 16.76 50.456 16.7702 49.3133 16.7702C48.1705 16.7702 47.0175 16.76 45.8543 16.7396C44.7115 16.7192 43.6606 16.6988 42.7015 16.6784C41.8036 16.658 41.0893 16.5662 40.5588 16.4029C40.0282 16.2397 39.6201 15.9948 39.3344 15.6683C39.0487 15.3214 38.8548 14.8928 38.7528 14.3826C38.6711 13.8725 38.6303 13.2501 38.6303 12.5154ZM43.2525 9.7299C43.232 10.1176 43.2218 10.4339 43.2218 10.6788C43.2422 10.9033 43.2627 11.2094 43.2831 11.5971C43.3239 12.0257 43.4157 12.3114 43.5586 12.4542C43.7218 12.5971 44.0381 12.6787 44.5075 12.6991C45.0993 12.7195 45.7829 12.7399 46.5583 12.7603C47.3542 12.7603 48.1603 12.7603 48.9765 12.7603C49.8132 12.7603 50.6295 12.7603 51.4254 12.7603C52.2212 12.7399 52.915 12.7195 53.5068 12.6991C53.9762 12.6787 54.2823 12.5971 54.4251 12.4542C54.5884 12.3114 54.6904 12.0257 54.7312 11.5971C54.7516 11.2094 54.7619 10.9033 54.7619 10.6788C54.7823 10.4339 54.7823 10.1176 54.7619 9.7299C54.7414 9.50543 54.6904 9.35238 54.6088 9.27075C54.5476 9.18912 54.3843 9.13811 54.119 9.1177C53.5885 9.07689 52.8538 9.05648 51.9151 9.05648C50.9968 9.03607 50.0275 9.02587 49.0072 9.02587C48.0072 9.02587 47.0379 9.03607 46.0992 9.05648C45.1605 9.07689 44.4258 9.09729 43.8953 9.1177C43.63 9.13811 43.4565 9.18912 43.3749 9.27075C43.3137 9.35238 43.2729 9.50543 43.2525 9.7299Z" fill="#1B92FF"/>
</svg>
