<svg width="347" height="260" viewBox="0 0 347 260" fill="none" xmlns="http://www.w3.org/2000/svg">
<g filter="url(#filter0_d_1_1601)">
<g filter="url(#filter1_di_1_1601)">
<rect x="6" y="6" width="327" height="240" rx="24" fill="white" shape-rendering="crispEdges"/>
<path d="M50.4141 36.082V42.9766H53.0312V44.793H50.4141V53.6992H48.2461V36.082H50.4141ZM36.4883 48.875C40.7852 46.7266 43.1094 43.7383 43.5391 39.7148H37.4453V37.918H45.7461C45.7363 43.1035 43.5879 47.6641 37.7188 50.5547L36.4883 48.875ZM68.6562 36.082V46.5703H66.4883V42.2539H63.4805V40.4766H66.4883V36.082H68.6562ZM53.8125 44.8125C56.6543 43.8359 58.1484 41.4629 58.1484 39.1289V38.9922H54.4766V37.2344H64.0078V38.9922H60.3555V39.1094C60.3555 41.2578 61.7812 43.4258 64.5156 44.3438L63.4219 46.0625C61.459 45.3984 60.0723 44.0508 59.291 42.3906C58.5195 44.2656 57.0449 45.7891 54.9453 46.5312L53.8125 44.8125ZM56.6836 50.3789C56.6641 48.2598 58.959 47.0195 62.6797 47.0195C66.4199 47.0195 68.7051 48.2598 68.7148 50.3789C68.7051 52.498 66.4199 53.7285 62.6797 53.7383C58.959 53.7285 56.6641 52.498 56.6836 50.3789ZM58.832 50.3789C58.8223 51.4727 60.2285 52.0684 62.6797 52.0586C65.1504 52.0684 66.5469 51.4727 66.5469 50.3789C66.5469 49.2754 65.1504 48.6797 62.6797 48.6797C60.2285 48.6797 58.8223 49.2754 58.832 50.3789ZM85.8438 36.082V53.7578H83.6562V36.082H85.8438ZM71.7227 43.6016C71.7129 39.793 73.6562 37.3711 76.332 37.3711C78.9785 37.3711 80.9316 39.793 80.9414 43.6016C80.9316 47.4395 78.9785 49.8516 76.332 49.8516C73.6562 49.8516 71.7129 47.4395 71.7227 43.6016ZM73.8125 43.6016C73.8125 46.3164 74.8379 47.8887 76.332 47.8984C77.8164 47.8887 78.832 46.3164 78.832 43.6016C78.832 40.9062 77.8164 39.3242 76.332 39.3242C74.8379 39.3242 73.8125 40.9062 73.8125 43.6016ZM94.75 40.3203C94.7305 43.4746 96.3125 46.6582 99.0469 47.9766L97.7188 49.7148C95.8047 48.748 94.4277 46.8828 93.6758 44.6367C92.9043 47.0391 91.459 49.0312 89.4375 50.0469L88.1094 48.3086C90.9512 46.9609 92.5723 43.582 92.582 40.3203V37.5078H94.75V40.3203ZM100.102 53.7383V36.082H102.27V42.9961H104.984V44.8516H102.27V53.7383H100.102Z" fill="black"/>
<path d="M40.1562 72.4961C40.1562 73.6445 40.7783 75.1348 42.043 75.9824C43.2734 75.1621 43.9023 73.6992 43.9023 72.4961V70.9375H44.9824V72.4961C44.9688 73.9863 45.8574 75.5312 47.457 76.2012L46.8555 77.0215C45.666 76.4883 44.8457 75.4902 44.4355 74.3145C44.0391 75.4971 43.2529 76.5908 42.0293 77.1582C40.792 76.584 39.9922 75.4424 39.6094 74.2461C39.1787 75.415 38.3516 76.4746 37.1895 77.0215L36.6152 76.2012C38.1602 75.4902 39.0762 73.8496 39.0898 72.4961V70.9375H40.1562V72.4961ZM47.6074 79.5781V80.4668H36.4922V79.5781H47.6074ZM58.627 69.9531V82.1348H57.5605V69.9531H58.627ZM54.9355 71.0879V75.4082H50.3965V78.2793C52.4131 78.2793 54.2109 78.1904 56.3848 77.8418L56.4941 78.7441C54.252 79.0996 52.4062 79.1816 50.3145 79.1816H49.3027V74.5332H53.8555V71.9766H49.2754V71.0879H54.9355ZM71.8066 76.1328V77.0078H66.7617V78.2793H70.3711V81.9434H62.1953V78.2793H65.709V77.0078H60.6777V76.1328H71.8066ZM63.248 79.1406V81.0684H69.3184V79.1406H63.248ZM70.3711 70.2539V73.0977H63.1934V74.3145H70.6309V75.1758H62.127V72.3047H69.291V71.0879H62.0859V70.2539H70.3711ZM74.7871 80.084L73.7207 83.8027H72.709L73.4609 80.084H74.7871ZM80.3242 81L80.3105 80.0977L83.6875 76.543C84.8633 75.2988 85.4238 74.6289 85.4238 73.7129C85.4238 72.7012 84.5625 72.0312 83.4551 72.0312C82.2793 72.0312 81.5273 72.7832 81.5273 73.8906H80.3652C80.3516 72.1406 81.7051 70.9648 83.4961 70.9648C85.2871 70.9648 86.5723 72.168 86.5723 73.7129C86.5723 74.8203 86.0527 75.6816 84.3027 77.4863L82.0332 79.8242V79.9062H86.75V81H80.3242ZM91.7812 81.1367C89.5801 81.1367 88.3223 79.291 88.3223 76.0508C88.3223 72.8379 89.6074 70.9648 91.7812 70.9648C93.9551 70.9648 95.2402 72.8379 95.2402 76.0508C95.2402 79.291 93.9688 81.1367 91.7812 81.1367ZM91.7812 80.043C93.2031 80.043 94.0371 78.6074 94.0371 76.0508C94.0371 73.4941 93.2031 72.0312 91.7812 72.0312C90.3594 72.0312 89.5117 73.4941 89.5117 76.0508C89.5117 78.6074 90.3457 80.043 91.7812 80.043ZM103.266 70.8828V71.7715H102.021V75.6543C102.589 75.6201 103.136 75.5723 103.662 75.5039L103.717 76.3242C101.352 76.6934 98.5762 76.7207 96.6074 76.7207L96.4707 75.8184C96.9561 75.8184 97.4824 75.8184 98.043 75.8047V71.7715H96.8125V70.8828H103.266ZM106.52 69.9531V77.459H105.439V75.2031H103.389V74.3145H105.439V73.0293H103.389V72.1406H105.439V69.9531H106.52ZM102.486 77.7188C105.029 77.7188 106.561 78.5117 106.561 79.8926C106.561 81.2871 105.029 82.0801 102.486 82.0801C99.9434 82.0801 98.4121 81.2871 98.4121 79.8926C98.4121 78.5117 99.9434 77.7188 102.486 77.7188ZM102.486 78.5527C100.613 78.5527 99.4648 79.0586 99.4785 79.8926C99.4648 80.7402 100.613 81.2324 102.486 81.2324C104.359 81.2324 105.494 80.7402 105.494 79.8926C105.494 79.0586 104.359 78.5527 102.486 78.5527ZM99.082 75.791C99.7041 75.7773 100.347 75.7568 100.982 75.7227V71.7715H99.082V75.791ZM118.934 69.9531V82.1074H117.908V75.7363H116.117V81.4785H115.133V70.2266H116.117V74.8477H117.908V69.9531H118.934ZM113.547 71.4434V72.332H110.061V78.1836C111.735 78.1768 112.897 78.1152 114.244 77.8418L114.34 78.7441C112.877 79.0449 111.633 79.0996 109.773 79.0996H108.994V71.4434H113.547ZM130.486 71.1562V79.0586H124.867V71.1562H130.486ZM125.92 72.0176V78.1836H129.434V72.0176H125.92ZM134.178 69.9531V82.1348H133.098V69.9531H134.178ZM142.395 71.0605V76.6523H136.775V71.0605H142.395ZM137.828 71.9355V75.791H141.355V71.9355H137.828ZM145.758 69.9531V73.6582H147.59V74.5605H145.758V78.8672H144.691V69.9531H145.758ZM146.318 80.9453V81.8477H138.156V78.0195H139.209V80.9453H146.318Z" fill="#999999"/>
</g>
<mask id="mask0_1_1601" style="mask-type:alpha" maskUnits="userSpaceOnUse" x="6" y="6" width="327" height="240">
<rect x="6" y="6" width="327" height="240" rx="24" fill="white"/>
</mask>
<g mask="url(#mask0_1_1601)">
<circle cx="345.8" cy="245.401" r="18.6" fill="#242945"/>
<path d="M186.8 240H356.6C356.6 245.302 352.302 249.6 347 249.6H196.4C191.098 249.6 186.8 245.302 186.8 240Z" fill="#242945"/>
<path d="M116.6 151.8C116.6 141.196 125.196 132.6 135.8 132.6H176V230.4C176 235.702 171.702 240 166.4 240H135.8C125.196 240 116.6 231.403 116.6 220.8V151.8Z" fill="#E9F4FF"/>
<path d="M96.7998 184.2C96.7998 173.596 105.396 165 116 165H146.6V230.4C146.6 235.702 142.302 240 137 240H116C105.396 240 96.7998 231.404 96.7998 220.8V184.2Z" fill="#E9F4FF"/>
<path d="M176 102C176 95.3726 181.373 90 188 90H365.6C372.227 90 377.6 95.3726 377.6 102V230.4C377.6 235.702 373.302 240 368 240H185.6C180.298 240 176 235.702 176 230.4V102Z" fill="#1B92FF"/>
<circle cx="140" cy="245.401" r="18.6" fill="#242945"/>
<circle cx="234.8" cy="162.36" r="19.2" fill="#F5FAFF"/>
<mask id="mask1_1_1601" style="mask-type:alpha" maskUnits="userSpaceOnUse" x="234" y="143" width="21" height="44">
<rect width="19.2" height="43.68" transform="matrix(1 0 0 -1 234.8 186.84)" fill="#D9D9D9"/>
</mask>
<g mask="url(#mask1_1_1601)">
<path d="M215.6 162.36C215.6 178.2 234.8 186.84 234.8 186.84C234.8 186.84 254 178.2 254 162.36C254 151.756 245.404 143.16 234.8 143.16C224.196 143.16 215.6 151.756 215.6 162.36Z" fill="#F5FAFF"/>
</g>
<rect x="239.639" y="155.072" width="5.376" height="14.592" rx="2.688" fill="#4DA9FF"/>
<rect x="230.303" y="155.1" width="5.376" height="14.592" rx="2.688" fill="#4DA9FF"/>
<rect opacity="0.8" x="233" y="153.975" width="5.376" height="18.4929" rx="2.688" transform="rotate(45.4799 233 153.975)" fill="#4DA9FF"/>
<rect opacity="0.8" x="246.067" y="159.641" width="5.30213" height="10.4446" rx="2.65107" transform="rotate(45.4799 246.067 159.641)" fill="#4DA9FF"/>
<rect opacity="0.8" x="242.336" y="153.947" width="5.43795" height="18.4261" rx="2.71898" transform="rotate(45.4799 242.336 153.947)" fill="#4DA9FF"/>
<path d="M303.159 165.634C302.416 165.609 301.801 165.532 301.314 165.404C300.853 165.25 300.482 165.045 300.2 164.789C299.918 164.507 299.713 164.161 299.585 163.752C299.483 163.316 299.419 162.804 299.393 162.215C299.393 161.984 299.38 161.613 299.355 161.1C299.355 160.562 299.355 159.973 299.355 159.333C299.355 158.667 299.342 157.975 299.316 157.258C299.316 156.541 299.316 155.849 299.316 155.183C299.316 154.517 299.316 153.928 299.316 153.416C299.316 152.903 299.316 152.519 299.316 152.263C299.316 151.315 299.573 150.611 300.085 150.15C300.623 149.663 301.276 149.42 302.044 149.42C302.864 149.42 303.53 149.663 304.042 150.15C304.58 150.611 304.849 151.328 304.849 152.301V153.8C305.336 153.8 305.912 153.8 306.578 153.8C307.244 153.8 307.923 153.8 308.615 153.8C309.306 153.8 309.985 153.8 310.651 153.8C311.317 153.8 311.894 153.8 312.38 153.8V152.071C312.38 151.174 312.649 150.508 313.187 150.073C313.725 149.637 314.391 149.42 315.185 149.42C315.954 149.42 316.607 149.624 317.145 150.034C317.683 150.444 317.952 151.072 317.952 151.917C317.952 152.25 317.952 152.903 317.952 153.877C317.977 154.824 317.99 155.849 317.99 156.951C317.99 158.052 317.99 159.102 317.99 160.101C317.99 161.075 317.977 161.753 317.952 162.138C317.926 162.727 317.849 163.239 317.721 163.675C317.593 164.085 317.375 164.43 317.068 164.712C316.761 164.968 316.338 165.173 315.8 165.327C315.262 165.481 314.558 165.57 313.687 165.596C313.021 165.647 312.239 165.685 311.343 165.711C310.472 165.711 309.563 165.724 308.615 165.75C307.693 165.75 306.758 165.75 305.81 165.75C304.862 165.724 303.978 165.685 303.159 165.634ZM304.849 160.332C304.875 160.742 304.952 160.985 305.08 161.062C305.208 161.139 305.49 161.19 305.925 161.216C306.745 161.241 307.616 161.254 308.538 161.254C309.46 161.254 310.293 161.228 311.036 161.177C311.317 161.152 311.548 161.139 311.727 161.139C311.906 161.113 312.047 161.087 312.15 161.062C312.252 161.011 312.316 160.934 312.342 160.831C312.393 160.703 312.419 160.537 312.419 160.332V157.988C311.932 157.988 311.356 157.988 310.69 157.988C310.024 157.962 309.332 157.95 308.615 157.95C307.923 157.95 307.244 157.962 306.578 157.988C305.912 157.988 305.336 157.988 304.849 157.988V160.332ZM309.729 174.126C309.729 172.973 309.934 171.936 310.344 171.014C310.779 170.091 311.369 169.31 312.111 168.67C312.88 168.029 313.802 167.543 314.878 167.21C315.954 166.877 317.145 166.71 318.451 166.71C319.655 166.71 320.757 166.877 321.756 167.21C322.78 167.543 323.651 168.029 324.368 168.67C325.111 169.31 325.688 170.091 326.098 171.014C326.507 171.91 326.712 172.948 326.712 174.126C326.712 175.176 326.52 176.149 326.136 177.046C325.777 177.943 325.239 178.724 324.522 179.39C323.805 180.056 322.934 180.581 321.909 180.965C320.91 181.349 319.758 181.542 318.451 181.542C317.145 181.542 315.954 181.349 314.878 180.965C313.828 180.581 312.918 180.056 312.15 179.39C311.381 178.724 310.779 177.943 310.344 177.046C309.934 176.149 309.729 175.176 309.729 174.126ZM315.416 174.049C315.416 174.792 315.685 175.407 316.223 175.893C316.761 176.354 317.465 176.585 318.336 176.585C319.233 176.585 319.95 176.354 320.488 175.893C321.051 175.407 321.333 174.792 321.333 174.049C321.333 173.229 321.064 172.602 320.526 172.166C319.988 171.705 319.258 171.475 318.336 171.475C317.465 171.475 316.761 171.692 316.223 172.128C315.685 172.538 315.416 173.178 315.416 174.049ZM323.293 151.725C323.241 150.649 323.446 149.842 323.907 149.304C324.394 148.741 325.111 148.459 326.059 148.459C326.93 148.459 327.634 148.728 328.172 149.266C328.736 149.778 329.043 150.649 329.095 151.879C329.146 153.185 329.171 154.351 329.171 155.375C329.197 156.374 329.21 157.322 329.21 158.219C329.21 159.089 329.197 159.922 329.171 160.716C329.171 161.51 329.159 162.33 329.133 163.175C329.082 164.405 328.813 165.378 328.326 166.095C327.839 166.813 327.109 167.171 326.136 167.171C325.163 167.171 324.445 166.889 323.984 166.326C323.549 165.737 323.369 164.789 323.446 163.483C323.472 162.817 323.485 162.01 323.485 161.062C323.51 160.114 323.51 159.115 323.485 158.065C323.485 156.989 323.459 155.9 323.408 154.799C323.382 153.697 323.344 152.673 323.293 151.725Z" fill="#F5FAFF"/>
<path d="M281.682 181.311C280.939 181.311 280.235 181.055 279.569 180.542C278.929 180.03 278.583 179.274 278.532 178.275C278.532 177.968 278.519 177.597 278.493 177.161C278.493 176.726 278.48 176.252 278.455 175.739C278.455 175.227 278.455 174.689 278.455 174.126C278.455 173.562 278.455 172.999 278.455 172.435C276.585 172.409 274.766 172.371 272.999 172.32C271.257 172.269 269.681 172.179 268.272 172.051C267.094 171.948 266.274 171.667 265.813 171.205C265.352 170.719 265.147 170.104 265.199 169.361C265.25 168.618 265.493 168.016 265.929 167.555C266.39 167.069 267.235 166.851 268.465 166.902C270.539 166.979 272.691 167.043 274.92 167.094C277.174 167.12 279.415 167.133 281.644 167.133C283.898 167.133 286.127 167.12 288.329 167.094C290.532 167.043 292.633 166.966 294.631 166.864C295.937 166.812 296.847 167.056 297.359 167.594C297.897 168.106 298.166 168.759 298.166 169.553C298.166 170.296 297.961 170.872 297.551 171.282C297.167 171.667 296.488 171.91 295.515 172.012C294.388 172.14 292.889 172.243 291.019 172.32C289.175 172.371 287.151 172.409 284.948 172.435C284.923 173.255 284.897 174.1 284.871 174.971C284.871 175.816 284.871 176.585 284.871 177.276C284.871 177.968 284.769 178.557 284.564 179.044C284.385 179.556 284.141 179.979 283.834 180.312C283.552 180.645 283.219 180.888 282.835 181.042C282.451 181.221 282.066 181.311 281.682 181.311ZM268.618 159.371C268.618 158.398 268.618 157.591 268.618 156.95C268.618 156.31 268.618 155.759 268.618 155.298C268.644 154.812 268.657 154.376 268.657 153.992C268.682 153.608 268.721 153.172 268.772 152.685C268.849 151.84 269.118 151.213 269.579 150.803C270.04 150.367 270.796 150.137 271.846 150.111C273.46 150.085 275.112 150.06 276.802 150.034C278.519 150.009 280.222 149.996 281.913 149.996C283.603 149.97 285.256 149.97 286.869 149.996C288.483 149.996 290.007 150.034 291.442 150.111C292.492 150.162 293.248 150.393 293.709 150.803C294.17 151.213 294.439 151.84 294.516 152.685C294.541 153.172 294.567 153.608 294.593 153.992C294.618 154.376 294.631 154.812 294.631 155.298C294.657 155.759 294.669 156.31 294.669 156.95C294.669 157.591 294.669 158.398 294.669 159.371C294.669 160.293 294.605 161.075 294.477 161.715C294.375 162.33 294.144 162.842 293.786 163.252C293.427 163.636 292.915 163.931 292.249 164.136C291.583 164.341 290.686 164.481 289.559 164.558C288.586 164.609 287.446 164.648 286.139 164.674C284.833 164.699 283.463 164.712 282.028 164.712C280.594 164.712 279.146 164.699 277.686 164.674C276.252 164.648 274.933 164.622 273.729 164.597C272.602 164.571 271.705 164.456 271.039 164.251C270.373 164.046 269.861 163.739 269.502 163.329C269.143 162.893 268.9 162.355 268.772 161.715C268.67 161.075 268.618 160.293 268.618 159.371ZM274.42 155.875C274.395 156.361 274.382 156.758 274.382 157.066C274.407 157.347 274.433 157.732 274.459 158.218C274.51 158.756 274.625 159.115 274.804 159.294C275.009 159.474 275.406 159.576 275.996 159.602C276.738 159.627 277.597 159.653 278.57 159.678C279.569 159.678 280.581 159.678 281.605 159.678C282.656 159.678 283.68 159.678 284.679 159.678C285.678 159.653 286.549 159.627 287.292 159.602C287.881 159.576 288.265 159.474 288.445 159.294C288.65 159.115 288.778 158.756 288.829 158.218C288.855 157.732 288.867 157.347 288.867 157.066C288.893 156.758 288.893 156.361 288.867 155.875C288.842 155.593 288.778 155.401 288.675 155.298C288.598 155.196 288.394 155.132 288.061 155.106C287.395 155.055 286.472 155.029 285.294 155.029C284.141 155.004 282.925 154.991 281.644 154.991C280.389 154.991 279.172 155.004 277.994 155.029C276.815 155.055 275.893 155.08 275.227 155.106C274.894 155.132 274.676 155.196 274.574 155.298C274.497 155.401 274.446 155.593 274.42 155.875Z" fill="#F5FAFF"/>
<path d="M122.6 153C122.6 145.047 129.047 138.6 137 138.6H165.2C167.851 138.6 170 140.749 170 143.4V166.8C170 169.451 167.851 171.6 165.2 171.6H127.4C124.749 171.6 122.6 169.451 122.6 166.8V153Z" fill="#242945"/>
<circle cx="96.8" cy="202.8" r="10.8" fill="#1B92FF"/>
</g>
</g>
<defs>
<filter id="filter0_d_1_1601" x="0" y="0" width="347" height="260" filterUnits="userSpaceOnUse" color-interpolation-filters="sRGB">
<feFlood flood-opacity="0" result="BackgroundImageFix"/>
<feColorMatrix in="SourceAlpha" type="matrix" values="0 0 0 0 0 0 0 0 0 0 0 0 0 0 0 0 0 0 127 0" result="hardAlpha"/>
<feOffset dx="4" dy="4"/>
<feGaussianBlur stdDeviation="5"/>
<feComposite in2="hardAlpha" operator="out"/>
<feColorMatrix type="matrix" values="0 0 0 0 0.881852 0 0 0 0 0.881852 0 0 0 0 0.881852 0 0 0 0.1 0"/>
<feBlend mode="normal" in2="BackgroundImageFix" result="effect1_dropShadow_1_1601"/>
<feBlend mode="normal" in="SourceGraphic" in2="effect1_dropShadow_1_1601" result="shape"/>
</filter>
<filter id="filter1_di_1_1601" x="0" y="0" width="347" height="260" filterUnits="userSpaceOnUse" color-interpolation-filters="sRGB">
<feFlood flood-opacity="0" result="BackgroundImageFix"/>
<feColorMatrix in="SourceAlpha" type="matrix" values="0 0 0 0 0 0 0 0 0 0 0 0 0 0 0 0 0 0 127 0" result="hardAlpha"/>
<feOffset dx="4" dy="4"/>
<feGaussianBlur stdDeviation="5"/>
<feComposite in2="hardAlpha" operator="out"/>
<feColorMatrix type="matrix" values="0 0 0 0 0.881852 0 0 0 0 0.881852 0 0 0 0 0.881852 0 0 0 0.1 0"/>
<feBlend mode="normal" in2="BackgroundImageFix" result="effect1_dropShadow_1_1601"/>
<feBlend mode="normal" in="SourceGraphic" in2="effect1_dropShadow_1_1601" result="shape"/>
<feColorMatrix in="SourceAlpha" type="matrix" values="0 0 0 0 0 0 0 0 0 0 0 0 0 0 0 0 0 0 127 0" result="hardAlpha"/>
<feOffset dx="6" dy="6"/>
<feGaussianBlur stdDeviation="5"/>
<feComposite in2="hardAlpha" operator="arithmetic" k2="-1" k3="1"/>
<feColorMatrix type="matrix" values="0 0 0 0 0.958805 0 0 0 0 0.958805 0 0 0 0 0.958805 0 0 0 0.2 0"/>
<feBlend mode="normal" in2="shape" result="effect2_innerShadow_1_1601"/>
</filter>
</defs>
</svg>
