<svg width="52" height="32" viewBox="0 0 52 32" fill="none" xmlns="http://www.w3.org/2000/svg">
<path d="M30.7463 16.505C30.1545 16.4846 29.6648 16.4234 29.277 16.3213C28.9097 16.1989 28.6138 16.0356 28.3893 15.8316C28.1649 15.6071 28.0016 15.3316 27.8996 15.0051C27.8179 14.6582 27.7669 14.25 27.7465 13.7807C27.7465 13.597 27.7363 13.3011 27.7159 12.893C27.7159 12.4645 27.7159 11.9951 27.7159 11.4849C27.7159 10.9544 27.7057 10.4034 27.6853 9.83198C27.6853 9.26059 27.6853 8.70961 27.6853 8.17904C27.6853 7.64846 27.6853 7.1791 27.6853 6.77097C27.6853 6.36284 27.6853 6.05673 27.6853 5.85267C27.6853 5.09762 27.8894 4.53643 28.2975 4.16911C28.726 3.78138 29.2464 3.58752 29.8586 3.58752C30.5116 3.58752 31.0422 3.78138 31.4503 4.16911C31.8789 4.53643 32.0932 5.10782 32.0932 5.88328V7.07707C32.4809 7.07707 32.94 7.07707 33.4706 7.07707C34.0012 7.07707 34.542 7.07707 35.093 7.07707C35.6439 7.07707 36.1847 7.07707 36.7153 7.07707C37.2459 7.07707 37.705 7.07707 38.0927 7.07707V5.69962C38.0927 4.98538 38.307 4.45481 38.7356 4.10789C39.1641 3.76098 39.6947 3.58752 40.3273 3.58752C40.9395 3.58752 41.4599 3.75077 41.8884 4.07728C42.3169 4.40379 42.5312 4.90375 42.5312 5.57718C42.5312 5.84246 42.5312 6.36283 42.5312 7.13829C42.5516 7.89334 42.5618 8.70961 42.5618 9.5871C42.5618 10.4646 42.5618 11.3013 42.5618 12.0971C42.5618 12.8726 42.5516 13.4134 42.5312 13.7195C42.5108 14.1888 42.4496 14.597 42.3475 14.9439C42.2455 15.2704 42.0721 15.5459 41.8272 15.7703C41.5823 15.9744 41.2456 16.1377 40.817 16.2601C40.3885 16.3825 39.8273 16.454 39.1335 16.4744C38.6029 16.5152 37.9805 16.5458 37.2663 16.5662C36.5724 16.5662 35.848 16.5764 35.093 16.5968C34.3583 16.5968 33.6135 16.5968 32.8584 16.5968C32.1034 16.5764 31.3993 16.5458 30.7463 16.505ZM32.0932 12.2808C32.1136 12.6073 32.1748 12.8012 32.2768 12.8624C32.3789 12.9236 32.6033 12.9644 32.9502 12.9848C33.6033 13.0052 34.2971 13.0154 35.0317 13.0154C35.7664 13.0154 36.4296 12.995 37.0214 12.9542C37.2459 12.9338 37.4295 12.9236 37.5724 12.9236C37.7152 12.9032 37.8275 12.8828 37.9091 12.8624C37.9907 12.8216 38.0417 12.7604 38.0621 12.6787C38.1029 12.5767 38.1234 12.444 38.1234 12.2808V10.4136C37.7356 10.4136 37.2765 10.4136 36.7459 10.4136C36.2153 10.3932 35.6643 10.383 35.093 10.383C34.542 10.383 34.0012 10.3932 33.4706 10.4136C32.94 10.4136 32.4809 10.4136 32.0932 10.4136V12.2808ZM35.9806 23.2698C35.9806 22.3515 36.1439 21.525 36.4704 20.7904C36.8173 20.0558 37.2867 19.4334 37.8785 18.9232C38.4907 18.413 39.2253 18.0253 40.0824 17.76C40.9395 17.4947 41.8884 17.3621 42.9291 17.3621C43.8883 17.3621 44.7657 17.4947 45.5616 17.76C46.3779 18.0253 47.0717 18.413 47.6431 18.9232C48.2349 19.4334 48.694 20.0558 49.0206 20.7904C49.3471 21.5046 49.5103 22.3311 49.5103 23.2698C49.5103 24.1065 49.3573 24.882 49.0512 25.5962C48.7655 26.3104 48.3369 26.9328 47.7655 27.4634C47.1941 27.994 46.5003 28.4123 45.684 28.7184C44.8882 29.0245 43.9699 29.1776 42.9291 29.1776C41.8884 29.1776 40.9395 29.0245 40.0824 28.7184C39.2457 28.4123 38.5213 27.994 37.9091 27.4634C37.2969 26.9328 36.8173 26.3104 36.4704 25.5962C36.1439 24.882 35.9806 24.1065 35.9806 23.2698ZM40.5109 23.2086C40.5109 23.8004 40.7252 24.2902 41.1538 24.6779C41.5823 25.0452 42.1435 25.2289 42.8373 25.2289C43.5515 25.2289 44.1229 25.0452 44.5515 24.6779C45.0004 24.2902 45.2249 23.8004 45.2249 23.2086C45.2249 22.5556 45.0106 22.0556 44.5821 21.7087C44.1535 21.3414 43.572 21.1577 42.8373 21.1577C42.1435 21.1577 41.5823 21.3312 41.1538 21.6781C40.7252 22.0046 40.5109 22.5148 40.5109 23.2086ZM46.786 5.42413C46.7452 4.56704 46.9085 3.92423 47.2758 3.49569C47.6635 3.04674 48.2349 2.82227 48.9899 2.82227C49.6838 2.82227 50.245 3.03654 50.6735 3.46508C51.1224 3.87321 51.3673 4.56704 51.4081 5.54656C51.449 6.58731 51.4694 7.51582 51.4694 8.33209C51.4898 9.12795 51.5 9.883 51.5 10.5972C51.5 11.2911 51.4898 11.9543 51.4694 12.5869C51.4694 13.2195 51.4592 13.8725 51.4388 14.5459C51.3979 15.5255 51.1837 16.3009 50.7959 16.8723C50.4082 17.4437 49.8266 17.7294 49.0512 17.7294C48.2757 17.7294 47.7043 17.5049 47.337 17.056C46.9901 16.5866 46.8472 15.8316 46.9085 14.7908C46.9289 14.2602 46.9391 13.6174 46.9391 12.8624C46.9595 12.1073 46.9595 11.3115 46.9391 10.4748C46.9391 9.61771 46.9187 8.75042 46.8778 7.87293C46.8574 6.99544 46.8268 6.17918 46.786 5.42413Z" fill="#1B92FF"/>
<path d="M13.6379 28.9938C13.0461 28.9938 12.4849 28.7897 11.9543 28.3816C11.4441 27.9735 11.1686 27.3715 11.1278 26.5756C11.1278 26.3307 11.1176 26.0348 11.0972 25.6879C11.0972 25.341 11.087 24.9635 11.0666 24.5553C11.0666 24.1472 11.0666 23.7187 11.0666 23.2697C11.0666 22.8208 11.0666 22.3718 11.0666 21.9229C9.57692 21.9025 8.12804 21.8718 6.71997 21.831C5.33232 21.7902 4.0773 21.7188 2.95493 21.6168C2.01622 21.5351 1.36321 21.3107 0.995884 20.9433C0.628563 20.5556 0.465309 20.0658 0.506122 19.4741C0.546936 18.8823 0.7408 18.4027 1.08771 18.0354C1.45504 17.6476 2.12846 17.4742 3.10798 17.515C4.76093 17.5762 6.47509 17.6272 8.25048 17.6681C10.0463 17.6885 11.8319 17.6987 13.6073 17.6987C15.403 17.6987 17.1784 17.6885 18.9334 17.6681C20.6884 17.6272 22.3617 17.566 23.9535 17.4844C24.9942 17.4436 25.7187 17.6374 26.1268 18.066C26.5553 18.4741 26.7696 18.9945 26.7696 19.6271C26.7696 20.2189 26.6063 20.6781 26.2798 21.0046C25.9737 21.3107 25.433 21.5045 24.6575 21.5862C23.7596 21.6882 22.5658 21.7698 21.0761 21.831C19.6068 21.8718 17.9947 21.9025 16.2397 21.9229C16.2193 22.5759 16.1989 23.2493 16.1785 23.9431C16.1785 24.6166 16.1785 25.2288 16.1785 25.7797C16.1785 26.3307 16.0969 26.8001 15.9336 27.1878C15.7908 27.5959 15.5969 27.9326 15.352 28.1979C15.1276 28.4632 14.8623 28.6571 14.5562 28.7795C14.2501 28.9224 13.944 28.9938 13.6379 28.9938ZM3.23042 11.5154C3.23042 10.74 3.23042 10.0972 3.23042 9.58699C3.23042 9.07682 3.23042 8.63807 3.23042 8.27075C3.25083 7.88302 3.26103 7.53611 3.26103 7.23001C3.28144 6.92391 3.31205 6.57699 3.35286 6.18926C3.41408 5.51584 3.62835 5.01588 3.99568 4.68937C4.363 4.34245 4.965 4.15879 5.80167 4.13838C7.0873 4.11798 8.40353 4.09757 9.75038 4.07716C11.1176 4.05676 12.4747 4.04655 13.8215 4.04655C15.1684 4.02615 16.4846 4.02615 17.7702 4.04655C19.0559 4.04655 20.2701 4.07716 21.4128 4.13838C22.2495 4.1792 22.8515 4.36286 23.2188 4.68937C23.5861 5.01588 23.8004 5.51584 23.8616 6.18926C23.882 6.57699 23.9025 6.92391 23.9229 7.23001C23.9433 7.53611 23.9535 7.88302 23.9535 8.27075C23.9739 8.63807 23.9841 9.07682 23.9841 9.58699C23.9841 10.0972 23.9841 10.74 23.9841 11.5154C23.9841 12.2501 23.9331 12.8725 23.831 13.3826C23.7494 13.8724 23.5657 14.2805 23.28 14.607C22.9944 14.9131 22.5862 15.1478 22.0556 15.3111C21.5251 15.4743 20.8108 15.5866 19.9129 15.6478C19.1375 15.6886 18.2294 15.7192 17.1886 15.7396C16.1479 15.76 15.0561 15.7702 13.9134 15.7702C12.7706 15.7702 11.6176 15.76 10.4544 15.7396C9.31163 15.7192 8.26068 15.6988 7.30157 15.6784C6.40367 15.658 5.68944 15.5662 5.15886 15.4029C4.62828 15.2397 4.22015 14.9948 3.93445 14.6683C3.64876 14.3214 3.4549 13.8928 3.35286 13.3826C3.27124 12.8725 3.23042 12.2501 3.23042 11.5154ZM7.85255 8.7299C7.83214 9.11763 7.82194 9.43393 7.82194 9.67882C7.84235 9.90329 7.86275 10.2094 7.88316 10.5971C7.92397 11.0257 8.0158 11.3114 8.15865 11.4542C8.3219 11.5971 8.63821 11.6787 9.10756 11.6991C9.69936 11.7195 10.383 11.7399 11.1584 11.7603C11.9543 11.7603 12.7604 11.7603 13.5766 11.7603C14.4133 11.7603 15.2296 11.7603 16.0255 11.7603C16.8213 11.7399 17.5151 11.7195 18.1069 11.6991C18.5763 11.6787 18.8824 11.5971 19.0252 11.4542C19.1885 11.3114 19.2905 11.0257 19.3313 10.5971C19.3517 10.2094 19.362 9.90329 19.362 9.67882C19.3824 9.43393 19.3824 9.11763 19.362 8.7299C19.3415 8.50543 19.2905 8.35238 19.2089 8.27075C19.1477 8.18912 18.9844 8.13811 18.7191 8.1177C18.1886 8.07689 17.4539 8.05648 16.5152 8.05648C15.5969 8.03607 14.6276 8.02587 13.6073 8.02587C12.6073 8.02587 11.638 8.03607 10.6993 8.05648C9.76058 8.07689 9.02594 8.09729 8.49536 8.1177C8.23007 8.13811 8.05662 8.18912 7.97499 8.27075C7.91377 8.35238 7.87296 8.50543 7.85255 8.7299Z" fill="#1B92FF"/>
</svg>
