<svg width="112" height="64" viewBox="0 0 112 64" fill="none" xmlns="http://www.w3.org/2000/svg">
<path d="M63.9444 32.8457C62.9539 32.8115 62.1342 32.709 61.4853 32.5383C60.8705 32.3333 60.3753 32.0601 59.9996 31.7186C59.6239 31.3429 59.3507 30.8818 59.1799 30.3353C59.0433 29.7547 58.9579 29.0716 58.9238 28.2861C58.9238 27.9787 58.9067 27.4835 58.8725 26.8004C58.8725 26.0831 58.8725 25.2976 58.8725 24.4437C58.8725 23.5557 58.8554 22.6336 58.8213 21.6773C58.8213 20.7209 58.8213 19.7988 58.8213 18.9108C58.8213 18.0228 58.8213 17.2372 58.8213 16.5541C58.8213 15.8711 58.8213 15.3587 58.8213 15.0172C58.8213 13.7535 59.1628 12.8143 59.8459 12.1995C60.5632 11.5506 61.4341 11.2261 62.4587 11.2261C63.5516 11.2261 64.4396 11.5506 65.1227 12.1995C65.84 12.8143 66.1986 13.7706 66.1986 15.0684V17.0664C66.8475 17.0664 67.616 17.0664 68.504 17.0664C69.392 17.0664 70.2971 17.0664 71.2192 17.0664C72.1414 17.0664 73.0465 17.0664 73.9345 17.0664C74.8225 17.0664 75.591 17.0664 76.2399 17.0664V14.761C76.2399 13.5656 76.5985 12.6776 77.3158 12.097C78.033 11.5164 78.921 11.2261 79.9798 11.2261C81.0044 11.2261 81.8753 11.4993 82.5926 12.0458C83.3098 12.5923 83.6684 13.429 83.6684 14.5561C83.6684 15.0001 83.6684 15.8711 83.6684 17.1689C83.7026 18.4326 83.7197 19.7988 83.7197 21.2674C83.7197 22.736 83.7197 24.1364 83.7197 25.4684C83.7197 26.7662 83.7026 27.6713 83.6684 28.1836C83.6343 28.9692 83.5318 29.6523 83.361 30.2329C83.1903 30.7793 82.9 31.2404 82.4901 31.6161C82.0803 31.9577 81.5167 32.2309 80.7995 32.4358C80.0822 32.6407 79.143 32.7603 77.9818 32.7944C77.0938 32.8627 76.052 32.914 74.8567 32.9481C73.6954 32.9481 72.4829 32.9652 71.2192 32.9994C69.9897 32.9994 68.7431 32.9994 67.4794 32.9994C66.2157 32.9652 65.0373 32.914 63.9444 32.8457ZM66.1986 25.7758C66.2327 26.3222 66.3352 26.6467 66.506 26.7491C66.6767 26.8516 67.0524 26.9199 67.6331 26.9541C68.726 26.9882 69.8872 27.0053 71.1168 27.0053C72.3463 27.0053 73.4563 26.9712 74.4468 26.9028C74.8225 26.8687 75.1299 26.8516 75.369 26.8516C75.608 26.8175 75.7959 26.7833 75.9325 26.7491C76.0691 26.6808 76.1545 26.5784 76.1887 26.4418C76.257 26.271 76.2911 26.049 76.2911 25.7758V22.6507C75.6422 22.6507 74.8737 22.6507 73.9857 22.6507C73.0977 22.6165 72.1756 22.5994 71.2192 22.5994C70.2971 22.5994 69.392 22.6165 68.504 22.6507C67.616 22.6507 66.8475 22.6507 66.1986 22.6507V25.7758ZM72.7049 44.1678C72.7049 42.6308 72.9782 41.2476 73.5246 40.018C74.1053 38.7885 74.8908 37.7468 75.8813 36.8929C76.9059 36.0391 78.1355 35.3901 79.5699 34.9461C81.0044 34.5021 82.5926 34.2801 84.3344 34.2801C85.9397 34.2801 87.4083 34.5021 88.7403 34.9461C90.1065 35.3901 91.2677 36.0391 92.224 36.8929C93.2145 37.7468 93.983 38.7885 94.5294 40.018C95.0759 41.2134 95.3491 42.5967 95.3491 44.1678C95.3491 45.5681 95.093 46.8659 94.5807 48.0613C94.1025 49.2567 93.3853 50.2984 92.429 51.1864C91.4726 52.0744 90.3114 52.7746 88.9452 53.2869C87.6132 53.7992 86.0763 54.0554 84.3344 54.0554C82.5926 54.0554 81.0044 53.7992 79.5699 53.2869C78.1696 52.7746 76.9571 52.0744 75.9325 51.1864C74.9079 50.2984 74.1053 49.2567 73.5246 48.0613C72.9782 46.8659 72.7049 45.5681 72.7049 44.1678ZM80.2872 44.0653C80.2872 45.0558 80.6458 45.8755 81.363 46.5244C82.0803 47.1392 83.0195 47.4466 84.1807 47.4466C85.3761 47.4466 86.3324 47.1392 87.0497 46.5244C87.8011 45.8755 88.1768 45.0558 88.1768 44.0653C88.1768 42.9724 87.8181 42.1356 87.1009 41.555C86.3837 40.9402 85.4103 40.6328 84.1807 40.6328C83.0195 40.6328 82.0803 40.9231 81.363 41.5037C80.6458 42.0502 80.2872 42.9041 80.2872 44.0653ZM90.7896 14.3C90.7213 12.8655 90.9945 11.7896 91.6093 11.0724C92.2582 10.321 93.2145 9.94531 94.4782 9.94531C95.6394 9.94531 96.5787 10.3039 97.2959 11.0212C98.0473 11.7043 98.4572 12.8655 98.5255 14.5049C98.5938 16.2467 98.6279 17.8008 98.6279 19.1669C98.6621 20.4989 98.6792 21.7626 98.6792 22.958C98.6792 24.1193 98.6621 25.2293 98.6279 26.2881C98.6279 27.3468 98.6109 28.4398 98.5767 29.5669C98.5084 31.2063 98.1498 32.5041 97.5008 33.4604C96.8519 34.4168 95.8785 34.8949 94.5807 34.8949C93.2828 34.8949 92.3265 34.5192 91.7117 33.7678C91.1311 32.9823 90.892 31.7186 90.9945 29.9767C91.0286 29.0887 91.0457 28.0129 91.0457 26.7491C91.0799 25.4854 91.0799 24.1534 91.0457 22.7531C91.0457 21.3186 91.0116 19.8671 90.9433 18.3985C90.9091 16.9298 90.8579 15.5637 90.7896 14.3Z" fill="#1B92FF"/>
<path d="M35.3095 53.7478C34.319 53.7478 33.3798 53.4062 32.4918 52.7232C31.6379 52.0401 31.1768 51.0325 31.1085 49.7005C31.1085 49.2907 31.0914 48.7954 31.0573 48.2148C31.0573 47.6342 31.0402 47.0023 31.0061 46.3193C31.0061 45.6362 31.0061 44.9189 31.0061 44.1676C31.0061 43.4162 31.0061 42.6648 31.0061 41.9134C28.5128 41.8792 26.0879 41.828 23.7312 41.7597C21.4087 41.6914 19.3083 41.5718 17.4298 41.4011C15.8587 41.2645 14.7658 40.8888 14.151 40.274C13.5362 39.6251 13.263 38.8054 13.3313 37.8149C13.3996 36.8244 13.7241 36.0218 14.3047 35.407C14.9195 34.7581 16.0465 34.4678 17.6859 34.5361C20.4524 34.6386 23.3214 34.7239 26.2928 34.7922C29.2984 34.8264 32.2868 34.8435 35.2582 34.8435C38.2638 34.8435 41.2352 34.8264 44.1725 34.7922C47.1097 34.7239 49.9104 34.6215 52.5744 34.4849C54.3163 34.4166 55.5287 34.741 56.2118 35.4583C56.929 36.1413 57.2877 37.0123 57.2877 38.071C57.2877 39.0615 57.0144 39.83 56.468 40.3764C55.9557 40.8888 55.0506 41.2132 53.7527 41.3498C52.2499 41.5206 50.2519 41.6572 47.7587 41.7597C45.2996 41.828 42.6014 41.8792 39.6641 41.9134C39.63 43.0063 39.5958 44.1334 39.5617 45.2946C39.5617 46.4217 39.5617 47.4464 39.5617 48.3685C39.5617 49.2907 39.4251 50.0762 39.1518 50.7252C38.9127 51.4082 38.5883 51.9718 38.1784 52.4158C37.8027 52.8598 37.3587 53.1843 36.8464 53.3892C36.3341 53.6283 35.8218 53.7478 35.3095 53.7478ZM17.8909 24.4948C17.8909 23.1969 17.8909 22.1211 17.8909 21.2672C17.8909 20.4134 17.8909 19.679 17.8909 19.0643C17.925 18.4153 17.9421 17.8347 17.9421 17.3224C17.9763 16.8101 18.0275 16.2295 18.0958 15.5805C18.1983 14.4535 18.5569 13.6167 19.1716 13.0702C19.7864 12.4896 20.794 12.1822 22.1943 12.1481C24.346 12.1139 26.5489 12.0797 28.8031 12.0456C31.0914 12.0114 33.3627 11.9944 35.6169 11.9944C37.871 11.9602 40.074 11.9602 42.2257 11.9944C44.3774 11.9944 46.4096 12.0456 48.3222 12.1481C49.7225 12.2164 50.7301 12.5238 51.3448 13.0702C51.9596 13.6167 52.3182 14.4535 52.4207 15.5805C52.4549 16.2295 52.489 16.8101 52.5232 17.3224C52.5573 17.8347 52.5744 18.4153 52.5744 19.0643C52.6085 19.679 52.6256 20.4134 52.6256 21.2672C52.6256 22.1211 52.6256 23.1969 52.6256 24.4948C52.6256 25.7243 52.5402 26.766 52.3695 27.6199C52.2329 28.4396 51.9255 29.1227 51.4473 29.6691C50.9692 30.1814 50.2861 30.5742 49.3981 30.8474C48.5101 31.1207 47.3147 31.3085 45.8119 31.411C44.514 31.4793 42.9942 31.5305 41.2523 31.5647C39.5104 31.5988 37.6832 31.6159 35.7706 31.6159C33.8579 31.6159 31.9282 31.5988 29.9814 31.5647C28.0688 31.5305 26.3099 31.4964 24.7046 31.4622C23.2018 31.4281 22.0064 31.2744 21.1184 31.0011C20.2304 30.7279 19.5473 30.3181 19.0692 29.7716C18.591 29.191 18.2666 28.4737 18.0958 27.6199C17.9592 26.766 17.8909 25.7243 17.8909 24.4948ZM25.6268 19.8327C25.5926 20.4817 25.5756 21.0111 25.5756 21.4209C25.6097 21.7966 25.6439 22.3089 25.678 22.9578C25.7463 23.6751 25.9 24.1532 26.1391 24.3923C26.4123 24.6314 26.9417 24.768 27.7273 24.8022C28.7177 24.8363 29.8619 24.8705 31.1597 24.9046C32.4918 24.9046 33.8409 24.9046 35.207 24.9046C36.6073 24.9046 37.9735 24.9046 39.3055 24.9046C40.6375 24.8705 41.7988 24.8363 42.7892 24.8022C43.5748 24.768 44.0871 24.6314 44.3262 24.3923C44.5994 24.1532 44.7702 23.6751 44.8385 22.9578C44.8726 22.3089 44.8897 21.7966 44.8897 21.4209C44.9239 21.0111 44.9239 20.4817 44.8897 19.8327C44.8556 19.457 44.7702 19.2009 44.6336 19.0643C44.5311 18.9277 44.2579 18.8423 43.8139 18.8081C42.9259 18.7398 41.6963 18.7057 40.1252 18.7057C38.5883 18.6715 36.966 18.6544 35.2582 18.6544C33.5847 18.6544 31.9624 18.6715 30.3913 18.7057C28.8202 18.7398 27.5906 18.774 26.7026 18.8081C26.2586 18.8423 25.9683 18.9277 25.8317 19.0643C25.7292 19.2009 25.6609 19.457 25.6268 19.8327Z" fill="#1B92FF"/>
</svg>
