<svg width="24" height="24" viewBox="0 0 24 24" fill="none" xmlns="http://www.w3.org/2000/svg">
<path d="M5 17L5.1241 16.7164C5.62107 15.5804 5.92107 14.3682 6.01124 13.1315L6.3682 8.2361C6.58341 5.28465 9.04071 3 12 3V3C14.9593 3 17.4166 5.28465 17.6318 8.2361L17.9888 13.1315C18.0789 14.3682 18.3789 15.5804 18.8759 16.7164L19 17" stroke="#ABABAB" stroke-width="1.5"/>
<path d="M6 14L5 17H19L18 14L17 6L15 4L12 3L9 4L7 6L6 14Z" fill="#ABABAB"/>
<path d="M5 17L19 17" stroke="#ABABAB" stroke-width="1.5" stroke-linecap="round"/>
<path d="M14 19C14 20.1046 13.1046 21 12 21C10.8954 21 10 20.1046 10 19" stroke="#ABABAB" stroke-width="1.5"/>
</svg>
