<svg width="36" height="36" viewBox="0 0 36 36" fill="none" xmlns="http://www.w3.org/2000/svg">
<path d="M7 26L7.15928 25.6525C7.9634 23.898 8.45024 22.015 8.59724 20.0907L9.12162 13.226C9.47615 8.58495 13.3454 5 18 5V5C22.6546 5 26.5239 8.58495 26.8784 13.226L27.4028 20.0907C27.5498 22.015 28.0366 23.898 28.8407 25.6525L29 26" stroke="#ABABAB" stroke-width="2"/>
<path d="M29 26H7L9 21L10 11L12.5 6.5L18 5L23 6.5L26 11L27 21L29 26Z" fill="#ABABAB"/>
<path d="M7 26L29 26" stroke="#ABABAB" stroke-width="2" stroke-linecap="round"/>
<path d="M21 29C21 30.6569 19.6569 32 18 32C16.3431 32 15 30.6569 15 29" stroke="#ABABAB" stroke-width="2"/>
</svg>
