<svg width="24" height="24" viewBox="0 0 24 24" fill="none" xmlns="http://www.w3.org/2000/svg">
<path d="M12.0286 19.3428C11.1038 20.2677 9.9895 20.7302 8.68586 20.7303C7.38222 20.7304 6.26802 20.268 5.34327 19.3433C4.41852 18.4185 3.95605 17.3042 3.95587 16.0003C3.95568 14.6964 4.41802 13.582 5.34288 12.6571L7.56675 10.4332C7.72327 10.2767 7.90743 10.1985 8.11924 10.1986C8.33104 10.1986 8.51523 10.2769 8.67183 10.4335C8.82841 10.5901 8.90664 10.7742 8.90652 10.9858C8.90641 11.1975 8.82809 11.3815 8.67157 11.5381L6.44685 13.7628C5.82889 14.3807 5.5199 15.1265 5.5199 16C5.5199 16.8735 5.82917 17.6195 6.4477 18.238C7.06624 18.8566 7.81225 19.1658 8.68575 19.1658C9.55925 19.1658 10.305 18.8568 10.923 18.2389L13.1477 16.0142C13.3042 15.8576 13.4883 15.7794 13.7001 15.7795C13.9119 15.7795 14.0961 15.8578 14.2527 16.0144C14.4093 16.171 14.4876 16.3551 14.4874 16.5668C14.4873 16.7784 14.409 16.9625 14.2525 17.119L12.0286 19.3428ZM10.683 15.1076C10.5264 15.2641 10.3423 15.3423 10.1305 15.3423C9.91868 15.3422 9.73448 15.2639 9.5779 15.1074C9.42131 14.9508 9.34307 14.7666 9.34319 14.555C9.3433 14.3434 9.42162 14.1593 9.57814 14.0028L13.9976 9.58336C14.1541 9.42683 14.3382 9.34859 14.55 9.34863C14.7618 9.34869 14.946 9.42701 15.1026 9.58359C15.2592 9.74019 15.3375 9.9243 15.3373 10.1359C15.3372 10.3476 15.2589 10.5317 15.1024 10.6882L10.683 15.1076ZM17.1138 14.2577C16.9572 14.4142 16.7731 14.4925 16.5613 14.4924C16.3495 14.4924 16.1653 14.414 16.0087 14.2574C15.8521 14.1009 15.7739 13.9167 15.774 13.7051C15.7741 13.4935 15.8524 13.3094 16.0089 13.1529L18.2337 10.9282C18.8516 10.3102 19.1606 9.56446 19.1606 8.69097C19.1606 7.81747 18.8513 7.07145 18.2328 6.45292C17.6143 5.83438 16.8683 5.52512 15.9948 5.52512C15.1213 5.52511 14.3755 5.8341 13.7576 6.45207L11.5328 8.67679C11.3763 8.83331 11.1922 8.91154 10.9804 8.91149C10.7686 8.91144 10.5844 8.83313 10.4278 8.67655C10.2712 8.51995 10.193 8.33583 10.1931 8.12419C10.1932 7.91256 10.2715 7.72849 10.428 7.57197L12.6519 5.3481C13.5768 4.42324 14.691 3.96076 15.9947 3.96068C17.2983 3.96059 18.4125 4.42292 19.3372 5.34767C20.262 6.27243 20.7245 7.38676 20.7246 8.69067C20.7248 9.99458 20.2625 11.109 19.3376 12.0338L17.1138 14.2577Z" fill="#ABABAB"/>
</svg>
