<svg width="36" height="36" viewBox="0 0 36 36" fill="none" xmlns="http://www.w3.org/2000/svg">
<path d="M18.0343 27.0114C16.9245 28.1213 15.5874 28.6762 14.023 28.6763C12.4587 28.6764 11.1216 28.1216 10.0119 27.0119C8.90222 25.9022 8.34726 24.565 8.34704 23.0003C8.34682 21.4356 8.90163 20.0984 10.0115 18.9885L12.6801 16.3199C12.8679 16.1321 13.0889 16.0382 13.3431 16.0383C13.5972 16.0383 13.8183 16.1323 14.0062 16.3202C14.1941 16.5081 14.288 16.729 14.2878 16.983C14.2877 17.237 14.1937 17.4579 14.0059 17.6457L11.3362 20.3153C10.5947 21.0569 10.2239 21.9518 10.2239 23C10.2239 24.0482 10.595 24.9434 11.3372 25.6856C12.0795 26.4279 12.9747 26.799 14.0229 26.799C15.0711 26.799 15.966 26.4282 16.7075 25.6867L19.3772 23.017C19.565 22.8292 19.786 22.7353 20.0402 22.7353C20.2943 22.7354 20.5154 22.8294 20.7033 23.0173C20.8912 23.2052 20.9851 23.4261 20.9849 23.6801C20.9848 23.9341 20.8908 24.1549 20.703 24.3428L18.0343 27.0114ZM16.4195 21.9291C16.2317 22.1169 16.0107 22.2108 15.7566 22.2108C15.5024 22.2107 15.2814 22.1167 15.0935 21.9288C14.9056 21.7409 14.8117 21.52 14.8118 21.266C14.812 21.012 14.9059 20.7912 15.0938 20.6033L20.3971 15.3C20.5849 15.1122 20.8059 15.0183 21.06 15.0184C21.3142 15.0184 21.5352 15.1124 21.7231 15.3003C21.9111 15.4882 22.0049 15.7092 22.0048 15.9631C22.0047 16.2171 21.9107 16.438 21.7229 16.6258L16.4195 21.9291ZM24.1365 20.9092C23.9487 21.0971 23.7277 21.1909 23.4735 21.1909C23.2194 21.1908 22.9983 21.0968 22.8104 20.9089C22.6225 20.721 22.5287 20.5001 22.5288 20.2461C22.5289 19.9922 22.6229 19.7713 22.8107 19.5835L25.4804 16.9138C26.222 16.1722 26.5927 15.2774 26.5927 14.2292C26.5927 13.181 26.2216 12.2857 25.4794 11.5435C24.7371 10.8013 23.8419 10.4301 22.7937 10.4301C21.7455 10.4301 20.8506 10.8009 20.1091 11.5425L17.4394 14.2121C17.2516 14.4 17.0306 14.4939 16.7765 14.4938C16.5223 14.4937 16.3012 14.3998 16.1133 14.2119C15.9254 14.0239 15.8316 13.803 15.8317 13.549C15.8318 13.2951 15.9258 13.0742 16.1136 12.8864L18.7823 10.2177C19.8921 9.10789 21.2292 8.55292 22.7936 8.55281C24.358 8.55271 25.695 9.10751 26.8047 10.2172C27.9144 11.3269 28.4694 12.6641 28.4696 14.2288C28.4698 15.7935 27.915 17.1308 26.8052 18.2406L24.1365 20.9092Z" fill="#ABABAB"/>
</svg>
