<svg width="20" height="20" viewBox="0 0 20 20" fill="none" xmlns="http://www.w3.org/2000/svg">
<path fill-rule="evenodd" clip-rule="evenodd" d="M10.125 2V5.60002L10.125 5.64477C10.1249 6.07759 10.1249 6.47442 10.1683 6.79723C10.2161 7.15271 10.3285 7.52844 10.6376 7.83746C10.9466 8.14648 11.3223 8.25893 11.6778 8.30672C12.0006 8.35012 12.3974 8.35008 12.8302 8.35003H12.8303L12.875 8.35002H16V13.2C16 15.4627 16 16.5941 15.341 17.2971C14.682 18 13.6213 18 11.5 18H8.5C6.37868 18 5.31802 18 4.65901 17.2971C4 16.5941 4 15.4627 4 13.2V6.8C4 4.53726 4 3.40589 4.65901 2.70294C5.31802 2 6.37868 2 8.5 2H10.125ZM11.625 2.00835V5.60002C11.625 6.09263 11.6266 6.38664 11.6549 6.59736C11.6679 6.69392 11.6832 6.74228 11.6922 6.76406C11.6942 6.7691 11.6959 6.77242 11.6969 6.77435L11.6982 6.77675L11.6979 6.77646C11.6978 6.77639 11.6979 6.77646 11.6981 6.77667L11.6982 6.77675L11.6982 6.77683L11.6984 6.77695C11.6987 6.77723 11.6987 6.77726 11.6982 6.7768L11.6982 6.77675L11.6982 6.77679L11.7007 6.77816C11.7026 6.77917 11.7059 6.78079 11.711 6.78286C11.7327 6.79183 11.7811 6.80712 11.8777 6.8201C12.0884 6.84843 12.3824 6.85002 12.875 6.85002H15.9976C15.9912 6.49242 15.9683 6.26284 15.8858 6.05045C15.7716 5.75642 15.5549 5.52519 15.1213 5.06275L15.1213 5.06275L15.1213 5.06274L13.1287 2.93726C12.6951 2.47481 12.4784 2.24359 12.2027 2.12179C12.0399 2.04985 11.8662 2.0204 11.625 2.00835ZM6.625 10.8C6.625 10.3858 6.96079 10.05 7.375 10.05H12.625C13.0392 10.05 13.375 10.3858 13.375 10.8C13.375 11.2142 13.0392 11.55 12.625 11.55H7.375C6.96079 11.55 6.625 11.2142 6.625 10.8ZM7.375 13.25C6.96079 13.25 6.625 13.5858 6.625 14C6.625 14.4142 6.96079 14.75 7.375 14.75H10.875C11.2892 14.75 11.625 14.4142 11.625 14C11.625 13.5858 11.2892 13.25 10.875 13.25H7.375Z" fill="#FF4F64"/>
</svg>
