<svg width="20" height="20" viewBox="0 0 20 20" fill="none" xmlns="http://www.w3.org/2000/svg">
<path d="M8.00721 5.38586C8.89387 3.79529 9.3372 3 10 3C10.6628 3 11.1061 3.79529 11.9928 5.38586L12.2222 5.79736C12.4741 6.24935 12.6001 6.47535 12.7965 6.62446C12.993 6.77358 13.2376 6.82893 13.7269 6.93963L14.1723 7.04042C15.8941 7.42999 16.755 7.62477 16.9598 8.28341C17.1646 8.94205 16.5777 9.62835 15.4039 11.0009L15.1003 11.3561C14.7667 11.7461 14.5999 11.9411 14.5249 12.1824C14.4499 12.4237 14.4751 12.6839 14.5255 13.2043L14.5714 13.6781C14.7489 15.5094 14.8376 16.4251 14.3014 16.8322C13.7652 17.2392 12.9591 16.8681 11.347 16.1258L10.93 15.9338C10.4719 15.7229 10.2428 15.6174 10 15.6174C9.7572 15.6174 9.52815 15.7229 9.07004 15.9338L8.65297 16.1258C7.04087 16.8681 6.23482 17.2392 5.6986 16.8322C5.16238 16.4251 5.25112 15.5094 5.42858 13.6781L5.47449 13.2043C5.52492 12.6839 5.55013 12.4237 5.4751 12.1824C5.40008 11.9411 5.2333 11.7461 4.89974 11.3561L4.59607 11.0009C3.42227 9.62835 2.83538 8.94205 3.04019 8.28341C3.24501 7.62477 4.1059 7.42999 5.82768 7.04042L6.27312 6.93963C6.7624 6.82893 7.00703 6.77358 7.20346 6.62446C7.39989 6.47535 7.52587 6.24935 7.77783 5.79736L8.00721 5.38586Z" fill="#DEDEDE"/>
</svg>
