<svg width="24" height="24" viewBox="0 0 24 24" fill="none" xmlns="http://www.w3.org/2000/svg">
<path d="M5 9.97989C5 13.4122 9.9 16.9874 9.9 16.9874C9.9 16.9874 11.3 18 12 18C12.7 18 14.1 16.9874 14.1 16.9874C14.1 16.9874 19 13.4122 19 9.97989C19 6.54755 15.15 4.16169 12 7.87442C8.85 4.16169 5 6.54755 5 9.97989Z" fill="white"/>
<path d="M9.9 16.9874L9.45793 17.5933L9.46047 17.5952L9.9 16.9874ZM12 7.87442L11.4281 8.35964C11.5706 8.5276 11.7797 8.62442 12 8.62442C12.2203 8.62442 12.4294 8.5276 12.5719 8.35964L12 7.87442ZM14.1 16.9874L14.5395 17.5952L14.5421 17.5933L14.1 16.9874ZM9.9 16.9874C10.3421 16.3816 10.3422 16.3817 10.3423 16.3817C10.3423 16.3817 10.3424 16.3818 10.3424 16.3818C10.3424 16.3818 10.3424 16.3818 10.3423 16.3817C10.342 16.3815 10.3415 16.3812 10.3407 16.3806C10.3391 16.3794 10.3363 16.3773 10.3324 16.3745C10.3247 16.3687 10.3125 16.3596 10.2961 16.3473C10.2634 16.3227 10.2141 16.2852 10.1506 16.2356C10.0236 16.1366 9.84003 15.9899 9.61891 15.8027C9.17556 15.4275 8.58665 14.8944 8.00029 14.2612C7.41186 13.6258 6.84049 12.905 6.41953 12.1555C5.99624 11.4019 5.75 10.6637 5.75 9.97989H4.25C4.25 11.0122 4.61626 12.008 5.11172 12.8901C5.60951 13.7764 6.26314 14.593 6.89971 15.2804C7.53835 15.97 8.17444 16.5453 8.64984 16.9477C8.8881 17.1493 9.08739 17.3087 9.2283 17.4186C9.29879 17.4735 9.35477 17.5162 9.39383 17.5456C9.41336 17.5603 9.42866 17.5717 9.43945 17.5797C9.44484 17.5837 9.4491 17.5868 9.45219 17.5891C9.45374 17.5902 9.455 17.5912 9.45595 17.5919C9.45643 17.5922 9.45684 17.5925 9.45717 17.5928C9.45733 17.5929 9.45753 17.593 9.45761 17.5931C9.45778 17.5932 9.45793 17.5933 9.9 16.9874ZM5.75 9.97989C5.75 8.53638 6.55706 7.37477 7.6056 6.94073C8.59699 6.53035 10.0154 6.69458 11.4281 8.35964L12.5719 7.38921C10.8346 5.34153 8.75301 4.84233 7.0319 5.55478C5.36794 6.24357 4.25 7.99106 4.25 9.97989H5.75ZM9.9 16.9874C9.46047 17.5952 9.46055 17.5952 9.46063 17.5953C9.46066 17.5953 9.46075 17.5954 9.46082 17.5954C9.46095 17.5955 9.46111 17.5956 9.46129 17.5957C9.46165 17.596 9.4621 17.5963 9.46263 17.5967C9.46369 17.5975 9.46509 17.5985 9.46683 17.5997C9.47029 17.6022 9.47508 17.6056 9.48113 17.6099C9.49324 17.6186 9.51041 17.6307 9.53212 17.6459C9.57552 17.6762 9.63728 17.7187 9.71325 17.7694C9.86447 17.8704 10.0754 18.0061 10.3119 18.1429C10.5461 18.2784 10.8183 18.4226 11.0901 18.5349C11.3441 18.6399 11.674 18.75 12 18.75V17.25C12.0007 17.25 11.9925 17.25 11.974 17.2472C11.9557 17.2444 11.931 17.2394 11.8996 17.2312C11.8355 17.2143 11.7563 17.1872 11.663 17.1487C11.4755 17.0711 11.2664 16.9622 11.0631 16.8446C10.8621 16.7282 10.6793 16.6108 10.5461 16.5219C10.4799 16.4777 10.4268 16.4411 10.3909 16.416C10.373 16.4035 10.3594 16.3939 10.3507 16.3877C10.3463 16.3846 10.3431 16.3823 10.3412 16.381C10.3403 16.3803 10.3397 16.3798 10.3394 16.3796C10.3393 16.3795 10.3392 16.3795 10.3392 16.3795C10.3392 16.3795 10.3393 16.3795 10.3393 16.3796C10.3393 16.3796 10.3394 16.3796 10.3394 16.3796C10.3395 16.3797 10.3395 16.3797 9.9 16.9874ZM14.1 16.9874C14.5421 17.5933 14.5422 17.5932 14.5424 17.5931C14.5425 17.593 14.5427 17.5929 14.5428 17.5928C14.5432 17.5925 14.5436 17.5922 14.544 17.5919C14.545 17.5912 14.5463 17.5902 14.5478 17.5891C14.5509 17.5868 14.5552 17.5837 14.5606 17.5797C14.5713 17.5717 14.5866 17.5603 14.6062 17.5456C14.6452 17.5162 14.7012 17.4735 14.7717 17.4186C14.9126 17.3087 15.1119 17.1493 15.3502 16.9477C15.8256 16.5453 16.4617 15.97 17.1003 15.2804C17.7369 14.593 18.3905 13.7764 18.8883 12.8901C19.3837 12.008 19.75 11.0122 19.75 9.97989H18.25C18.25 10.6637 18.0038 11.4019 17.5805 12.1555C17.1595 12.905 16.5881 13.6258 15.9997 14.2612C15.4133 14.8944 14.8244 15.4275 14.3811 15.8027C14.16 15.9899 13.9764 16.1366 13.8494 16.2356C13.7859 16.2852 13.7366 16.3227 13.7039 16.3473C13.6875 16.3596 13.6753 16.3687 13.6676 16.3745C13.6637 16.3773 13.6609 16.3794 13.6593 16.3806C13.6585 16.3812 13.658 16.3815 13.6577 16.3817C13.6576 16.3818 13.6576 16.3818 13.6576 16.3818C13.6576 16.3818 13.6577 16.3817 13.6577 16.3817C13.6578 16.3817 13.6579 16.3816 14.1 16.9874ZM19.75 9.97989C19.75 7.99106 18.6321 6.24357 16.9681 5.55478C15.247 4.84233 13.1654 5.34153 11.4281 7.38921L12.5719 8.35964C13.9846 6.69458 15.403 6.53035 16.3944 6.94073C17.4429 7.37477 18.25 8.53638 18.25 9.97989H19.75ZM14.1 16.9874C13.6605 16.3797 13.6605 16.3797 13.6606 16.3796C13.6606 16.3796 13.6607 16.3796 13.6607 16.3796C13.6607 16.3795 13.6608 16.3795 13.6608 16.3795C13.6608 16.3795 13.6607 16.3795 13.6606 16.3796C13.6603 16.3798 13.6597 16.3803 13.6588 16.381C13.6569 16.3823 13.6537 16.3846 13.6493 16.3877C13.6406 16.3939 13.627 16.4035 13.6091 16.416C13.5732 16.4411 13.5201 16.4777 13.4539 16.5219C13.3207 16.6108 13.1379 16.7282 12.9369 16.8446C12.7336 16.9622 12.5245 17.0711 12.337 17.1487C12.2437 17.1872 12.1645 17.2143 12.1004 17.2312C12.069 17.2394 12.0443 17.2444 12.026 17.2472C12.0075 17.25 11.9993 17.25 12 17.25V18.75C12.326 18.75 12.6559 18.6399 12.9099 18.5349C13.1817 18.4226 13.4539 18.2784 13.6881 18.1429C13.9246 18.0061 14.1355 17.8704 14.2867 17.7694C14.3627 17.7187 14.4245 17.6762 14.4679 17.6459C14.4896 17.6307 14.5068 17.6186 14.5189 17.6099C14.5249 17.6056 14.5297 17.6022 14.5332 17.5997C14.5349 17.5985 14.5363 17.5975 14.5374 17.5967C14.5379 17.5963 14.5383 17.596 14.5387 17.5957C14.5389 17.5956 14.539 17.5955 14.5392 17.5954C14.5393 17.5954 14.5393 17.5953 14.5394 17.5953C14.5395 17.5952 14.5395 17.5952 14.1 16.9874Z" fill="#DEDEDE"/>
</svg>
