<svg width="22" height="19" viewBox="0 0 22 19" fill="none" xmlns="http://www.w3.org/2000/svg">
<path d="M1 6.63817C1 11.5006 8 16.5655 8 16.5655C8 16.5655 10 18 11 18C12 18 14 16.5655 14 16.5655C14 16.5655 21 11.5006 21 6.63817C21 1.7757 15.5 -1.60427 11 3.65543C6.5 -1.60427 1 1.7757 1 6.63817Z" fill="white"/>
<path d="M8 16.5655L7.47241 17.2947L7.47546 17.2969L8 16.5655ZM11 3.65543L10.3161 4.24052C10.4871 4.44037 10.737 4.55543 11 4.55543C11.263 4.55543 11.5129 4.44037 11.6839 4.24052L11 3.65543ZM14 16.5655L14.5245 17.2969L14.5276 17.2947L14 16.5655ZM8 16.5655C8.52758 15.8364 8.52772 15.8365 8.52783 15.8366C8.52783 15.8366 8.52791 15.8366 8.52791 15.8366C8.52792 15.8366 8.52782 15.8366 8.52761 15.8364C8.5272 15.8361 8.52637 15.8355 8.52514 15.8346C8.52266 15.8328 8.51853 15.8298 8.51282 15.8256C8.50139 15.8172 8.4836 15.8041 8.45987 15.7863C8.4124 15.7509 8.34122 15.6972 8.24972 15.6264C8.06664 15.4849 7.80268 15.2756 7.48485 15.0088C6.84786 14.4742 6.00128 13.7143 5.15779 12.811C4.31177 11.905 3.48654 10.8735 2.87686 9.79712C2.26428 8.71561 1.9 7.64291 1.9 6.63817H0.1C0.1 8.06467 0.610719 9.44851 1.31064 10.6842C2.01346 11.9251 2.93823 13.0715 3.84221 14.0395C4.74872 15.0103 5.65214 15.8206 6.32765 16.3875C6.66607 16.6716 6.94899 16.896 7.14872 17.0504C7.24862 17.1277 7.32783 17.1875 7.38291 17.2286C7.41045 17.2492 7.43196 17.2651 7.44702 17.2761C7.45455 17.2817 7.46047 17.286 7.46472 17.2891C7.46684 17.2906 7.46855 17.2919 7.46984 17.2928C7.47048 17.2933 7.47102 17.2937 7.47145 17.294C7.47166 17.2941 7.47191 17.2943 7.47201 17.2944C7.47223 17.2946 7.47242 17.2947 8 16.5655ZM1.9 6.63817C1.9 4.53852 3.08441 2.82799 4.65427 2.18357C6.15798 1.5663 8.26226 1.8399 10.3161 4.24052L11.6839 3.07034C9.23774 0.211258 6.34202 -0.455006 3.97073 0.518404C1.66559 1.46466 0.1 3.87535 0.1 6.63817H1.9ZM8 16.5655C7.47546 17.2969 7.47555 17.297 7.47565 17.297C7.4757 17.2971 7.47581 17.2971 7.47589 17.2972C7.47607 17.2973 7.47627 17.2975 7.47651 17.2976C7.47698 17.298 7.47757 17.2984 7.47829 17.2989C7.47972 17.2999 7.48163 17.3013 7.48401 17.303C7.48878 17.3064 7.49544 17.3111 7.50389 17.3171C7.5208 17.329 7.54492 17.3459 7.57551 17.3671C7.63664 17.4094 7.72389 17.469 7.83129 17.5401C8.04525 17.6818 8.34336 17.8719 8.67709 18.0634C9.00815 18.2534 9.38962 18.4535 9.76807 18.6086C10.1254 18.7551 10.5702 18.9 11 18.9V17.1C10.9298 17.1 10.7496 17.0656 10.4507 16.9431C10.1729 16.8292 9.86685 16.6708 9.57291 16.5021C9.28164 16.335 9.01725 16.1665 8.82496 16.0392C8.72924 15.9759 8.65242 15.9234 8.60027 15.8873C8.57422 15.8692 8.5544 15.8553 8.54152 15.8462C8.53508 15.8417 8.53039 15.8384 8.52752 15.8363C8.52609 15.8353 8.52512 15.8346 8.52462 15.8343C8.52437 15.8341 8.52424 15.834 8.52422 15.834C8.52421 15.834 8.52424 15.834 8.52429 15.834C8.52432 15.834 8.52438 15.8341 8.52439 15.8341C8.52446 15.8341 8.52454 15.8342 8 16.5655ZM14 16.5655C14.5276 17.2947 14.5278 17.2946 14.528 17.2944C14.5281 17.2943 14.5283 17.2941 14.5286 17.294C14.529 17.2937 14.5295 17.2933 14.5302 17.2928C14.5314 17.2919 14.5332 17.2906 14.5353 17.2891C14.5395 17.286 14.5455 17.2817 14.553 17.2761C14.568 17.2651 14.5896 17.2492 14.6171 17.2286C14.6722 17.1875 14.7514 17.1277 14.8513 17.0504C15.051 16.896 15.3339 16.6716 15.6724 16.3875C16.3479 15.8206 17.2513 15.0103 18.1578 14.0395C19.0618 13.0715 19.9865 11.9251 20.6894 10.6842C21.3893 9.44851 21.9 8.06467 21.9 6.63817H20.1C20.1 7.64291 19.7357 8.71561 19.1231 9.79712C18.5135 10.8735 17.6882 11.905 16.8422 12.811C15.9987 13.7143 15.1521 14.4742 14.5151 15.0088C14.1973 15.2756 13.9334 15.4849 13.7503 15.6264C13.6588 15.6972 13.5876 15.7509 13.5401 15.7863C13.5164 15.8041 13.4986 15.8172 13.4872 15.8256C13.4815 15.8298 13.4773 15.8328 13.4749 15.8346C13.4736 15.8355 13.4728 15.8361 13.4724 15.8364C13.4722 15.8366 13.4721 15.8366 13.4721 15.8366C13.4721 15.8366 13.4722 15.8366 13.4722 15.8366C13.4723 15.8365 13.4724 15.8364 14 16.5655ZM21.9 6.63817C21.9 3.87535 20.3344 1.46466 18.0293 0.518404C15.658 -0.455006 12.7623 0.211258 10.3161 3.07034L11.6839 4.24052C13.7377 1.8399 15.842 1.5663 17.3457 2.18357C18.9156 2.82799 20.1 4.53852 20.1 6.63817H21.9ZM14 16.5655C13.4755 15.8342 13.4755 15.8341 13.4756 15.8341C13.4756 15.8341 13.4757 15.834 13.4757 15.834C13.4758 15.834 13.4758 15.834 13.4758 15.834C13.4758 15.834 13.4756 15.8341 13.4754 15.8343C13.4749 15.8346 13.4739 15.8353 13.4725 15.8363C13.4696 15.8384 13.4649 15.8417 13.4585 15.8462C13.4456 15.8553 13.4258 15.8692 13.3997 15.8873C13.3476 15.9234 13.2708 15.9759 13.175 16.0392C12.9827 16.1665 12.7184 16.335 12.4271 16.5021C12.1331 16.6708 11.8271 16.8292 11.5493 16.9431C11.2504 17.0656 11.0702 17.1 11 17.1V18.9C11.4298 18.9 11.8746 18.7551 12.2319 18.6086C12.6104 18.4535 12.9919 18.2534 13.3229 18.0634C13.6566 17.8719 13.9548 17.6818 14.1687 17.5401C14.2761 17.469 14.3634 17.4094 14.4245 17.3671C14.4551 17.3459 14.4792 17.329 14.4961 17.3171C14.5046 17.3111 14.5112 17.3064 14.516 17.303C14.5184 17.3013 14.5203 17.2999 14.5217 17.2989C14.5224 17.2984 14.523 17.298 14.5235 17.2976C14.5237 17.2975 14.5239 17.2973 14.5241 17.2972C14.5242 17.2971 14.5243 17.2971 14.5243 17.297C14.5244 17.297 14.5245 17.2969 14 16.5655Z" fill="#FF4F64"/>
</svg>
