<svg width="16" height="14" viewBox="0 0 16 14" fill="none" xmlns="http://www.w3.org/2000/svg">
<path d="M1 4.97989C1 8.41222 5.9 11.9874 5.9 11.9874C5.9 11.9874 7.3 13 8 13C8.7 13 10.3333 11.875 10.3333 11.875C10.3333 11.875 15 8.41222 15 4.97989C15 1.54755 11.15 -0.838304 8 2.87442C4.85 -0.838304 1 1.54755 1 4.97989Z" fill="#242945"/>
<path d="M5.9 11.9874L5.45793 12.5933L5.46047 12.5952L5.9 11.9874ZM8 2.87442L7.4281 3.35964C7.57061 3.5276 7.77974 3.62442 8 3.62442C8.22027 3.62442 8.4294 3.5276 8.5719 3.35964L8 2.87442ZM10.3333 11.875L10.7588 12.4927L10.7696 12.4852L10.7803 12.4773L10.3333 11.875ZM5.9 11.9874C6.34206 11.3816 6.34218 11.3817 6.34228 11.3817C6.34229 11.3817 6.34237 11.3818 6.34238 11.3818C6.34242 11.3818 6.34238 11.3818 6.34226 11.3817C6.34203 11.3815 6.34151 11.3812 6.3407 11.3806C6.33909 11.3794 6.33632 11.3773 6.33244 11.3745C6.32468 11.3687 6.31247 11.3596 6.29611 11.3473C6.26339 11.3227 6.2141 11.2852 6.15061 11.2356C6.02355 11.1366 5.84003 10.9899 5.61891 10.8027C5.17556 10.4275 4.58665 9.8944 4.00029 9.2612C3.41186 8.62577 2.84049 7.905 2.41953 7.15554C1.99624 6.40193 1.75 5.66371 1.75 4.97989H0.25C0.25 6.01223 0.61626 7.00804 1.11172 7.89013C1.60951 8.77637 2.26314 9.59297 2.89971 10.2804C3.53835 10.97 4.17444 11.5453 4.64984 11.9477C4.8881 12.1493 5.08739 12.3087 5.2283 12.4186C5.29879 12.4735 5.35477 12.5162 5.39383 12.5456C5.41336 12.5603 5.42866 12.5717 5.43945 12.5797C5.44484 12.5837 5.4491 12.5868 5.45219 12.5891C5.45374 12.5902 5.455 12.5912 5.45595 12.5919C5.45643 12.5922 5.45684 12.5925 5.45717 12.5928C5.45733 12.5929 5.45753 12.593 5.45761 12.5931C5.45778 12.5932 5.45793 12.5933 5.9 11.9874ZM1.75 4.97989C1.75 3.53638 2.55706 2.37478 3.6056 1.94073C4.59699 1.53035 6.01541 1.69458 7.4281 3.35964L8.5719 2.38921C6.83459 0.341538 4.75301 -0.157666 3.0319 0.554782C1.36794 1.24357 0.25 2.99106 0.25 4.97989H1.75ZM5.9 11.9874C5.46047 12.5952 5.46055 12.5952 5.46063 12.5953C5.46066 12.5953 5.46075 12.5954 5.46082 12.5954C5.46095 12.5955 5.46111 12.5956 5.46129 12.5957C5.46165 12.596 5.4621 12.5963 5.46263 12.5967C5.46369 12.5975 5.46509 12.5985 5.46683 12.5997C5.47029 12.6022 5.47508 12.6056 5.48113 12.6099C5.49324 12.6186 5.51041 12.6307 5.53212 12.6459C5.57552 12.6762 5.63728 12.7187 5.71325 12.7694C5.86447 12.8704 6.07541 13.0061 6.31189 13.1429C6.54612 13.2784 6.81829 13.4226 7.0901 13.5349C7.34408 13.6399 7.67395 13.75 8 13.75V12.25C8.00067 12.25 7.99247 12.25 7.97396 12.2472C7.95571 12.2444 7.93104 12.2394 7.89955 12.2312C7.83551 12.2143 7.75626 12.1872 7.66303 12.1487C7.47546 12.0711 7.26638 11.9622 7.06311 11.8446C6.86209 11.7282 6.67928 11.6108 6.54612 11.5219C6.4799 11.4777 6.42683 11.4411 6.39092 11.416C6.37299 11.4035 6.3594 11.3939 6.35065 11.3877C6.34628 11.3846 6.34313 11.3823 6.34125 11.381C6.34031 11.3803 6.33969 11.3798 6.3394 11.3796C6.33926 11.3795 6.3392 11.3795 6.33922 11.3795C6.33923 11.3795 6.33926 11.3795 6.33931 11.3796C6.33934 11.3796 6.33939 11.3796 6.3394 11.3796C6.33946 11.3797 6.33953 11.3797 5.9 11.9874ZM10.3333 11.875C10.7803 12.4773 10.7804 12.4772 10.7806 12.4771C10.7807 12.477 10.7809 12.4768 10.781 12.4767C10.7814 12.4765 10.7818 12.4762 10.7822 12.4758C10.7832 12.4751 10.7844 12.4742 10.7859 12.4731C10.7889 12.4708 10.793 12.4678 10.7982 12.4638C10.8086 12.456 10.8233 12.4449 10.842 12.4305C10.8795 12.4018 10.933 12.3603 11.0004 12.3067C11.1352 12.1997 11.3255 12.0444 11.553 11.8477C12.007 11.4552 12.6142 10.8932 13.2238 10.2166C14.406 8.90469 15.75 6.99676 15.75 4.97989H14.25C14.25 6.39535 13.2607 7.93498 12.1095 9.21251C11.5525 9.83069 10.993 10.3489 10.572 10.713C10.362 10.8945 10.1878 11.0366 10.0673 11.1323C10.0071 11.1801 9.96039 11.2163 9.92947 11.24C9.91401 11.2519 9.9025 11.2606 9.89523 11.2661C9.8916 11.2688 9.88902 11.2708 9.88754 11.2719C9.8868 11.2724 9.88633 11.2728 9.88614 11.2729C9.88605 11.273 9.88602 11.273 9.88607 11.273C9.88609 11.2729 9.88618 11.2729 9.88619 11.2729C9.88629 11.2728 9.88641 11.2727 10.3333 11.875ZM15.75 4.97989C15.75 2.99106 14.6321 1.24357 12.9681 0.554782C11.247 -0.157666 9.16541 0.341538 7.4281 2.38921L8.5719 3.35964C9.98459 1.69458 11.403 1.53035 12.3944 1.94073C13.4429 2.37478 14.25 3.53638 14.25 4.97989H15.75ZM10.3333 11.875C9.9079 11.2573 9.90796 11.2573 9.908 11.2573C9.90801 11.2573 9.90805 11.2572 9.90807 11.2572C9.9081 11.2572 9.90811 11.2572 9.90809 11.2572C9.90806 11.2572 9.90792 11.2573 9.9077 11.2575C9.90724 11.2578 9.9064 11.2584 9.90518 11.2592C9.90275 11.2609 9.89882 11.2635 9.89348 11.2672C9.88279 11.2744 9.86644 11.2855 9.84505 11.2998C9.80224 11.3284 9.73945 11.3699 9.66162 11.4199C9.50529 11.5204 9.29155 11.6533 9.05913 11.7851C8.82436 11.9183 8.58322 12.0431 8.36991 12.1325C8.26361 12.1771 8.17379 12.2088 8.10203 12.2286C8.0257 12.2496 7.99519 12.25 8 12.25V13.75C8.33373 13.75 8.68417 13.6273 8.94988 13.5159C9.2397 13.3944 9.53814 13.2379 9.7992 13.0899C10.0626 12.9404 10.301 12.7921 10.4728 12.6817C10.559 12.6262 10.6293 12.5798 10.6785 12.5469C10.7032 12.5304 10.7226 12.5173 10.7362 12.5081C10.7429 12.5035 10.7483 12.4998 10.7521 12.4973C10.754 12.496 10.7555 12.4949 10.7566 12.4942C10.7572 12.4938 10.7576 12.4935 10.758 12.4932C10.7582 12.4931 10.7583 12.493 10.7584 12.4929C10.7585 12.4928 10.7586 12.4928 10.7586 12.4928C10.7587 12.4927 10.7588 12.4927 10.3333 11.875Z" fill="#242945"/>
</svg>
