<svg width="24" height="24" viewBox="0 0 24 24" fill="none" xmlns="http://www.w3.org/2000/svg">
<rect x="2" y="2" width="20" height="20" rx="4" fill="#F7F7F7"/>
<mask id="path-2-inside-1_1_3791" fill="white">
<path fill-rule="evenodd" clip-rule="evenodd" d="M9.85462 9.75C9.55793 10.483 8.83934 11 8 11C6.89543 11 6 10.1046 6 9C6 7.89543 6.89543 7 8 7C8.83934 7 9.55793 7.51704 9.85462 8.25L17 8.25C17.4142 8.25 17.75 8.58579 17.75 9C17.75 9.41421 17.4142 9.75 17 9.75L9.85462 9.75Z"/>
</mask>
<path fill-rule="evenodd" clip-rule="evenodd" d="M9.85462 9.75C9.55793 10.483 8.83934 11 8 11C6.89543 11 6 10.1046 6 9C6 7.89543 6.89543 7 8 7C8.83934 7 9.55793 7.51704 9.85462 8.25L17 8.25C17.4142 8.25 17.75 8.58579 17.75 9C17.75 9.41421 17.4142 9.75 17 9.75L9.85462 9.75Z" fill="#DEDEDE"/>
<path d="M9.85462 9.75V8.75H9.18059L8.92768 9.37479L9.85462 9.75ZM9.85462 8.25L8.92768 8.62521L9.18059 9.25H9.85462V8.25ZM17 8.25V9.25V8.25ZM17 9.75V10.75V9.75ZM8.92768 9.37479C8.77859 9.74311 8.4181 10 8 10V12C9.26059 12 10.3373 11.2228 10.7816 10.1252L8.92768 9.37479ZM8 10C7.44772 10 7 9.55228 7 9H5C5 10.6569 6.34315 12 8 12V10ZM7 9C7 8.44772 7.44772 8 8 8V6C6.34315 6 5 7.34315 5 9H7ZM8 8C8.4181 8 8.77859 8.25689 8.92768 8.62521L10.7816 7.87479C10.3373 6.77719 9.26059 6 8 6V8ZM9.85462 9.25L17 9.25V7.25L9.85462 7.25V9.25ZM17 9.25C16.8619 9.25 16.75 9.13807 16.75 9H18.75C18.75 8.0335 17.9665 7.25 17 7.25V9.25ZM16.75 9C16.75 8.86193 16.8619 8.75 17 8.75V10.75C17.9665 10.75 18.75 9.9665 18.75 9H16.75ZM17 8.75L9.85462 8.75V10.75L17 10.75V8.75Z" fill="#DEDEDE" mask="url(#path-2-inside-1_1_3791)"/>
<mask id="path-4-inside-2_1_3791" fill="white">
<path fill-rule="evenodd" clip-rule="evenodd" d="M16 17C17.1046 17 18 16.1046 18 15C18 13.8954 17.1046 13 16 13C15.1607 13 14.4421 13.517 14.1454 14.25L7 14.25C6.58579 14.25 6.25 14.5858 6.25 15C6.25 15.4142 6.58579 15.75 7 15.75L14.1454 15.75C14.4421 16.483 15.1607 17 16 17Z"/>
</mask>
<path fill-rule="evenodd" clip-rule="evenodd" d="M16 17C17.1046 17 18 16.1046 18 15C18 13.8954 17.1046 13 16 13C15.1607 13 14.4421 13.517 14.1454 14.25L7 14.25C6.58579 14.25 6.25 14.5858 6.25 15C6.25 15.4142 6.58579 15.75 7 15.75L14.1454 15.75C14.4421 16.483 15.1607 17 16 17Z" fill="#DEDEDE"/>
<path d="M14.1454 14.25V15.25H14.8194L15.0723 14.6252L14.1454 14.25ZM7 14.25V15.25H7L7 14.25ZM7 15.75V16.75H7L7 15.75ZM14.1454 15.75L15.0723 15.3748L14.8194 14.75H14.1454V15.75ZM17 15C17 15.5523 16.5523 16 16 16V18C17.6569 18 19 16.6569 19 15H17ZM16 14C16.5523 14 17 14.4477 17 15H19C19 13.3431 17.6569 12 16 12V14ZM15.0723 14.6252C15.2214 14.2569 15.5819 14 16 14V12C14.7394 12 13.6627 12.7772 13.2184 13.8748L15.0723 14.6252ZM7 15.25L14.1454 15.25V13.25L7 13.25L7 15.25ZM7.25 15C7.25 15.1381 7.13807 15.25 7 15.25V13.25C6.0335 13.25 5.25 14.0335 5.25 15H7.25ZM7 14.75C7.13807 14.75 7.25 14.8619 7.25 15H5.25C5.25 15.9665 6.0335 16.75 7 16.75V14.75ZM14.1454 14.75L7 14.75L7 16.75L14.1454 16.75V14.75ZM16 16C15.5819 16 15.2214 15.7431 15.0723 15.3748L13.2184 16.1252C13.6627 17.2228 14.7394 18 16 18V16Z" fill="#DEDEDE" mask="url(#path-4-inside-2_1_3791)"/>
</svg>
