<svg width="30" height="30" viewBox="0 0 30 30" fill="none" xmlns="http://www.w3.org/2000/svg">
<rect x="3" y="3" width="24" height="24" rx="4" fill="#F7F7F7"/>
<mask id="path-2-inside-1_1_3799" fill="white">
<path fill-rule="evenodd" clip-rule="evenodd" d="M12.8293 12C12.4175 13.1652 11.3062 14 10 14C8.34315 14 7 12.6569 7 11C7 9.34315 8.34315 8 10 8C11.3062 8 12.4175 8.83481 12.8293 10L22 10C22.5523 10 23 10.4477 23 11C23 11.5523 22.5523 12 22 12L12.8293 12Z"/>
</mask>
<path fill-rule="evenodd" clip-rule="evenodd" d="M12.8293 12C12.4175 13.1652 11.3062 14 10 14C8.34315 14 7 12.6569 7 11C7 9.34315 8.34315 8 10 8C11.3062 8 12.4175 8.83481 12.8293 10L22 10C22.5523 10 23 10.4477 23 11C23 11.5523 22.5523 12 22 12L12.8293 12Z" fill="#DEDEDE"/>
<path d="M12.8293 12V11H12.1221L11.8865 11.6668L12.8293 12ZM12.8293 10L11.8865 10.3332L12.1221 11H12.8293V10ZM22 10V9V10ZM22 12V13V12ZM11.8865 11.6668C11.6114 12.4449 10.8693 13 10 13V15C11.7432 15 13.2235 13.8855 13.7721 12.3332L11.8865 11.6668ZM10 13C8.89543 13 8 12.1046 8 11H6C6 13.2091 7.79086 15 10 15V13ZM8 11C8 9.89543 8.89543 9 10 9V7C7.79086 7 6 8.79086 6 11H8ZM10 9C10.8693 9 11.6114 9.5551 11.8865 10.3332L13.7721 9.66675C13.2235 8.11451 11.7432 7 10 7V9ZM12.8293 11L22 11V9L12.8293 9V11ZM22 11V11H24C24 9.89543 23.1046 9 22 9V11ZM22 11V11V13C23.1046 13 24 12.1046 24 11H22ZM22 11L12.8293 11V13L22 13V11Z" fill="#DEDEDE" mask="url(#path-2-inside-1_1_3799)"/>
<mask id="path-4-inside-2_1_3799" fill="white">
<path fill-rule="evenodd" clip-rule="evenodd" d="M20 22C21.6569 22 23 20.6569 23 19C23 17.3431 21.6569 16 20 16C18.6938 16 17.5825 16.8348 17.1707 18L8 18C7.44772 18 7 18.4477 7 19C7 19.5523 7.44772 20 8 20L17.1707 20C17.5825 21.1652 18.6938 22 20 22Z"/>
</mask>
<path fill-rule="evenodd" clip-rule="evenodd" d="M20 22C21.6569 22 23 20.6569 23 19C23 17.3431 21.6569 16 20 16C18.6938 16 17.5825 16.8348 17.1707 18L8 18C7.44772 18 7 18.4477 7 19C7 19.5523 7.44772 20 8 20L17.1707 20C17.5825 21.1652 18.6938 22 20 22Z" fill="#DEDEDE"/>
<path d="M17.1707 18V19H17.8779L18.1135 18.3332L17.1707 18ZM8 18L8 17H8V18ZM8 20L8 19H8V20ZM17.1707 20L18.1135 19.6668L17.8779 19H17.1707V20ZM22 19C22 20.1046 21.1046 21 20 21V23C22.2091 23 24 21.2091 24 19H22ZM20 17C21.1046 17 22 17.8954 22 19H24C24 16.7909 22.2091 15 20 15V17ZM18.1135 18.3332C18.3886 17.5551 19.1307 17 20 17V15C18.2568 15 16.7765 16.1145 16.2279 17.6668L18.1135 18.3332ZM8 19L17.1707 19V17L8 17L8 19ZM8 19H8V17C6.89543 17 6 17.8954 6 19H8ZM8 19H8H6C6 20.1046 6.89543 21 8 21V19ZM17.1707 19L8 19L8 21L17.1707 21V19ZM20 21C19.1307 21 18.3886 20.4449 18.1135 19.6668L16.2279 20.3332C16.7765 21.8855 18.2568 23 20 23V21Z" fill="#DEDEDE" mask="url(#path-4-inside-2_1_3799)"/>
</svg>
