<svg width="18" height="19" viewBox="0 0 18 19" fill="none" xmlns="http://www.w3.org/2000/svg">
<path d="M0 8.56578C0 7.99143 0 7.70425 0.0740273 7.43978C0.139601 7.20552 0.247366 6.98518 0.392027 6.78959C0.555337 6.56879 0.782021 6.39248 1.23539 6.03986L8.0177 0.764731C8.36902 0.491478 8.54468 0.354852 8.73865 0.302333C8.9098 0.255993 9.0902 0.255993 9.26135 0.302333C9.45532 0.354852 9.63098 0.491478 9.98231 0.764732L16.7646 6.03986C17.218 6.39248 17.4447 6.56879 17.608 6.78959C17.7526 6.98518 17.8604 7.20552 17.926 7.43978C18 7.70425 18 7.99143 18 8.56578V15.8007C18 16.9208 18 17.4809 17.782 17.9087C17.5903 18.285 17.2843 18.591 16.908 18.7827C16.4802 19.0007 15.9201 19.0007 14.8 19.0007H3.2C2.0799 19.0007 1.51984 19.0007 1.09202 18.7827C0.715695 18.591 0.409734 18.285 0.217987 17.9087C0 17.4809 0 16.9208 0 15.8007V8.56578Z" fill="#1B92FF"/>
</svg>
