<svg width="160" height="160" viewBox="0 0 160 160" fill="none" xmlns="http://www.w3.org/2000/svg">
<rect width="160" height="160" rx="6" fill="#F6F6F6"/>
<path fill-rule="evenodd" clip-rule="evenodd" d="M86.6668 71.2507C85.5162 71.2507 84.5835 72.1834 84.5835 73.334C84.5835 74.4846 85.5162 75.4173 86.6668 75.4173C87.8174 75.4173 88.7502 74.4846 88.7502 73.334C88.7502 72.1834 87.8174 71.2507 86.6668 71.2507ZM82.0835 73.334C82.0835 70.8027 84.1355 68.7507 86.6668 68.7507C89.1981 68.7507 91.2502 70.8027 91.2502 73.334C91.2502 75.8653 89.1981 77.9173 86.6668 77.9173C84.1355 77.9173 82.0835 75.8653 82.0835 73.334Z" fill="#BBBBBB"/>
<path fill-rule="evenodd" clip-rule="evenodd" d="M79.9045 62.084H80.0958C83.9431 62.084 86.9582 62.0839 89.3107 62.4002C91.7185 62.724 93.6186 63.3995 95.1099 64.8909C96.6013 66.3822 97.2769 68.2823 97.6006 70.6902C97.9169 73.0426 97.9169 76.0577 97.9168 79.905V80.0963C97.9169 83.9436 97.9169 86.9587 97.6006 89.3111C97.2769 91.719 96.6013 93.6191 95.1099 95.1104C93.6186 96.6018 91.7185 97.2773 89.3107 97.6011C86.9582 97.9174 83.9431 97.9173 80.0958 97.9173H79.9045C76.0572 97.9173 73.0422 97.9174 70.6897 97.6011C68.2818 97.2773 66.3817 96.6018 64.8904 95.1104C63.399 93.6191 62.7235 91.719 62.3997 89.3111C62.0835 86.9587 62.0835 83.9436 62.0835 80.0963V79.905C62.0835 76.0577 62.0835 73.0426 62.3997 70.6902C62.7235 68.2823 63.399 66.3822 64.8904 64.8909C66.3817 63.3995 68.2818 62.724 70.6897 62.4002C73.0421 62.0839 76.0572 62.084 79.9045 62.084ZM66.6582 93.3427C65.7087 92.3932 65.1639 91.1087 64.8774 88.978C64.6217 87.0754 64.5884 84.6482 64.5841 81.4009L67.0759 79.2206C68.0995 78.325 69.6421 78.3763 70.6038 79.338L77.7533 86.4876C79.3282 88.0625 81.8073 88.2772 83.6296 86.9966L84.1266 86.6473C85.5569 85.6421 87.492 85.7586 88.7914 86.928L94.164 91.7633C94.2224 91.816 94.2845 91.862 94.3493 91.9016C94.0799 92.4698 93.748 92.9368 93.3422 93.3427C92.3927 94.2921 91.1082 94.8369 88.9775 95.1234C86.8109 95.4147 83.9639 95.4173 80.0002 95.4173C76.0365 95.4173 73.1894 95.4147 71.0228 95.1234C68.8921 94.8369 67.6076 94.2921 66.6582 93.3427ZM71.0228 64.8779C68.8921 65.1644 67.6076 65.7092 66.6582 66.6586C65.7087 67.6081 65.1639 68.8926 64.8774 71.0233C64.6356 72.8224 64.5927 75.0908 64.5851 78.0781L65.4297 77.3391C67.4437 75.5768 70.4792 75.6779 72.3715 77.5703L79.5211 84.7198C80.2369 85.4357 81.3638 85.5333 82.1921 84.9512L82.6891 84.6019C85.0729 82.9266 88.2981 83.1207 90.4638 85.0698L95.0871 89.2307C95.0994 89.1478 95.1114 89.0636 95.1229 88.978C95.4142 86.8114 95.4168 83.9644 95.4168 80.0007C95.4168 76.0369 95.4142 73.1899 95.1229 71.0233C94.8364 68.8926 94.2916 67.6081 93.3422 66.6586C92.3927 65.7092 91.1082 65.1644 88.9775 64.8779C86.8109 64.5866 83.9639 64.584 80.0002 64.584C76.0365 64.584 73.1894 64.5866 71.0228 64.8779Z" fill="#BBBBBB"/>
</svg>
