<svg width="100" height="100" viewBox="0 0 100 100" fill="none" xmlns="http://www.w3.org/2000/svg">
<rect width="100" height="100" rx="6" fill="#F6F6F6"/>
<path fill-rule="evenodd" clip-rule="evenodd" d="M55.3332 42.9993C54.4127 42.9993 53.6665 43.7455 53.6665 44.666C53.6665 45.5865 54.4127 46.3327 55.3332 46.3327C56.2536 46.3327 56.9998 45.5865 56.9998 44.666C56.9998 43.7455 56.2536 42.9993 55.3332 42.9993ZM51.6665 44.666C51.6665 42.641 53.3081 40.9993 55.3332 40.9993C57.3582 40.9993 58.9998 42.641 58.9998 44.666C58.9998 46.6911 57.3582 48.3327 55.3332 48.3327C53.3081 48.3327 51.6665 46.6911 51.6665 44.666Z" fill="#BBBBBB"/>
<path fill-rule="evenodd" clip-rule="evenodd" d="M49.9233 35.666H50.0763C53.1542 35.666 55.5662 35.666 57.4482 35.919C59.3745 36.178 60.8946 36.7185 62.0877 37.9115C63.2807 39.1046 63.8212 40.6246 64.0802 42.551C64.3332 44.4329 64.3332 46.845 64.3332 49.9229V50.0758C64.3332 53.1537 64.3332 55.5658 64.0802 57.4477C63.8212 59.3741 63.2807 60.8941 62.0877 62.0872C60.8946 63.2802 59.3745 63.8207 57.4482 64.0797C55.5662 64.3327 53.1542 64.3327 50.0763 64.3327H49.9233C46.8455 64.3327 44.4334 64.3327 42.5514 64.0797C40.6251 63.8207 39.1051 63.2802 37.912 62.0872C36.7189 60.8941 36.1785 59.3741 35.9195 57.4477C35.6665 55.5658 35.6665 53.1537 35.6665 50.0759V49.9228C35.6665 46.845 35.6665 44.4329 35.9195 42.551C36.1785 40.6246 36.7189 39.1046 37.912 37.9115C39.1051 36.7185 40.6251 36.178 42.5514 35.919C44.4334 35.666 46.8455 35.666 49.9233 35.666ZM39.3262 60.673C38.5667 59.9134 38.1308 58.8858 37.9017 57.1812C37.697 55.6592 37.6705 53.7174 37.667 51.1195L39.6605 49.3753C40.4793 48.6588 41.7134 48.6999 42.4827 49.4693L48.2023 55.1889C49.4623 56.4488 51.4456 56.6206 52.9034 55.5961L53.301 55.3167C54.4452 54.5125 55.9933 54.6057 57.0328 55.5413L61.3309 59.4095C61.3776 59.4516 61.4273 59.4885 61.4791 59.5201C61.2636 59.9747 60.9981 60.3483 60.6734 60.673C59.9139 61.4325 58.8863 61.8684 57.1817 62.0975C55.4484 62.3306 53.1708 62.3327 49.9998 62.3327C46.8289 62.3327 44.5512 62.3306 42.8179 62.0975C41.1134 61.8684 40.0858 61.4325 39.3262 60.673ZM42.8179 37.9012C41.1134 38.1303 40.0858 38.5662 39.3262 39.3257C38.5667 40.0853 38.1308 41.1129 37.9017 42.8175C37.7082 44.2568 37.6739 46.0714 37.6678 48.4613L38.3435 47.8701C39.9547 46.4603 42.383 46.5412 43.8969 48.055L49.6166 53.7747C50.1892 54.3474 51.0907 54.4255 51.7534 53.9598L52.151 53.6803C54.058 52.3401 56.6382 52.4954 58.3708 54.0547L62.0694 57.3834C62.0793 57.3171 62.0888 57.2497 62.098 57.1812C62.331 55.4479 62.3332 53.1703 62.3332 49.9993C62.3332 46.8284 62.331 44.5508 62.098 42.8175C61.8688 41.1129 61.433 40.0853 60.6734 39.3257C59.9139 38.5662 58.8863 38.1303 57.1817 37.9012C55.4484 37.6681 53.1708 37.666 49.9998 37.666C46.8289 37.666 44.5512 37.6681 42.8179 37.9012Z" fill="#BBBBBB"/>
</svg>
