<svg width="40" height="40" viewBox="0 0 40 40" fill="none" xmlns="http://www.w3.org/2000/svg">
<rect x="0.5" y="0.5" width="39" height="39" rx="7.5" fill="white"/>
<rect x="0.5" y="0.5" width="39" height="39" rx="7.5" stroke="#E6E6E6"/>
<path d="M20.0286 27.3428C19.1038 28.2677 17.9895 28.7302 16.6859 28.7303C15.3822 28.7304 14.268 28.268 13.3433 27.3433C12.4185 26.4185 11.9561 25.3042 11.9559 24.0003C11.9557 22.6964 12.418 21.582 13.3429 20.6571L15.5668 18.4332C15.7233 18.2767 15.9074 18.1985 16.1192 18.1986C16.331 18.1986 16.5152 18.2769 16.6718 18.4335C16.8284 18.5901 16.9066 18.7742 16.9065 18.9858C16.9064 19.1975 16.8281 19.3815 16.6716 19.5381L14.4469 21.7628C13.8289 22.3807 13.5199 23.1265 13.5199 24C13.5199 24.8735 13.8292 25.6195 14.4477 26.238C15.0662 26.8566 15.8123 27.1658 16.6858 27.1658C17.5592 27.1658 18.305 26.8568 18.923 26.2389L21.1477 24.0142C21.3042 23.8576 21.4883 23.7794 21.7001 23.7795C21.9119 23.7795 22.0961 23.8578 22.2527 24.0144C22.4093 24.171 22.4876 24.3551 22.4874 24.5668C22.4873 24.7784 22.409 24.9625 22.2525 25.119L20.0286 27.3428ZM18.683 23.1076C18.5264 23.2641 18.3423 23.3423 18.1305 23.3423C17.9187 23.3422 17.7345 23.2639 17.5779 23.1074C17.4213 22.9508 17.3431 22.7666 17.3432 22.555C17.3433 22.3434 17.4216 22.1593 17.5781 22.0028L21.9976 17.5834C22.1541 17.4268 22.3382 17.3486 22.55 17.3486C22.7618 17.3487 22.946 17.427 23.1026 17.5836C23.2592 17.7402 23.3375 17.9243 23.3373 18.1359C23.3372 18.3476 23.2589 18.5317 23.1024 18.6882L18.683 23.1076ZM25.1138 22.2577C24.9572 22.4142 24.7731 22.4925 24.5613 22.4924C24.3495 22.4924 24.1653 22.414 24.0087 22.2574C23.8521 22.1009 23.7739 21.9167 23.774 21.7051C23.7741 21.4935 23.8524 21.3094 24.0089 21.1529L26.2337 18.9282C26.8516 18.3102 27.1606 17.5645 27.1606 16.691C27.1606 15.8175 26.8513 15.0715 26.2328 14.4529C25.6143 13.8344 24.8683 13.5251 23.9948 13.5251C23.1213 13.5251 22.3755 13.8341 21.7576 14.4521L19.5328 16.6768C19.3763 16.8333 19.1922 16.9115 18.9804 16.9115C18.7686 16.9114 18.5844 16.8331 18.4278 16.6765C18.2712 16.52 18.193 16.3358 18.1931 16.1242C18.1932 15.9126 18.2715 15.7285 18.428 15.572L20.6519 13.3481C21.5768 12.4232 22.691 11.9608 23.9947 11.9607C25.2983 11.9606 26.4125 12.4229 27.3372 13.3477C28.262 14.2724 28.7245 15.3868 28.7246 16.6907C28.7248 17.9946 28.2625 19.109 27.3376 20.0338L25.1138 22.2577Z" fill="#ABABAB"/>
</svg>
