<svg width="64" height="64" viewBox="0 0 64 64" fill="none" xmlns="http://www.w3.org/2000/svg">
<rect x="0.5" y="0.5" width="63" height="63" rx="15.5" fill="white"/>
<rect x="0.5" y="0.5" width="63" height="63" rx="15.5" stroke="#E6E6E6"/>
<path d="M32.0343 41.0114C30.9245 42.1213 29.5874 42.6762 28.023 42.6763C26.4587 42.6764 25.1216 42.1216 24.0119 41.0119C22.9022 39.9022 22.3473 38.565 22.347 37.0003C22.3468 35.4356 22.9016 34.0984 24.0115 32.9885L26.6801 30.3199C26.8679 30.1321 27.0889 30.0382 27.3431 30.0383C27.5972 30.0383 27.8183 30.1323 28.0062 30.3202C28.1941 30.5081 28.288 30.729 28.2878 30.983C28.2877 31.237 28.1937 31.4579 28.0059 31.6457L25.3362 34.3153C24.5947 35.0569 24.2239 35.9518 24.2239 37C24.2239 38.0482 24.595 38.9434 25.3372 39.6856C26.0795 40.4279 26.9747 40.799 28.0229 40.799C29.0711 40.799 29.966 40.4282 30.7075 39.6867L33.3772 37.017C33.565 36.8292 33.786 36.7353 34.0402 36.7353C34.2943 36.7354 34.5154 36.8294 34.7033 37.0173C34.8912 37.2052 34.9851 37.4261 34.9849 37.6801C34.9848 37.9341 34.8908 38.1549 34.703 38.3428L32.0343 41.0114ZM30.4195 35.9291C30.2317 36.1169 30.0107 36.2108 29.7566 36.2108C29.5024 36.2107 29.2814 36.1167 29.0935 35.9288C28.9056 35.7409 28.8117 35.52 28.8118 35.266C28.812 35.012 28.9059 34.7912 29.0938 34.6033L34.3971 29.3C34.5849 29.1122 34.8059 29.0183 35.06 29.0184C35.3142 29.0184 35.5352 29.1124 35.7231 29.3003C35.9111 29.4882 36.0049 29.7092 36.0048 29.9631C36.0047 30.2171 35.9107 30.438 35.7229 30.6258L30.4195 35.9291ZM38.1365 34.9092C37.9487 35.0971 37.7277 35.1909 37.4735 35.1909C37.2194 35.1908 36.9983 35.0968 36.8104 34.9089C36.6225 34.721 36.5287 34.5001 36.5288 34.2461C36.5289 33.9922 36.6229 33.7713 36.8107 33.5835L39.4804 30.9138C40.222 30.1722 40.5927 29.2774 40.5927 28.2292C40.5927 27.181 40.2216 26.2857 39.4794 25.5435C38.7371 24.8013 37.8419 24.4301 36.7937 24.4301C35.7455 24.4301 34.8506 24.8009 34.1091 25.5425L31.4394 28.2121C31.2516 28.4 31.0306 28.4939 30.7765 28.4938C30.5223 28.4937 30.3012 28.3998 30.1133 28.2119C29.9254 28.0239 29.8316 27.803 29.8317 27.549C29.8318 27.2951 29.9258 27.0742 30.1136 26.8864L32.7823 24.2177C33.8921 23.1079 35.2292 22.5529 36.7936 22.5528C38.358 22.5527 39.695 23.1075 40.8047 24.2172C41.9144 25.3269 42.4694 26.6641 42.4696 28.2288C42.4698 29.7935 41.915 31.1308 40.8052 32.2406L38.1365 34.9092Z" fill="#ABABAB"/>
</svg>
