<svg width="206" height="80" viewBox="0 0 206 80" fill="none" xmlns="http://www.w3.org/2000/svg">
<circle cx="32" cy="35.5996" r="32" fill="#1B92FF"/>
<mask id="mask0_1_1503" style="mask-type:alpha" maskUnits="userSpaceOnUse" x="32" y="3" width="32" height="74">
<rect width="32" height="72.8" transform="matrix(1 0 0 -1 32 76.4004)" fill="#D9D9D9"/>
</mask>
<g mask="url(#mask0_1_1503)">
<path d="M0 35.5996C0 61.9996 32 76.3996 32 76.3996C32 76.3996 64 61.9996 64 35.5996C64 17.9265 49.6731 3.59961 32 3.59961C14.3269 3.59961 0 17.9265 0 35.5996Z" fill="#1B92FF"/>
</g>
<rect x="40.0657" y="23.4531" width="8.96" height="24.32" rx="4.48" fill="#E9F4FF"/>
<rect x="24.5049" y="23.498" width="8.96" height="24.32" rx="4.48" fill="#E9F4FF"/>
<rect opacity="0.8" x="29" y="21.623" width="8.96" height="30.8215" rx="4.48" transform="rotate(45.4799 29 21.623)" fill="#E9F4FF"/>
<rect opacity="0.8" x="50.7798" y="31.0684" width="8.83689" height="17.4077" rx="4.41844" transform="rotate(45.4799 50.7798 31.0684)" fill="#E9F4FF"/>
<rect opacity="0.8" x="44.5608" y="21.5781" width="9.06325" height="30.7102" rx="4.53162" transform="rotate(45.4799 44.5608 21.5781)" fill="#E9F4FF"/>
<path d="M145.93 41.0571C144.692 41.0144 143.668 40.8863 142.856 40.6728C142.088 40.4167 141.469 40.0751 140.999 39.6482C140.53 39.1786 140.188 38.6023 139.975 37.9192C139.804 37.1934 139.697 36.3395 139.654 35.3576C139.654 34.9734 139.633 34.3543 139.59 33.5005C139.59 32.6039 139.59 31.622 139.59 30.5547C139.59 29.4447 139.569 28.292 139.526 27.0966C139.526 25.9012 139.526 24.7485 139.526 23.6385C139.526 22.5285 139.526 21.5465 139.526 20.6927C139.526 19.8388 139.526 19.1984 139.526 18.7715C139.526 17.1919 139.953 16.0178 140.807 15.2494C141.704 14.4382 142.792 14.0326 144.073 14.0326C145.439 14.0326 146.549 14.4382 147.403 15.2494C148.3 16.0178 148.748 17.2132 148.748 18.8355V21.3331C149.559 21.3331 150.52 21.3331 151.63 21.3331C152.74 21.3331 153.871 21.3331 155.024 21.3331C156.177 21.3331 157.308 21.3331 158.418 21.3331C159.528 21.3331 160.488 21.3331 161.3 21.3331V18.4513C161.3 16.9571 161.748 15.8471 162.644 15.1213C163.541 14.3955 164.651 14.0326 165.974 14.0326C167.255 14.0326 168.344 14.3742 169.24 15.0572C170.137 15.7403 170.585 16.7863 170.585 18.1952C170.585 18.7502 170.585 19.8388 170.585 21.4611C170.628 23.0408 170.649 24.7485 170.649 26.5843C170.649 28.42 170.649 30.1704 170.649 31.8355C170.649 33.4578 170.628 34.5891 170.585 35.2295C170.543 36.2115 170.415 37.0653 170.201 37.7911C169.988 38.4742 169.625 39.0505 169.112 39.5201C168.6 39.9471 167.896 40.2886 166.999 40.5448C166.103 40.8009 164.929 40.9503 163.477 40.993C162.367 41.0784 161.065 41.1425 159.571 41.1852C158.119 41.1852 156.603 41.2065 155.024 41.2492C153.487 41.2492 151.929 41.2492 150.349 41.2492C148.769 41.2065 147.296 41.1425 145.93 41.0571ZM148.748 32.2197C148.791 32.9028 148.919 33.3084 149.132 33.4364C149.346 33.5645 149.815 33.6499 150.541 33.6926C151.907 33.7353 153.359 33.7566 154.896 33.7566C156.433 33.7566 157.82 33.7139 159.058 33.6286C159.528 33.5859 159.912 33.5645 160.211 33.5645C160.51 33.5218 160.745 33.4791 160.915 33.4364C161.086 33.3511 161.193 33.223 161.236 33.0522C161.321 32.8387 161.364 32.5612 161.364 32.2197V28.3133C160.553 28.3133 159.592 28.3133 158.482 28.3133C157.372 28.2706 156.219 28.2493 155.024 28.2493C153.871 28.2493 152.74 28.2706 151.63 28.3133C150.52 28.3133 149.559 28.3133 148.748 28.3133V32.2197ZM156.881 55.2097C156.881 53.2885 157.222 51.5595 157.906 50.0225C158.631 48.4856 159.613 47.1835 160.851 46.1162C162.132 45.0488 163.669 44.2377 165.462 43.6827C167.255 43.1277 169.24 42.8502 171.418 42.8502C173.424 42.8502 175.26 43.1277 176.925 43.6827C178.633 44.2377 180.084 45.0488 181.28 46.1162C182.518 47.1835 183.478 48.4856 184.162 50.0225C184.845 51.5168 185.186 53.2458 185.186 55.2097C185.186 56.9601 184.866 58.5824 184.226 60.0767C183.628 61.5709 182.731 62.873 181.536 63.983C180.341 65.0931 178.889 65.9683 177.181 66.6086C175.516 67.249 173.595 67.5692 171.418 67.5692C169.24 67.5692 167.255 67.249 165.462 66.6086C163.712 65.9683 162.196 65.0931 160.915 63.983C159.635 62.873 158.631 61.5709 157.906 60.0767C157.222 58.5824 156.881 56.9601 156.881 55.2097ZM166.359 55.0816C166.359 56.3197 166.807 57.3443 167.704 58.1555C168.6 58.924 169.774 59.3082 171.226 59.3082C172.72 59.3082 173.915 58.924 174.812 58.1555C175.751 57.3443 176.221 56.3197 176.221 55.0816C176.221 53.7155 175.772 52.6695 174.876 51.9437C173.979 51.1752 172.763 50.791 171.226 50.791C169.774 50.791 168.6 51.1539 167.704 51.8797C166.807 52.5627 166.359 53.6301 166.359 55.0816ZM179.487 17.875C179.401 16.0819 179.743 14.737 180.511 13.8405C181.322 12.9013 182.518 12.4316 184.098 12.4316C185.549 12.4316 186.723 12.8799 187.62 13.7765C188.559 14.6303 189.071 16.0819 189.157 18.1311C189.242 20.3084 189.285 22.251 189.285 23.9587C189.327 25.6237 189.349 27.2033 189.349 28.6975C189.349 30.1491 189.327 31.5366 189.285 32.8601C189.285 34.1836 189.263 35.5497 189.221 36.9586C189.135 39.0078 188.687 40.6302 187.876 41.8255C187.065 43.0209 185.848 43.6186 184.226 43.6186C182.603 43.6186 181.408 43.149 180.639 42.2098C179.914 41.2278 179.615 39.6482 179.743 37.4709C179.786 36.3609 179.807 35.0161 179.807 33.4364C179.85 31.8568 179.85 30.1918 179.807 28.4414C179.807 26.6483 179.764 24.8339 179.679 22.9981C179.636 21.1623 179.572 19.4546 179.487 17.875Z" fill="#1B92FF"/>
<path d="M110.137 67.1847C108.899 67.1847 107.725 66.7578 106.615 65.904C105.547 65.0501 104.971 63.7907 104.885 62.1257C104.885 61.6133 104.864 60.9943 104.821 60.2685C104.821 59.5428 104.8 58.7529 104.757 57.8991C104.757 57.0452 104.757 56.1487 104.757 55.2094C104.757 54.2702 104.757 53.331 104.757 52.3917C101.641 52.349 98.6096 52.285 95.6638 52.1996C92.7607 52.1142 90.1351 51.9648 87.7871 51.7513C85.8232 51.5806 84.457 51.111 83.6886 50.3425C82.9201 49.5313 82.5785 48.5067 82.6639 47.2686C82.7493 46.0305 83.1549 45.0272 83.8807 44.2588C84.6491 43.4476 86.058 43.0847 88.1072 43.1701C91.5654 43.2982 95.1515 43.4049 98.8658 43.4903C102.623 43.533 106.358 43.5543 110.073 43.5543C113.83 43.5543 117.544 43.533 121.215 43.4903C124.887 43.4049 128.388 43.2768 131.718 43.1061C133.895 43.0207 135.411 43.4263 136.265 44.3228C137.161 45.1767 137.609 46.2653 137.609 47.5888C137.609 48.8269 137.268 49.7875 136.585 50.4706C135.944 51.111 134.813 51.5165 133.191 51.6873C131.312 51.9008 128.815 52.0715 125.698 52.1996C122.624 52.285 119.252 52.349 115.58 52.3917C115.537 53.7579 115.495 55.1668 115.452 56.6183C115.452 58.0272 115.452 59.3079 115.452 60.4606C115.452 61.6133 115.281 62.5953 114.94 63.4064C114.641 64.2603 114.235 64.9647 113.723 65.5197C113.253 66.0747 112.698 66.4803 112.058 66.7365C111.417 67.0353 110.777 67.1847 110.137 67.1847ZM88.3634 30.6185C88.3634 28.9961 88.3634 27.6513 88.3634 26.584C88.3634 25.5167 88.3634 24.5988 88.3634 23.8303C88.4061 23.0192 88.4274 22.2934 88.4274 21.653C88.4701 21.0126 88.5342 20.2868 88.6196 19.4757C88.7476 18.0668 89.1959 17.0209 89.9644 16.3378C90.7328 15.612 91.9923 15.2278 93.7427 15.1851C96.4323 15.1424 99.186 15.0997 102.004 15.057C104.864 15.0143 107.703 14.993 110.521 14.993C113.339 14.9503 116.092 14.9503 118.782 14.993C121.472 14.993 124.012 15.057 126.403 15.1851C128.153 15.2705 129.412 15.6547 130.181 16.3378C130.949 17.0209 131.398 18.0668 131.526 19.4757C131.568 20.2868 131.611 21.0126 131.654 21.653C131.696 22.2934 131.718 23.0192 131.718 23.8303C131.761 24.5988 131.782 25.5167 131.782 26.584C131.782 27.6513 131.782 28.9961 131.782 30.6185C131.782 32.1554 131.675 33.4575 131.462 34.5249C131.291 35.5495 130.907 36.4033 130.309 37.0864C129.711 37.7268 128.857 38.2178 127.747 38.5593C126.637 38.9008 125.143 39.1357 123.265 39.2637C121.642 39.3491 119.743 39.4132 117.565 39.4559C115.388 39.4985 113.104 39.5199 110.713 39.5199C108.322 39.5199 105.91 39.4985 103.477 39.4559C101.086 39.4132 98.8871 39.3705 96.8806 39.3278C95.0021 39.2851 93.5079 39.093 92.3979 38.7514C91.2879 38.4099 90.434 37.8976 89.8363 37.2145C89.2386 36.4887 88.833 35.5922 88.6196 34.5249C88.4488 33.4575 88.3634 32.1554 88.3634 30.6185ZM98.0333 24.7909C97.9906 25.6021 97.9693 26.2638 97.9693 26.7761C98.0119 27.2457 98.0546 27.8861 98.0973 28.6973C98.1827 29.5938 98.3748 30.1915 98.6737 30.4904C99.0152 30.7892 99.677 30.96 100.659 31.0027C101.897 31.0454 103.327 31.0881 104.95 31.1308C106.615 31.1308 108.301 31.1308 110.009 31.1308C111.759 31.1308 113.467 31.1308 115.132 31.1308C116.797 31.0881 118.248 31.0454 119.486 31.0027C120.468 30.96 121.109 30.7892 121.408 30.4904C121.749 30.1915 121.963 29.5938 122.048 28.6973C122.091 27.8861 122.112 27.2457 122.112 26.7761C122.155 26.2638 122.155 25.6021 122.112 24.7909C122.069 24.3213 121.963 24.0011 121.792 23.8303C121.664 23.6596 121.322 23.5528 120.767 23.5101C119.657 23.4248 118.12 23.3821 116.156 23.3821C114.235 23.3394 112.207 23.318 110.073 23.318C107.981 23.318 105.953 23.3394 103.989 23.3821C102.025 23.4248 100.488 23.4675 99.3781 23.5101C98.8231 23.5528 98.4602 23.6596 98.2894 23.8303C98.1614 24.0011 98.076 24.3213 98.0333 24.7909Z" fill="#1B92FF"/>
</svg>
