<svg width="64" height="74" viewBox="0 0 64 74" fill="none" xmlns="http://www.w3.org/2000/svg">
<circle cx="32" cy="32.5996" r="32" fill="#1B92FF"/>
<mask id="mask0_1_1504" style="mask-type:alpha" maskUnits="userSpaceOnUse" x="32" y="0" width="32" height="74">
<rect width="32" height="72.8" transform="matrix(1 0 0 -1 32 73.4004)" fill="#D9D9D9"/>
</mask>
<g mask="url(#mask0_1_1504)">
<path d="M0 32.5996C0 58.9996 32 73.3996 32 73.3996C32 73.3996 64 58.9996 64 32.5996C64 14.9265 49.6731 0.599609 32 0.599609C14.3269 0.599609 0 14.9265 0 32.5996Z" fill="#1B92FF"/>
</g>
<rect x="40.0657" y="20.4531" width="8.96" height="24.32" rx="4.48" fill="#E9F4FF"/>
<rect x="24.5049" y="20.498" width="8.96" height="24.32" rx="4.48" fill="#E9F4FF"/>
<rect opacity="0.8" x="29" y="18.623" width="8.96" height="30.8215" rx="4.48" transform="rotate(45.4799 29 18.623)" fill="#E9F4FF"/>
<rect opacity="0.8" x="50.7798" y="28.0684" width="8.83689" height="17.4077" rx="4.41844" transform="rotate(45.4799 50.7798 28.0684)" fill="#E9F4FF"/>
<rect opacity="0.8" x="44.5608" y="18.5781" width="9.06325" height="30.7102" rx="4.53162" transform="rotate(45.4799 44.5608 18.5781)" fill="#E9F4FF"/>
</svg>
